<?xml version="1.0" encoding="iso-8859-1" standalone="no"?> 
<?xml-stylesheet href="Q1SP17REDUX.css" type="text/css"?> 
<svg xmlns="http://www.w3.org/2000/svg" xmlns:xlink="http://www.w3.org/1999/xlink" width="263.89905pt" height="259.46156pt" viewBox="-7.25044 -2.27826 263.89905 259.46156 "> 
<g transform="translate(0, 257.1833 ) scale(1,-1) translate(0,2.27826 )"> 
  <g>
 <g stroke="rgb(0.0%,0.0%,0.0%)">
 <g fill="rgb(0.0%,0.0%,0.0%)">
 <g stroke-width="0.4pt">
 <g>
 </g>
 <g>
 <g>
 <clipPath id="pgfcp1"> <path d=" M  0.0 0.0 L  244.06738 0.0 L  244.06738 244.06738 L  0.0 244.06738 Z  "/>
</clipPath>
 <g clip-path="url(#pgfcp1)">
 <g>
 <g stroke-width="1.6pt">
 <g stroke="rgb(0.0%,0.0%,50.0%)">
 <g fill="rgb(0.0%,0.0%,50.0%)">
 <path d=" M  4.6936 262.8418 C  4.6936 262.8418 8.93254 258.60286 10.56061 256.9748 C  12.18867 255.34673 14.79955 252.73586 16.42761 251.10779 C  18.05568 249.47972 20.66655 246.86885 22.29462 245.24078 C  23.92268 243.61272 26.53355 241.00185 28.16162 239.37378 C  29.78969 237.74571 32.40056 235.13484 34.02863 233.50677 C  35.6567 231.87871 38.26756 229.26784 39.89563 227.63977 C  41.5237 226.0117 44.13457 223.40083 45.76263 221.77277 C  47.3907 220.1447 50.00157 217.53383 51.62964 215.90576 C  53.2577 214.2777 55.86858 211.66682 57.49664 210.03876 C  59.12471 208.41069 61.73558 205.79982 63.36365 204.17175 C  64.99171 202.54369 67.60258 199.93282 69.23065 198.30475 C  70.85872 196.67668 73.46959 194.06581 75.09766 192.43774 C  76.72572 190.80968 79.3366 188.1988 80.96466 186.57074 C  82.59273 184.94267 85.2036 182.3318 86.83167 180.70374 C  88.45973 179.07567 91.0706 176.4648 92.69867 174.83673 C  94.32674 173.20866 96.9376 170.5978 98.56567 168.96973 C  100.19374 167.34166 102.80461 164.73079 104.43268 163.10272 C  106.06075 161.47466 108.67162 158.86378 110.29968 157.23572 C  111.92775 155.60765 114.53862 152.99678 116.16669 151.36871 C  117.79475 149.74065 120.40562 147.12978 122.03369 145.50171 C  123.66176 143.87364 126.27263 141.26277 127.9007 139.6347 C  129.52876 138.00664 132.13963 135.39577 133.7677 133.7677 C  135.39577 132.13963 138.00664 129.52876 139.6347 127.9007 C  141.26277 126.27263 145.50171 122.03369 145.50171 122.03369  " style="fill:none"/>
 </g>
 </g>
 </g>
 </g>
 <g>
 <g stroke-width="1.6pt">
 <g stroke="rgb(0.0%,0.0%,50.0%)">
 <g fill="rgb(0.0%,0.0%,50.0%)">
 <path d=" M  145.50171 122.03369 C  145.50171 122.03369 148.32765 124.85963 149.41302 125.945 C  150.4984 127.03038 152.23897 128.77095 153.32434 129.85632 C  154.40971 130.9417 156.15028 132.68227 157.23566 133.76764 C  158.32103 134.85301 160.0616 136.59358 161.14697 137.67896 C  162.23235 138.76433 163.97293 140.50491 165.0583 141.59029 C  166.14368 142.67566 167.88425 144.41623 168.96962 145.5016 C  170.055 146.58698 171.79556 148.32755 172.88094 149.41292 C  173.96631 150.49829 175.70688 152.23886 176.79225 153.32423 C  177.87762 154.4096 179.61821 156.15019 180.70358 157.23557 C  181.78896 158.32094 183.52953 160.06151 184.6149 161.14688 C  185.70027 162.23225 187.44084 163.97282 188.52621 165.0582 C  189.61159 166.14357 191.35216 167.88414 192.43753 168.96951 C  193.5229 170.05489 195.26349 171.79547 196.34886 172.88084 C  197.43423 173.96622 199.1748 175.70679 200.26018 176.79216 C  201.34555 177.87753 203.08612 179.6181 204.1715 180.70348 C  205.25687 181.78885 206.99744 183.52942 208.08281 184.61479 C  209.16818 185.70016 210.90877 187.44075 211.99414 188.52612 C  213.07951 189.6115 214.82008 191.35207 215.90546 192.43744 C  216.99083 193.52281 218.7314 195.26338 219.81677 196.34875 C  220.90215 197.43413 222.64272 199.1747 223.72809 200.26007 C  224.81346 201.34544 226.55405 203.08603 227.63942 204.1714 C  228.7248 205.25677 230.46536 206.99734 231.55074 208.08272 C  232.63611 209.16809 234.37668 210.90866 235.46205 211.99403 C  236.54742 213.0794 239.37337 215.90535 239.37337 215.90535  " style="fill:none"/>
 </g>
 </g>
 </g>
 </g>
 <g>
 <g stroke-width="1.6pt">
 <g stroke="rgb(50.0%,0.0%,0.0%)">
 <g fill="rgb(50.0%,0.0%,0.0%)">
 <path d=" M  122.26837 100.91243 C  122.26837 100.91243 123.12299 103.57506 123.45122 104.33333 C  123.77945 105.0916 124.30585 105.87048 124.63408 106.3776 C  124.96231 106.8847 125.48871 107.5743 125.81694 107.98827 C  126.14517 108.40224 126.67157 109.00189 126.9998 109.36125 C  127.32803 109.72061 127.85443 110.25621 128.18266 110.57834 C  128.5109 110.90047 129.03728 111.38838 129.36551 111.68297 C  129.69374 111.97755 130.22014 112.42842 130.54837 112.70154 C  130.8766 112.97466 131.403 113.3957 131.73123 113.65149 C  132.05946 113.90727 132.58586 114.3037 132.9141 114.54507 C  133.24232 114.78645 133.76872 115.1621 134.09695 115.39127 C  134.42519 115.62044 134.95157 115.97823 135.2798 116.19688 C  135.60803 116.41554 136.13443 116.75781 136.46266 116.96729 C  136.7909 117.17676 137.31729 117.50534 137.64552 117.7067 C  137.97375 117.90805 138.50015 118.22446 138.82838 118.41858 C  139.15662 118.6127 139.68301 118.9182 140.01125 119.1058 C  140.33948 119.29341 140.86588 119.58907 141.1941 119.77078 C  141.52234 119.9525 142.04872 120.23918 142.37695 120.41553 C  142.70518 120.59187 143.23158 120.87036 143.55981 121.04178 C  143.88805 121.2132 144.41444 121.4842 144.74268 121.65105 C  145.0709 121.81789 145.5973 122.08165 145.92554 122.2443 C  146.25377 122.40694 146.78017 122.66455 147.1084 122.82336 C  147.43663 122.98218 147.96301 123.23373 148.29124 123.38892 C  148.61948 123.5441 149.14587 123.7901 149.4741 123.9419 C  149.80234 124.09369 150.32874 124.33441 150.65697 124.48305 C  150.9852 124.63168 151.5116 124.86752 151.83983 125.01317 C  152.16806 125.15881 152.69446 125.39 153.02269 125.53284 C  153.35092 125.67567 153.8773 125.9025 154.20554 126.04268 C  154.53377 126.18286 155.06017 126.40555 155.3884 126.54323 C  155.71663 126.68091 156.24303 126.8997 156.57126 127.035 C  156.89949 127.1703 157.42589 127.38538 157.75412 127.51842 C  158.08235 127.65146 158.60873 127.863 158.93697 127.9939 C  159.2652 128.12479 159.7916 128.33298 160.11983 128.4618 C  160.44806 128.59064 160.97446 128.79562 161.30269 128.9225 C  161.63092 129.04938 162.15732 129.2513 162.48555 129.37631 C  162.81378 129.50133 163.34018 129.70032 163.66841 129.82353 C  163.99664 129.94675 164.52303 130.14294 164.85126 130.26445 C  165.17949 130.38596 165.70589 130.57948 166.03412 130.69934 C  166.36235 130.8192 166.88875 131.01009 167.21698 131.12836 C  167.54521 131.24663 168.07161 131.43509 168.39984 131.55185 C  168.72807 131.66861 169.25447 131.85466 169.5827 131.96996 C  169.91093 132.08525 170.43732 132.26903 170.76555 132.38292 C  171.09378 132.49681 171.62018 132.67834 171.94841 132.79088 C  172.27664 132.90341 172.80304 133.0828 173.13127 133.19402 C  173.4595 133.30524 173.9859 133.48259 174.31413 133.59254 C  174.64236 133.7025 175.16876 133.87782 175.497 133.98656 C  175.82523 134.09529 176.35161 134.26869 176.67984 134.37624 C  177.00807 134.48378 177.53447 134.65533 177.8627 134.76175 C  178.19093 134.86816 178.71733 135.03792 179.04556 135.1432 C  179.3738 135.24849 179.90019 135.41644 180.22842 135.52066 C  180.55666 135.62488 181.08304 135.79118 181.41127 135.89436 C  181.7395 135.99754 182.2659 136.1622 182.59413 136.26436 C  182.92236 136.36652 183.44876 136.52954 183.777 136.63072 C  184.10522 136.7319 184.63162 136.89339 184.95985 136.9936 C  185.28809 137.09383 185.81448 137.25381 186.14272 137.3531 C  186.47095 137.4524 186.99733 137.61092 187.32556 137.7093 C  187.6538 137.8077 188.18019 137.96477 188.50842 138.06227 C  188.83665 138.15977 189.36305 138.31548 189.69128 138.41212 C  190.01952 138.50877 190.54591 138.66312 190.87415 138.75894 C  191.20238 138.85477 191.72878 139.0078 192.057 139.1028 C  192.38524 139.1978 192.91162 139.3495 193.23985 139.44371 C  193.56808 139.53792 194.09448 139.68842 194.42271 139.78186 C  194.75095 139.8753 195.27734 140.02458 195.60558 140.11726 C  195.9338 140.20995 196.4602 140.35799 196.78844 140.44994 C  197.11667 140.54189 197.64307 140.6888 197.9713 140.78003 C  198.29953 140.87126 198.82591 141.01701 199.15414 141.10754 C  199.48238 141.19807 200.00877 141.3427 200.337 141.43254 C  200.66524 141.52238 201.19164 141.66592 201.51987 141.7551 C  201.8481 141.84427 202.3745 141.98674 202.70273 142.07526 C  203.03096 142.16377 203.55736 142.3052 203.88559 142.39308 C  204.21382 142.48096 204.7402 142.62138 205.06844 142.70863 C  205.39667 142.79588 205.92307 142.9353 206.2513 143.02193 C  206.57953 143.10855 207.10593 143.24701 207.43416 143.33304 C  207.76239 143.41907 208.28879 143.5566 208.61702 143.64203 C  208.94525 143.72746 209.47163 143.86401 209.79987 143.94887 C  210.1281 144.03372 210.6545 144.16937 210.98273 144.25368 C  211.31096 144.33798 211.83736 144.47275 212.16559 144.55649 C  212.49382 144.64023 213.02022 144.77408 213.34845 144.85727 C  213.67668 144.94046 214.20308 145.07346 214.53131 145.15611 C  214.85954 145.23877 215.38593 145.37094 215.71416 145.45308 C  216.04239 145.53522 216.56879 145.66652 216.89702 145.74814 C  217.22525 145.82976 217.75165 145.9603 218.07988 146.04141 C  218.40811 146.12253 218.93451 146.25224 219.26274 146.33287 C  219.59097 146.4135 220.11737 146.54239 220.4456 146.62253 C  220.77383 146.70267 221.30022 146.83083 221.62845 146.91049 C  221.95668 146.99016 222.48308 147.11754 222.81131 147.19673 C  223.13954 147.27592 223.66594 147.40259 223.99417 147.48132 C  224.3224 147.56006 224.8488 147.68593 225.17703 147.7642 C  225.50526 147.84248 226.03166 147.96768 226.3599 148.04552 C  226.68813 148.12335 227.21451 148.24783 227.54274 148.32523 C  227.87097 148.40262 228.39737 148.52641 228.7256 148.60338 C  229.05383 148.68034 229.58023 148.80345 229.90846 148.87999 C  230.2367 148.95653 230.76309 149.07896 231.09132 149.15509 C  231.41956 149.23122 231.94594 149.35298 232.27417 149.4287 C  232.6024 149.50441 233.1288 149.62552 233.45703 149.70084 C  233.78526 149.77615 234.31166 149.89662 234.6399 149.97154 C  234.96812 150.04646 235.49452 150.16634 235.82275 150.24086 C  236.15099 150.31538 236.67738 150.43456 237.00562 150.5087 C  237.33385 150.58284 237.86023 150.70149 238.18846 150.77525 C  238.5167 150.84901 239.37132 151.04039 239.37132 151.04039  " style="fill:none"/>
 </g>
 </g>
 </g>
 </g>
 <g>
 <g stroke="rgb(0.0%,0.0%,50.0%)">
 <g fill="rgb(0.0%,0.0%,50.0%)">
 <g>
 <g stroke="rgb(0.0%,0.0%,50.0%)">
 <g fill="rgb(0.0%,0.0%,50.0%)">
 </g>
 </g>
 </g>
 <g>
 <g transform="matrix(1.0,0.0,0.0,1.0,148.13306,225.13977)">
 <g fill="rgb(0.0%,0.0%,50.0%)">
 <text style="stroke:none" transform="scale(1,-1) translate(30.22388,0)" text-anchor="middle"  font-size="10"> 
g(x) = |x − 1|</text> 
</g>
 </g>
 </g>
 </g>
 </g>
 </g>
 <g>
 <g stroke="rgb(50.0%,0.0%,0.0%)">
 <g fill="rgb(50.0%,0.0%,0.0%)">
 <g>
 <g stroke="rgb(50.0%,0.0%,0.0%)">
 <g fill="rgb(50.0%,0.0%,0.0%)">
 </g>
 </g>
 </g>
 <g>
 <g transform="matrix(1.0,0.0,0.0,1.0,146.32227,72.3463)">
 <g fill="rgb(50.0%,0.0%,0.0%)">
 <text style="stroke:none" transform="scale(1,-1) translate(32.03467,0)" text-anchor="middle"  font-size="10"> 
f(x) = <img 
src="Q1SP17REDUX0x.png" alt="√ --
  x"  class="sqrt"  /> − 1</text> 
</g>
 </g>
 </g>
 </g>
 </g>
 </g>
 </g>
 </g>
 <g>
 <g>
 <g stroke-width="0.2pt">
 <g stroke="rgb(50.0%,50.0%,50.0%)">
 <g fill="rgb(50.0%,50.0%,50.0%)">
 <path d=" M  4.6936 119.8998 L  4.6936 124.16757 M  28.16162 119.8998 L  28.16162 124.16757 M  51.62964 119.8998 L  51.62964 124.16757 M  75.09766 119.8998 L  75.09766 124.16757 M  98.56567 119.8998 L  98.56567 124.16757 M  145.50171 119.8998 L  145.50171 124.16757 M  168.96973 119.8998 L  168.96973 124.16757 M  192.43774 119.8998 L  192.43774 124.16757 M  215.90576 119.8998 L  215.90576 124.16757 M  239.37378 119.8998 L  239.37378 124.16757  " style="fill:none"/>
 </g>
 </g>
 </g>
 </g>
 </g>
 <g>
 <g>
 <g stroke-width="0.2pt">
 <g stroke="rgb(50.0%,50.0%,50.0%)">
 <g fill="rgb(50.0%,50.0%,50.0%)">
 <path d=" M  119.8998 4.6936 L  124.16757 4.6936 M  119.8998 28.16162 L  124.16757 28.16162 M  119.8998 51.62964 L  124.16757 51.62964 M  119.8998 75.09766 L  124.16757 75.09766 M  119.8998 98.56567 L  124.16757 98.56567 M  119.8998 145.50171 L  124.16757 145.50171 M  119.8998 168.96973 L  124.16757 168.96973 M  119.8998 192.43774 L  124.16757 192.43774 M  119.8998 215.90576 L  124.16757 215.90576 M  119.8998 239.37378 L  124.16757 239.37378  " style="fill:none"/>
 </g>
 </g>
 </g>
 </g>
 </g>
 <path d=" M  0.0 122.03369 L  242.06741 122.03369  " style="fill:none"/>
 <g>
 <g transform="matrix(1.0,0.0,0.0,1.0,242.06741,122.03369)">
 <g>
 <path d=" M  1.99997 0.0 L  -1.19998 1.59998 L  0.0 0.0 L  -1.19998 -1.59998  " style="stroke:none"/>
 </g>
  </g>
 </g>
 <path d=" M  122.03369 0.0 L  122.03369 242.06741  " style="fill:none"/>
 <g>
 <g transform="matrix(0.0,1.0,-1.0,0.0,122.03369,242.06741)">
 <g>
 <path d=" M  1.99997 0.0 L  -1.19998 1.59998 L  0.0 0.0 L  -1.19998 -1.59998  " style="stroke:none"/>
 </g>
  </g>
 </g>
 <g>
 <g>
 <g transform="matrix(1.0,0.0,0.0,1.0,-3.91747,109.92238)">
 <g fill="rgb(0.0%,0.0%,0.0%)">
 <text style="stroke:none" transform="scale(1,-1) translate(8.61107,0)" text-anchor="middle"  font-size="10"> 
 − 5</text> 
</g>
 </g>
 </g>
 </g>
 <g>
 <g>
 <g transform="matrix(1.0,0.0,0.0,1.0,19.55055,109.92238)">
 <g fill="rgb(0.0%,0.0%,0.0%)">
 <text style="stroke:none" transform="scale(1,-1) translate(8.61107,0)" text-anchor="middle"  font-size="10"> 
 − 4</text> 
</g>
 </g>
 </g>
 </g>
 <g>
 <g>
 <g transform="matrix(1.0,0.0,0.0,1.0,43.01857,109.92238)">
 <g fill="rgb(0.0%,0.0%,0.0%)">
 <text style="stroke:none" transform="scale(1,-1) translate(8.61107,0)" text-anchor="middle"  font-size="10"> 
 − 3</text> 
</g>
 </g>
 </g>
 </g>
 <g>
 <g>
 <g transform="matrix(1.0,0.0,0.0,1.0,66.48659,109.92238)">
 <g fill="rgb(0.0%,0.0%,0.0%)">
 <text style="stroke:none" transform="scale(1,-1) translate(8.61107,0)" text-anchor="middle"  font-size="10"> 
 − 2</text> 
</g>
 </g>
 </g>
 </g>
 <g>
 <g>
 <g transform="matrix(1.0,0.0,0.0,1.0,89.9546,109.92238)">
 <g fill="rgb(0.0%,0.0%,0.0%)">
 <text style="stroke:none" transform="scale(1,-1) translate(8.61107,0)" text-anchor="middle"  font-size="10"> 
 − 1</text> 
</g>
 </g>
 </g>
 </g>
 <g>
 <g>
 <g transform="matrix(1.0,0.0,0.0,1.0,143.00171,109.9224)">
 <g fill="rgb(0.0%,0.0%,0.0%)">
 <text style="stroke:none" transform="scale(1,-1) translate(2.5,0)" text-anchor="middle"  font-size="10"> 
1</text> 
</g>
 </g>
 </g>
 </g>
 <g>
 <g>
 <g transform="matrix(1.0,0.0,0.0,1.0,166.46973,109.9224)">
 <g fill="rgb(0.0%,0.0%,0.0%)">
 <text style="stroke:none" transform="scale(1,-1) translate(2.5,0)" text-anchor="middle"  font-size="10"> 
2</text> 
</g>
 </g>
 </g>
 </g>
 <g>
 <g>
 <g transform="matrix(1.0,0.0,0.0,1.0,189.93774,109.9224)">
 <g fill="rgb(0.0%,0.0%,0.0%)">
 <text style="stroke:none" transform="scale(1,-1) translate(2.5,0)" text-anchor="middle"  font-size="10"> 
3</text> 
</g>
 </g>
 </g>
 </g>
 <g>
 <g>
 <g transform="matrix(1.0,0.0,0.0,1.0,213.40576,109.9224)">
 <g fill="rgb(0.0%,0.0%,0.0%)">
 <text style="stroke:none" transform="scale(1,-1) translate(2.5,0)" text-anchor="middle"  font-size="10"> 
4</text> 
</g>
 </g>
 </g>
 </g>
 <g>
 <g>
 <g transform="matrix(1.0,0.0,0.0,1.0,236.87378,109.9224)">
 <g fill="rgb(0.0%,0.0%,0.0%)">
 <text style="stroke:none" transform="scale(1,-1) translate(2.5,0)" text-anchor="middle"  font-size="10"> 
5</text> 
</g>
 </g>
 </g>
 </g>
 <g>
 <g>
 <g transform="matrix(1.0,0.0,0.0,1.0,99.14468,1.88805)">
 <g fill="rgb(0.0%,0.0%,0.0%)">
 <text style="stroke:none" transform="scale(1,-1) translate(8.61107,0)" text-anchor="middle"  font-size="10"> 
 − 5</text> 
</g>
 </g>
 </g>
 </g>
 <g>
 <g>
 <g transform="matrix(1.0,0.0,0.0,1.0,99.14468,25.35606)">
 <g fill="rgb(0.0%,0.0%,0.0%)">
 <text style="stroke:none" transform="scale(1,-1) translate(8.61107,0)" text-anchor="middle"  font-size="10"> 
 − 4</text> 
</g>
 </g>
 </g>
 </g>
 <g>
 <g>
 <g transform="matrix(1.0,0.0,0.0,1.0,99.14468,48.82408)">
 <g fill="rgb(0.0%,0.0%,0.0%)">
 <text style="stroke:none" transform="scale(1,-1) translate(8.61107,0)" text-anchor="middle"  font-size="10"> 
 − 3</text> 
</g>
 </g>
 </g>
 </g>
 <g>
 <g>
 <g transform="matrix(1.0,0.0,0.0,1.0,99.14468,72.2921)">
 <g fill="rgb(0.0%,0.0%,0.0%)">
 <text style="stroke:none" transform="scale(1,-1) translate(8.61107,0)" text-anchor="middle"  font-size="10"> 
 − 2</text> 
</g>
 </g>
 </g>
 </g>
 <g>
 <g>
 <g transform="matrix(1.0,0.0,0.0,1.0,99.14468,95.76012)">
 <g fill="rgb(0.0%,0.0%,0.0%)">
 <text style="stroke:none" transform="scale(1,-1) translate(8.61107,0)" text-anchor="middle"  font-size="10"> 
 − 1</text> 
</g>
 </g>
 </g>
 </g>
 <g>
 <g>
 <g transform="matrix(1.0,0.0,0.0,1.0,111.36682,142.2795)">
 <g fill="rgb(0.0%,0.0%,0.0%)">
 <text style="stroke:none" transform="scale(1,-1) translate(2.5,0)" text-anchor="middle"  font-size="10"> 
1</text> 
</g>
 </g>
 </g>
 </g>
 <g>
 <g>
 <g transform="matrix(1.0,0.0,0.0,1.0,111.36682,165.74751)">
 <g fill="rgb(0.0%,0.0%,0.0%)">
 <text style="stroke:none" transform="scale(1,-1) translate(2.5,0)" text-anchor="middle"  font-size="10"> 
2</text> 
</g>
 </g>
 </g>
 </g>
 <g>
 <g>
 <g transform="matrix(1.0,0.0,0.0,1.0,111.36682,189.21553)">
 <g fill="rgb(0.0%,0.0%,0.0%)">
 <text style="stroke:none" transform="scale(1,-1) translate(2.5,0)" text-anchor="middle"  font-size="10"> 
3</text> 
</g>
 </g>
 </g>
 </g>
 <g>
 <g>
 <g transform="matrix(1.0,0.0,0.0,1.0,111.36682,212.68355)">
 <g fill="rgb(0.0%,0.0%,0.0%)">
 <text style="stroke:none" transform="scale(1,-1) translate(2.5,0)" text-anchor="middle"  font-size="10"> 
4</text> 
</g>
 </g>
 </g>
 </g>
 <g>
 <g>
 <g transform="matrix(1.0,0.0,0.0,1.0,111.36682,236.15157)">
 <g fill="rgb(0.0%,0.0%,0.0%)">
 <text style="stroke:none" transform="scale(1,-1) translate(2.5,0)" text-anchor="middle"  font-size="10"> 
5</text> 
</g>
 </g>
 </g>
 </g>
 <g>
 <g stroke="rgb(50.0%,0.0%,0.0%)">
 <g fill="rgb(50.0%,0.0%,0.0%)">
 <g fill="rgb(50.0%,0.0%,0.0%)">
 <g stroke="rgb(50.0%,0.0%,0.0%)">
 <g fill="rgb(50.0%,0.0%,0.0%)">
 <g fill="rgb(50.0%,0.0%,0.0%)">
 <path d=" M  124.03369 98.56567 C  124.03369 99.67026 123.13828 100.56567 122.03369 100.56567 C  120.92911 100.56567 120.03369 99.67026 120.03369 98.56567 C  120.03369 97.46109 120.92911 96.56567 122.03369 96.56567 C  123.13828 96.56567 124.03369 97.46109 124.03369 98.56567 Z M  122.03369 98.56567  " />
 <path d="  " />
 </g>
 </g>
 </g>
 </g>
 </g>
 </g>
 </g>
 <g>
 <g>
 <g transform="matrix(1.0,0.0,0.0,1.0,247.60036,119.88092)">
 <g fill="rgb(0.0%,0.0%,0.0%)">
 <text style="stroke:none" transform="scale(1,-1) translate(2.85764,0)" text-anchor="middle"  font-size="10"> 
x</text> 
</g>
 </g>
 </g>
 </g>
 <g>
 <g>
 <g transform="matrix(1.0,0.0,0.0,1.0,119.4029,249.54478)">
 <g fill="rgb(0.0%,0.0%,0.0%)">
 <text style="stroke:none" transform="scale(1,-1) translate(2.6308,0)" text-anchor="middle"  font-size="10"> 
y</text> 
</g>
 </g>
 </g>
 </g>
 </g>
 </g>
 </g>
 </g>
 </g>
 
                                                                   </g> 
</svg> 
