<?xml version="1.0" encoding="iso-8859-1" standalone="no"?> 
<?xml-stylesheet href="Q1SP17REDUX.css" type="text/css"?> 
<svg xmlns="http://www.w3.org/2000/svg" xmlns:xlink="http://www.w3.org/1999/xlink" width="263.89905pt" height="259.46156pt" viewBox="-7.25044 -2.27826 263.89905 259.46156 "> 
<g transform="translate(0, 257.1833 ) scale(1,-1) translate(0,2.27826 )"> 
  <g>
 <g stroke="rgb(0.0%,0.0%,0.0%)">
 <g fill="rgb(0.0%,0.0%,0.0%)">
 <g stroke-width="0.4pt">
 <g>
 </g>
 <g>
 <g>
 <clipPath id="pgfcp2"> <path d=" M  0.0 0.0 L  244.06738 0.0 L  244.06738 244.06738 L  0.0 244.06738 Z  "/>
</clipPath>
 <g clip-path="url(#pgfcp2)">
 <g>
 <g stroke-width="1.6pt">
 <g stroke="rgb(0.0%,0.0%,50.0%)">
 <g fill="rgb(0.0%,0.0%,50.0%)">
 <path d=" M  4.6936 215.90576 C  4.6936 215.90576 7.51955 213.0798 8.60492 211.99443 C  9.69029 210.90906 11.43086 209.16849 12.51624 208.08311 C  13.60161 206.99774 15.34218 205.25717 16.42755 204.1718 C  17.51292 203.08643 19.2535 201.34586 20.33887 200.26048 C  21.42424 199.17511 23.16483 197.43452 24.2502 196.34915 C  25.33557 195.26378 27.07614 193.52321 28.16151 192.43784 C  29.24689 191.35246 30.98746 189.6119 32.07283 188.52652 C  33.1582 187.44115 34.89877 185.70058 35.98415 184.6152 C  37.06952 183.52983 38.8101 181.78925 39.89548 180.70387 C  40.98085 179.6185 42.72142 177.87793 43.8068 176.79256 C  44.89217 175.70718 46.63274 173.96661 47.71811 172.88124 C  48.80348 171.79587 50.54405 170.0553 51.62943 168.96992 C  52.7148 167.88455 54.45538 166.14397 55.54076 165.0586 C  56.62613 163.97322 58.3667 162.23265 59.45207 161.14728 C  60.53745 160.0619 62.27802 158.32133 63.36339 157.23596 C  64.44876 156.15059 66.18933 154.41002 67.2747 153.32465 C  68.36008 152.23927 70.10066 150.49869 71.18604 149.41331 C  72.27141 148.32794 74.01198 146.58737 75.09735 145.502 C  76.18272 144.41663 77.9233 142.67606 79.00867 141.59068 C  80.09404 140.50531 81.83461 138.76474 82.91998 137.67937 C  84.00536 136.594 85.74594 134.85341 86.83131 133.76804 C  87.91669 132.68266 89.65726 130.9421 90.74263 129.85672 C  91.828 128.77135 93.56857 127.03078 94.65395 125.9454 C  95.73932 124.86003 98.56526 122.03409 98.56526 122.03409  " style="fill:none"/>
 </g>
 </g>
 </g>
 </g>
 <g>
 <g stroke-width="1.6pt">
 <g stroke="rgb(0.0%,0.0%,50.0%)">
 <g fill="rgb(0.0%,0.0%,50.0%)">
 <path d=" M  98.56567 122.03369 C  98.56567 122.03369 102.80461 126.27263 104.43268 127.9007 C  106.06075 129.52876 108.67162 132.13963 110.29968 133.7677 C  111.92775 135.39577 114.53862 138.00664 116.16669 139.6347 C  117.79475 141.26277 120.40562 143.87364 122.03369 145.50171 C  123.66176 147.12978 126.27263 149.74065 127.9007 151.36871 C  129.52876 152.99678 132.13963 155.60765 133.7677 157.23572 C  135.39577 158.86378 138.00664 161.47466 139.6347 163.10272 C  141.26277 164.73079 143.87364 167.34166 145.50171 168.96973 C  147.12978 170.5978 149.74065 173.20866 151.36871 174.83673 C  152.99678 176.4648 155.60765 179.07567 157.23572 180.70374 C  158.86378 182.3318 161.47466 184.94267 163.10272 186.57074 C  164.73079 188.1988 167.34166 190.80968 168.96973 192.43774 C  170.5978 194.06581 173.20866 196.67668 174.83673 198.30475 C  176.4648 199.93282 179.07567 202.54369 180.70374 204.17175 C  182.3318 205.79982 184.94267 208.41069 186.57074 210.03876 C  188.1988 211.66682 190.80968 214.2777 192.43774 215.90576 C  194.06581 217.53383 196.67668 220.1447 198.30475 221.77277 C  199.93282 223.40083 202.54369 226.0117 204.17175 227.63977 C  205.79982 229.26784 208.41069 231.87871 210.03876 233.50677 C  211.66682 235.13484 214.2777 237.74571 215.90576 239.37378 C  217.53383 241.00185 220.1447 243.61272 221.77277 245.24078 C  223.40083 246.86885 226.0117 249.47972 227.63977 251.10779 C  229.26784 252.73586 231.87871 255.34673 233.50677 256.9748 C  235.13484 258.60286 239.37378 262.8418 239.37378 262.8418  " style="fill:none"/>
 </g>
 </g>
 </g>
 </g>
 <g>
 <g stroke-width="1.6pt">
 <g stroke="rgb(50.0%,0.0%,0.0%)">
 <g fill="rgb(50.0%,0.0%,0.0%)">
 <path d=" M  122.03369 98.56567 C  122.03369 98.56567 122.89003 102.80472 123.21892 103.83957 C  123.5478 104.87442 124.07526 105.48853 124.40414 106.02422 C  124.73303 106.5599 125.26048 107.27184 125.58937 107.70049 C  125.91826 108.12914 126.44571 108.74484 126.7746 109.11365 C  127.10349 109.48245 127.63094 110.02975 127.95982 110.35866 C  128.28871 110.68756 128.81616 111.18446 129.14505 111.48425 C  129.47394 111.78404 130.0014 112.24205 130.33029 112.51933 C  130.65918 112.79662 131.18663 113.22354 131.51552 113.48276 C  131.8444 113.74197 132.37186 114.14334 132.70074 114.38763 C  133.02963 114.63193 133.55708 115.0118 133.88597 115.24348 C  134.21486 115.47517 134.74231 115.83665 135.0712 116.05751 C  135.40009 116.27837 135.92754 116.62389 136.25642 116.8353 C  136.58531 117.0467 137.11276 117.3782 137.44165 117.5813 C  137.77054 117.7844 138.298 118.10344 138.62689 118.29913 C  138.95578 118.49483 139.48323 118.8027 139.81212 118.99174 C  140.141 119.18079 140.66846 119.4786 140.99734 119.66162 C  141.32623 119.84464 141.85368 120.13333 142.18257 120.31088 C  142.51146 120.48843 143.03891 120.76878 143.3678 120.94131 C  143.69669 121.11385 144.22414 121.38657 144.55302 121.55444 C  144.88191 121.72232 145.40936 121.9877 145.73825 122.15132 C  146.06714 122.31494 146.5946 122.57404 146.9235 122.73375 C  147.25238 122.89346 147.77983 123.14644 148.10872 123.30247 C  148.4376 123.45851 148.96506 123.70581 149.29395 123.85841 C  149.62283 124.01102 150.15028 124.25304 150.47917 124.40244 C  150.80806 124.55183 151.33551 124.78882 151.6644 124.9352 C  151.99329 125.08157 152.52074 125.3139 152.84962 125.45743 C  153.17851 125.60095 153.70598 125.82887 154.03487 125.96971 C  154.36375 126.11055 154.8912 126.33426 155.2201 126.47256 C  155.54898 126.61087 156.07643 126.83063 156.40532 126.96652 C  156.7342 127.10242 157.26166 127.31847 157.59055 127.45207 C  157.91943 127.58568 158.44688 127.79811 158.77577 127.92955 C  159.10466 128.06099 159.63211 128.27005 159.961 128.39941 C  160.28989 128.52878 160.81734 128.73456 161.14622 128.86194 C  161.47511 128.98932 162.00258 129.19205 162.33147 129.31755 C  162.66035 129.44305 163.1878 129.64284 163.5167 129.76654 C  163.84558 129.89024 164.37303 130.08717 164.70192 130.20914 C  165.0308 130.3311 165.55826 130.52533 165.88715 130.64563 C  166.21603 130.76593 166.74348 130.95752 167.07237 131.07622 C  167.40126 131.19492 167.92871 131.38405 168.2576 131.50122 C  168.58649 131.6184 169.11394 131.80507 169.44283 131.92078 C  169.77171 132.03648 170.29918 132.2209 170.62807 132.33519 C  170.95695 132.44948 171.4844 132.6316 171.8133 132.7445 C  172.14218 132.8574 172.66963 133.03741 172.99852 133.149 C  173.32741 133.26059 173.85486 133.4385 174.18375 133.54883 C  174.51263 133.65915 175.04008 133.83504 175.36897 133.94412 C  175.69786 134.0532 176.22531 134.22716 176.5542 134.33505 C  176.88309 134.44295 177.41054 134.61502 177.73943 134.72176 C  178.06831 134.82849 178.59578 134.99876 178.92467 135.10439 C  179.25356 135.21 179.781 135.3785 180.1099 135.48303 C  180.43878 135.58757 180.96623 135.75436 181.29512 135.85785 C  181.62401 135.96133 182.15146 136.12643 182.48035 136.2289 C  182.80923 136.33136 183.33669 136.49492 183.66557 136.59639 C  183.99446 136.69786 184.52191 136.85979 184.8508 136.9603 C  185.17969 137.0608 185.70715 137.22127 186.03604 137.32085 C  186.36493 137.42043 186.89238 137.57936 187.22127 137.67802 C  187.55016 137.77669 188.0776 137.93419 188.4065 138.03197 C  188.73538 138.12975 189.26283 138.28587 189.59172 138.3828 C  189.92061 138.47972 190.44806 138.6345 190.77695 138.73059 C  191.10583 138.82668 191.63329 138.98006 191.96217 139.07532 C  192.29106 139.17058 192.81851 139.32272 193.1474 139.41719 C  193.47629 139.51166 194.00375 139.66255 194.33264 139.75624 C  194.66153 139.84993 195.18898 139.99956 195.51787 140.09248 C  195.84676 140.18541 196.3742 140.33382 196.7031 140.42601 C  197.03198 140.5182 197.55943 140.6655 197.88832 140.75696 C  198.21721 140.84842 198.74466 140.99454 199.07355 141.0853 C  199.40244 141.17606 199.92989 141.32106 200.25877 141.41113 C  200.58766 141.5012 201.11511 141.6451 201.444 141.73448 C  201.77289 141.82387 202.30035 141.96672 202.62924 142.05545 C  202.95813 142.14418 203.48558 142.28596 203.81447 142.37405 C  204.14336 142.46214 204.6708 142.6029 204.9997 142.69035 C  205.32858 142.7778 205.85603 142.91759 206.18492 143.00443 C  206.51381 143.09126 207.04126 143.23006 207.37015 143.31628 C  207.69904 143.40251 208.22649 143.54034 208.55537 143.62598 C  208.88426 143.71161 209.41171 143.84851 209.7406 143.93356 C  210.06949 144.01862 210.59695 144.15459 210.92584 144.23907 C  211.25473 144.32356 211.78218 144.45863 212.11107 144.54256 C  212.43996 144.62648 212.9674 144.76065 213.2963 144.84404 C  213.62518 144.92743 214.15263 145.06073 214.48152 145.14359 C  214.81041 145.22644 215.33786 145.3589 215.66675 145.44122 C  215.99564 145.52354 216.52309 145.65517 216.85197 145.73697 C  217.18086 145.81877 217.70833 145.94955 218.03722 146.03085 C  218.3661 146.11215 218.89355 146.24217 219.22244 146.32297 C  219.55133 146.40376 220.07878 146.53296 220.40767 146.61327 C  220.73656 146.69357 221.264 146.82202 221.5929 146.90186 C  221.92178 146.98169 222.44923 147.10936 222.77812 147.18872 C  223.10701 147.26808 223.63446 147.395 223.96335 147.4739 C  224.29224 147.55281 224.81969 147.679 225.14857 147.75745 C  225.47746 147.83589 226.00493 147.96132 226.33382 148.03932 C  226.6627 148.11732 227.19016 148.24208 227.51904 148.31964 C  227.84793 148.3972 228.37538 148.52124 228.70427 148.59837 C  229.03316 148.6755 229.56061 148.79887 229.8895 148.87558 C  230.21838 148.95229 230.74583 149.07495 231.07472 149.15123 C  231.40361 149.22751 231.93106 149.34953 232.25995 149.42542 C  232.58884 149.5013 233.11629 149.62267 233.44518 149.69814 C  233.77406 149.7736 234.30153 149.89432 234.63042 149.96938 C  234.9593 150.04443 235.48676 150.16452 235.81564 150.2392 C  236.14453 150.31387 236.67198 150.43336 237.00087 150.50766 C  237.32976 150.58195 237.85721 150.70082 238.1861 150.77473 C  238.51498 150.84865 239.37132 151.04039 239.37132 151.04039  " style="fill:none"/>
 </g>
 </g>
 </g>
 </g>
 <g>
 <g stroke-width="1.6pt">
 <g stroke="rgb(50.0%,0.0%,0.0%)">
 <g fill="rgb(50.0%,0.0%,0.0%)">
 <path d=" M  4.6936 151.04095 C  4.6936 151.04095 5.54994 150.84918 5.87883 150.77527 C  6.20772 150.70135 6.73517 150.5825 7.06406 150.50821 C  7.39294 150.43391 7.9204 150.31445 8.24928 150.23978 C  8.57817 150.1651 9.10562 150.04504 9.43451 149.96997 C  9.7634 149.8949 10.29085 149.77414 10.61974 149.69867 C  10.94862 149.6232 11.47607 149.50185 11.80496 149.42598 C  12.13385 149.35011 12.66132 149.22806 12.9902 149.15178 C  13.31909 149.0755 13.84654 148.95282 14.17543 148.87611 C  14.50432 148.79941 15.03177 148.67604 15.36066 148.59892 C  15.68954 148.5218 16.217 148.39777 16.54588 148.3202 C  16.87477 148.24265 17.40222 148.1179 17.73111 148.0399 C  18.06 147.9619 18.58745 147.83646 18.91634 147.75801 C  19.24522 147.67957 19.77267 147.55342 20.10156 147.47452 C  20.43045 147.39561 20.95792 147.26865 21.2868 147.18929 C  21.61569 147.10992 22.14314 146.9823 22.47203 146.90247 C  22.80092 146.82263 23.32837 146.69417 23.65726 146.61385 C  23.98615 146.53352 24.5136 146.40434 24.84248 146.32355 C  25.17137 146.24275 25.69882 146.11276 26.02771 146.03146 C  26.3566 145.95016 26.88405 145.81935 27.21294 145.73755 C  27.54182 145.65575 28.06927 145.52415 28.39816 145.44183 C  28.72705 145.35951 29.25452 145.22705 29.5834 145.1442 C  29.9123 145.06134 30.43974 144.92805 30.76863 144.84467 C  31.09752 144.76128 31.62497 144.62708 31.95386 144.54315 C  32.28275 144.45923 32.8102 144.3242 33.13908 144.23972 C  33.46797 144.15523 33.99542 144.01924 34.32431 143.93417 C  34.6532 143.8491 35.18065 143.71223 35.50954 143.6266 C  35.83842 143.54097 36.36589 143.40317 36.69478 143.31694 C  37.02367 143.23071 37.55112 143.09192 37.88 143.00508 C  38.2089 142.91824 38.73634 142.77847 39.06523 142.69102 C  39.39412 142.60358 39.92157 142.46281 40.25046 142.37473 C  40.57935 142.28664 41.1068 142.1448 41.43568 142.05608 C  41.76457 141.96735 42.29202 141.82452 42.62091 141.73514 C  42.9498 141.64575 43.47725 141.50182 43.80614 141.41176 C  44.13503 141.3217 44.66249 141.17674 44.99138 141.08598 C  45.32027 140.99522 45.84772 140.84908 46.1766 140.75761 C  46.5055 140.66615 47.03294 140.51892 47.36183 140.42674 C  47.69072 140.33456 48.21817 140.1861 48.54706 140.09317 C  48.87595 140.00024 49.4034 139.8506 49.73228 139.75691 C  50.06117 139.66322 50.58862 139.51236 50.91751 139.4179 C  51.2464 139.32343 51.77385 139.17131 52.10274 139.07605 C  52.43163 138.98079 52.95909 138.82738 53.28798 138.7313 C  53.61687 138.63521 54.14432 138.48044 54.4732 138.38351 C  54.8021 138.28659 55.32954 138.13051 55.65843 138.03273 C  55.98732 137.93495 56.51477 137.77742 56.84366 137.67876 C  57.17255 137.5801 57.7 137.42117 58.02888 137.3216 C  58.35777 137.22202 58.88522 137.06157 59.21411 136.96106 C  59.543 136.86055 60.07045 136.69861 60.39934 136.59714 C  60.72823 136.49567 61.25569 136.33212 61.58458 136.22966 C  61.91347 136.1272 62.44092 135.96208 62.7698 135.8586 C  63.0987 135.75511 63.62614 135.58833 63.95503 135.48381 C  64.28392 135.37929 64.81137 135.2108 65.14026 135.10518 C  65.46915 134.99956 65.9966 134.8293 66.32549 134.72256 C  66.65437 134.61583 67.18182 134.44374 67.51071 134.33586 C  67.8396 134.22798 68.36707 134.05402 68.69595 133.94495 C  69.02484 133.83588 69.55229 133.65997 69.88118 133.54965 C  70.21007 133.43933 70.73752 133.26141 71.0664 133.14983 C  71.3953 133.03824 71.92274 132.85825 72.25163 132.74533 C  72.58052 132.63242 73.10797 132.45027 73.43686 132.336 C  73.76575 132.22173 74.2932 132.03734 74.62209 131.92165 C  74.95097 131.80595 75.47842 131.61926 75.80731 131.50209 C  76.1362 131.38492 76.66367 131.19583 76.99255 131.07713 C  77.32144 130.95844 77.84889 130.76682 78.17778 130.64651 C  78.50667 130.52621 79.03412 130.332 79.363 130.21004 C  79.6919 130.08807 80.21935 129.89116 80.54823 129.76747 C  80.87712 129.64378 81.40457 129.44402 81.73346 129.31853 C  82.06235 129.19304 82.5898 128.99031 82.91869 128.86293 C  83.24757 128.73555 83.77502 128.52974 84.10391 128.40038 C  84.4328 128.27101 84.96027 128.06195 85.28915 127.93051 C  85.61804 127.79907 86.1455 127.58662 86.47438 127.45303 C  86.80327 127.31944 87.33072 127.10345 87.6596 126.96758 C  87.9885 126.8317 88.51595 126.61191 88.84483 126.4736 C  89.17372 126.3353 89.70117 126.11159 90.03006 125.97075 C  90.35895 125.82991 90.8864 125.60202 91.21529 125.4585 C  91.54417 125.31497 92.07162 125.08264 92.40051 124.93628 C  92.7294 124.78992 93.25687 124.55293 93.58575 124.40355 C  93.91464 124.25417 94.4421 124.01218 94.77098 123.85957 C  95.09987 123.70697 95.62732 123.45967 95.9562 123.30363 C  96.2851 123.1476 96.81255 122.89464 97.14143 122.73492 C  97.47032 122.57521 97.99777 122.3161 98.32666 122.1525 C  98.65555 121.98889 99.183 121.72356 99.51189 121.5557 C  99.84077 121.38783 100.36824 121.11513 100.69713 120.9426 C  101.02602 120.77007 101.55347 120.48973 101.88235 120.3122 C  102.21124 120.13466 102.7387 119.846 103.06758 119.66298 C  103.39647 119.47997 103.92392 119.18217 104.2528 118.99315 C  104.5817 118.80412 105.10915 118.49626 105.43803 118.30058 C  105.76692 118.1049 106.29437 117.78589 106.62326 117.58281 C  106.95215 117.37973 107.4796 117.04826 107.80849 116.83687 C  108.13737 116.62547 108.66484 116.27998 108.99373 116.05916 C  109.32262 115.83833 109.85007 115.47687 110.17896 115.24521 C  110.50784 115.01355 111.0353 114.63371 111.36418 114.38945 C  111.69307 114.14519 112.22052 113.74387 112.54941 113.48468 C  112.8783 113.2255 113.40575 112.79863 113.73463 112.5214 C  114.06352 112.24416 114.59097 111.7862 114.91986 111.48647 C  115.24875 111.18674 115.7762 110.68994 116.10509 110.3611 C  116.43398 110.03226 116.96144 109.48508 117.29033 109.11636 C  117.61922 108.74765 118.14667 108.13211 118.47556 107.70363 C  118.80444 107.27515 119.3319 106.56343 119.66078 106.02806 C  119.98967 105.49269 120.51712 104.84715 120.84601 103.84502 C  121.1749 102.84288 122.03123 98.80528 122.03123 98.80528  " style="fill:none"/>
 </g>
 </g>
 </g>
 </g>
 <g>
 <g stroke="rgb(0.0%,0.0%,50.0%)">
 <g fill="rgb(0.0%,0.0%,50.0%)">
 <g>
 <g stroke="rgb(0.0%,0.0%,50.0%)">
 <g fill="rgb(0.0%,0.0%,50.0%)">
 </g>
 </g>
 </g>
 <g>
 <g transform="matrix(1.0,0.0,0.0,1.0,162.21387,166.46973)">
 <g fill="rgb(0.0%,0.0%,50.0%)">
 <text style="stroke:none" transform="scale(1,-1) translate(30.22388,0)" text-anchor="middle"  font-size="10"> 
g(x) = |x + 1|</text> 
</g>
 </g>
 </g>
 </g>
 </g>
 </g>
 <g>
 <g stroke="rgb(50.0%,0.0%,0.0%)">
 <g fill="rgb(50.0%,0.0%,0.0%)">
 <g>
 <g stroke="rgb(50.0%,0.0%,0.0%)">
 <g fill="rgb(50.0%,0.0%,0.0%)">
 </g>
 </g>
 </g>
 <g>
 <g transform="matrix(1.0,0.0,0.0,1.0,146.32227,72.3463)">
 <g fill="rgb(50.0%,0.0%,0.0%)">
 <text style="stroke:none" transform="scale(1,-1) translate(32.03467,0)" text-anchor="middle"  font-size="10"> 
f(x) = <img 
src="Q1SP17REDUX1x.png" alt="√--
 x"  class="sqrt"  /> − 1</text> 
</g>
 </g>
 </g>
 </g>
 </g>
 </g>
 </g>
 </g>
 <g>
 <g>
 <g stroke-width="0.2pt">
 <g stroke="rgb(50.0%,50.0%,50.0%)">
 <g fill="rgb(50.0%,50.0%,50.0%)">
 <path d=" M  4.6936 119.8998 L  4.6936 124.16757 M  28.16162 119.8998 L  28.16162 124.16757 M  51.62964 119.8998 L  51.62964 124.16757 M  75.09766 119.8998 L  75.09766 124.16757 M  98.56567 119.8998 L  98.56567 124.16757 M  145.50171 119.8998 L  145.50171 124.16757 M  168.96973 119.8998 L  168.96973 124.16757 M  192.43774 119.8998 L  192.43774 124.16757 M  215.90576 119.8998 L  215.90576 124.16757 M  239.37378 119.8998 L  239.37378 124.16757  " style="fill:none"/>
 </g>
 </g>
 </g>
 </g>
 </g>
 <g>
 <g>
 <g stroke-width="0.2pt">
 <g stroke="rgb(50.0%,50.0%,50.0%)">
 <g fill="rgb(50.0%,50.0%,50.0%)">
 <path d=" M  119.8998 4.6936 L  124.16757 4.6936 M  119.8998 28.16162 L  124.16757 28.16162 M  119.8998 51.62964 L  124.16757 51.62964 M  119.8998 75.09766 L  124.16757 75.09766 M  119.8998 98.56567 L  124.16757 98.56567 M  119.8998 145.50171 L  124.16757 145.50171 M  119.8998 168.96973 L  124.16757 168.96973 M  119.8998 192.43774 L  124.16757 192.43774 M  119.8998 215.90576 L  124.16757 215.90576 M  119.8998 239.37378 L  124.16757 239.37378  " style="fill:none"/>
 </g>
 </g>
 </g>
 </g>
 </g>
 <path d=" M  0.0 122.03369 L  242.06741 122.03369  " style="fill:none"/>
 <g>
 <g transform="matrix(1.0,0.0,0.0,1.0,242.06741,122.03369)">
 <g>
 <path d=" M  1.99997 0.0 L  -1.19998 1.59998 L  0.0 0.0 L  -1.19998 -1.59998  " style="stroke:none"/>
 </g>
  </g>
 </g>
 <path d=" M  122.03369 0.0 L  122.03369 242.06741  " style="fill:none"/>
 <g>
 <g transform="matrix(0.0,1.0,-1.0,0.0,122.03369,242.06741)">
 <g>
 <path d=" M  1.99997 0.0 L  -1.19998 1.59998 L  0.0 0.0 L  -1.19998 -1.59998  " style="stroke:none"/>
 </g>
  </g>
 </g>
 <g>
 <g>
 <g transform="matrix(1.0,0.0,0.0,1.0,-3.91747,109.92238)">
 <g fill="rgb(0.0%,0.0%,0.0%)">
 <text style="stroke:none" transform="scale(1,-1) translate(8.61107,0)" text-anchor="middle"  font-size="10"> 
 − 5</text> 
</g>
 </g>
 </g>
 </g>
 <g>
 <g>
 <g transform="matrix(1.0,0.0,0.0,1.0,19.55055,109.92238)">
 <g fill="rgb(0.0%,0.0%,0.0%)">
 <text style="stroke:none" transform="scale(1,-1) translate(8.61107,0)" text-anchor="middle"  font-size="10"> 
 − 4</text> 
</g>
 </g>
 </g>
 </g>
 <g>
 <g>
 <g transform="matrix(1.0,0.0,0.0,1.0,43.01857,109.92238)">
 <g fill="rgb(0.0%,0.0%,0.0%)">
 <text style="stroke:none" transform="scale(1,-1) translate(8.61107,0)" text-anchor="middle"  font-size="10"> 
 − 3</text> 
</g>
 </g>
 </g>
 </g>
 <g>
 <g>
 <g transform="matrix(1.0,0.0,0.0,1.0,66.48659,109.92238)">
 <g fill="rgb(0.0%,0.0%,0.0%)">
 <text style="stroke:none" transform="scale(1,-1) translate(8.61107,0)" text-anchor="middle"  font-size="10"> 
 − 2</text> 
</g>
 </g>
 </g>
 </g>
 <g>
 <g>
 <g transform="matrix(1.0,0.0,0.0,1.0,89.9546,109.92238)">
 <g fill="rgb(0.0%,0.0%,0.0%)">
 <text style="stroke:none" transform="scale(1,-1) translate(8.61107,0)" text-anchor="middle"  font-size="10"> 
 − 1</text> 
</g>
 </g>
 </g>
 </g>
 <g>
 <g>
 <g transform="matrix(1.0,0.0,0.0,1.0,143.00171,109.9224)">
 <g fill="rgb(0.0%,0.0%,0.0%)">
 <text style="stroke:none" transform="scale(1,-1) translate(2.5,0)" text-anchor="middle"  font-size="10"> 
1</text> 
</g>
 </g>
 </g>
 </g>
 <g>
 <g>
 <g transform="matrix(1.0,0.0,0.0,1.0,166.46973,109.9224)">
 <g fill="rgb(0.0%,0.0%,0.0%)">
 <text style="stroke:none" transform="scale(1,-1) translate(2.5,0)" text-anchor="middle"  font-size="10"> 
2</text> 
</g>
 </g>
 </g>
 </g>
 <g>
 <g>
 <g transform="matrix(1.0,0.0,0.0,1.0,189.93774,109.9224)">
 <g fill="rgb(0.0%,0.0%,0.0%)">
 <text style="stroke:none" transform="scale(1,-1) translate(2.5,0)" text-anchor="middle"  font-size="10"> 
3</text> 
</g>
 </g>
 </g>
 </g>
 <g>
 <g>
 <g transform="matrix(1.0,0.0,0.0,1.0,213.40576,109.9224)">
 <g fill="rgb(0.0%,0.0%,0.0%)">
 <text style="stroke:none" transform="scale(1,-1) translate(2.5,0)" text-anchor="middle"  font-size="10"> 
4</text> 
</g>
 </g>
 </g>
 </g>
 <g>
 <g>
 <g transform="matrix(1.0,0.0,0.0,1.0,236.87378,109.9224)">
 <g fill="rgb(0.0%,0.0%,0.0%)">
 <text style="stroke:none" transform="scale(1,-1) translate(2.5,0)" text-anchor="middle"  font-size="10"> 
5</text> 
</g>
 </g>
 </g>
 </g>
 <g>
 <g>
 <g transform="matrix(1.0,0.0,0.0,1.0,99.14468,1.88805)">
 <g fill="rgb(0.0%,0.0%,0.0%)">
 <text style="stroke:none" transform="scale(1,-1) translate(8.61107,0)" text-anchor="middle"  font-size="10"> 
 − 5</text> 
</g>
 </g>
 </g>
 </g>
 <g>
 <g>
 <g transform="matrix(1.0,0.0,0.0,1.0,99.14468,25.35606)">
 <g fill="rgb(0.0%,0.0%,0.0%)">
 <text style="stroke:none" transform="scale(1,-1) translate(8.61107,0)" text-anchor="middle"  font-size="10"> 
 − 4</text> 
</g>
 </g>
 </g>
 </g>
 <g>
 <g>
 <g transform="matrix(1.0,0.0,0.0,1.0,99.14468,48.82408)">
 <g fill="rgb(0.0%,0.0%,0.0%)">
 <text style="stroke:none" transform="scale(1,-1) translate(8.61107,0)" text-anchor="middle"  font-size="10"> 
 − 3</text> 
</g>
 </g>
 </g>
 </g>
 <g>
 <g>
 <g transform="matrix(1.0,0.0,0.0,1.0,99.14468,72.2921)">
 <g fill="rgb(0.0%,0.0%,0.0%)">
 <text style="stroke:none" transform="scale(1,-1) translate(8.61107,0)" text-anchor="middle"  font-size="10"> 
 − 2</text> 
</g>
 </g>
 </g>
 </g>
 <g>
 <g>
 <g transform="matrix(1.0,0.0,0.0,1.0,99.14468,95.76012)">
 <g fill="rgb(0.0%,0.0%,0.0%)">
 <text style="stroke:none" transform="scale(1,-1) translate(8.61107,0)" text-anchor="middle"  font-size="10"> 
 − 1</text> 
</g>
 </g>
 </g>
 </g>
 <g>
 <g>
 <g transform="matrix(1.0,0.0,0.0,1.0,111.36682,142.2795)">
 <g fill="rgb(0.0%,0.0%,0.0%)">
 <text style="stroke:none" transform="scale(1,-1) translate(2.5,0)" text-anchor="middle"  font-size="10"> 
1</text> 
</g>
 </g>
 </g>
 </g>
 <g>
 <g>
 <g transform="matrix(1.0,0.0,0.0,1.0,111.36682,165.74751)">
 <g fill="rgb(0.0%,0.0%,0.0%)">
 <text style="stroke:none" transform="scale(1,-1) translate(2.5,0)" text-anchor="middle"  font-size="10"> 
2</text> 
</g>
 </g>
 </g>
 </g>
 <g>
 <g>
 <g transform="matrix(1.0,0.0,0.0,1.0,111.36682,189.21553)">
 <g fill="rgb(0.0%,0.0%,0.0%)">
 <text style="stroke:none" transform="scale(1,-1) translate(2.5,0)" text-anchor="middle"  font-size="10"> 
3</text> 
</g>
 </g>
 </g>
 </g>
 <g>
 <g>
 <g transform="matrix(1.0,0.0,0.0,1.0,111.36682,212.68355)">
 <g fill="rgb(0.0%,0.0%,0.0%)">
 <text style="stroke:none" transform="scale(1,-1) translate(2.5,0)" text-anchor="middle"  font-size="10"> 
4</text> 
</g>
 </g>
 </g>
 </g>
 <g>
 <g>
 <g transform="matrix(1.0,0.0,0.0,1.0,111.36682,236.15157)">
 <g fill="rgb(0.0%,0.0%,0.0%)">
 <text style="stroke:none" transform="scale(1,-1) translate(2.5,0)" text-anchor="middle"  font-size="10"> 
5</text> 
</g>
 </g>
 </g>
 </g>
 <g>
 <g>
 <g transform="matrix(1.0,0.0,0.0,1.0,247.60036,119.88092)">
 <g fill="rgb(0.0%,0.0%,0.0%)">
 <text style="stroke:none" transform="scale(1,-1) translate(2.85764,0)" text-anchor="middle"  font-size="10"> 
x</text> 
</g>
 </g>
 </g>
 </g>
 <g>
 <g>
 <g transform="matrix(1.0,0.0,0.0,1.0,119.4029,249.54478)">
 <g fill="rgb(0.0%,0.0%,0.0%)">
 <text style="stroke:none" transform="scale(1,-1) translate(2.6308,0)" text-anchor="middle"  font-size="10"> 
y</text> 
</g>
 </g>
 </g>
 </g>
 </g>
 </g>
 </g>
 </g>
 </g>
 
                                                                   </g> 
</svg> 
