<?xml version="1.0" encoding="iso-8859-1" standalone="no"?> 
<?xml-stylesheet href="Q1SP17REDUX.css" type="text/css"?> 
<svg xmlns="http://www.w3.org/2000/svg" xmlns:xlink="http://www.w3.org/1999/xlink" width="263.89905pt" height="259.46156pt" viewBox="-7.25044 -2.27826 263.89905 259.46156 "> 
<g transform="translate(0, 257.1833 ) scale(1,-1) translate(0,2.27826 )"> 
  <g>
 <g stroke="rgb(0.0%,0.0%,0.0%)">
 <g fill="rgb(0.0%,0.0%,0.0%)">
 <g stroke-width="0.4pt">
 <g>
 </g>
 <g>
 <g>
 <clipPath id="pgfcp3"> <path d=" M  0.0 0.0 L  244.06738 0.0 L  244.06738 244.06738 L  0.0 244.06738 Z  "/>
</clipPath>
 <g clip-path="url(#pgfcp3)">
 <g>
 <g stroke-width="1.6pt">
 <g stroke="rgb(0.0%,0.0%,50.0%)">
 <g fill="rgb(0.0%,0.0%,50.0%)">
 <path d=" M  4.6936 262.8418 C  4.6936 262.8418 8.93254 258.60286 10.56061 256.9748 C  12.18867 255.34673 14.79955 252.73586 16.42761 251.10779 C  18.05568 249.47972 20.66655 246.86885 22.29462 245.24078 C  23.92268 243.61272 26.53355 241.00185 28.16162 239.37378 C  29.78969 237.74571 32.40056 235.13484 34.02863 233.50677 C  35.6567 231.87871 38.26756 229.26784 39.89563 227.63977 C  41.5237 226.0117 44.13457 223.40083 45.76263 221.77277 C  47.3907 220.1447 50.00157 217.53383 51.62964 215.90576 C  53.2577 214.2777 55.86858 211.66682 57.49664 210.03876 C  59.12471 208.41069 61.73558 205.79982 63.36365 204.17175 C  64.99171 202.54369 67.60258 199.93282 69.23065 198.30475 C  70.85872 196.67668 73.46959 194.06581 75.09766 192.43774 C  76.72572 190.80968 79.3366 188.1988 80.96466 186.57074 C  82.59273 184.94267 85.2036 182.3318 86.83167 180.70374 C  88.45973 179.07567 91.0706 176.4648 92.69867 174.83673 C  94.32674 173.20866 96.9376 170.5978 98.56567 168.96973 C  100.19374 167.34166 102.80461 164.73079 104.43268 163.10272 C  106.06075 161.47466 108.67162 158.86378 110.29968 157.23572 C  111.92775 155.60765 114.53862 152.99678 116.16669 151.36871 C  117.79475 149.74065 120.40562 147.12978 122.03369 145.50171 C  123.66176 143.87364 126.27263 141.26277 127.9007 139.6347 C  129.52876 138.00664 132.13963 135.39577 133.7677 133.7677 C  135.39577 132.13963 138.00664 129.52876 139.6347 127.9007 C  141.26277 126.27263 145.50171 122.03369 145.50171 122.03369  " style="fill:none"/>
 </g>
 </g>
 </g>
 </g>
 <g>
 <g stroke-width="1.6pt">
 <g stroke="rgb(0.0%,0.0%,50.0%)">
 <g fill="rgb(0.0%,0.0%,50.0%)">
 <path d=" M  145.50171 122.03369 C  145.50171 122.03369 148.32765 124.85963 149.41302 125.945 C  150.4984 127.03038 152.23897 128.77095 153.32434 129.85632 C  154.40971 130.9417 156.15028 132.68227 157.23566 133.76764 C  158.32103 134.85301 160.0616 136.59358 161.14697 137.67896 C  162.23235 138.76433 163.97293 140.50491 165.0583 141.59029 C  166.14368 142.67566 167.88425 144.41623 168.96962 145.5016 C  170.055 146.58698 171.79556 148.32755 172.88094 149.41292 C  173.96631 150.49829 175.70688 152.23886 176.79225 153.32423 C  177.87762 154.4096 179.61821 156.15019 180.70358 157.23557 C  181.78896 158.32094 183.52953 160.06151 184.6149 161.14688 C  185.70027 162.23225 187.44084 163.97282 188.52621 165.0582 C  189.61159 166.14357 191.35216 167.88414 192.43753 168.96951 C  193.5229 170.05489 195.26349 171.79547 196.34886 172.88084 C  197.43423 173.96622 199.1748 175.70679 200.26018 176.79216 C  201.34555 177.87753 203.08612 179.6181 204.1715 180.70348 C  205.25687 181.78885 206.99744 183.52942 208.08281 184.61479 C  209.16818 185.70016 210.90877 187.44075 211.99414 188.52612 C  213.07951 189.6115 214.82008 191.35207 215.90546 192.43744 C  216.99083 193.52281 218.7314 195.26338 219.81677 196.34875 C  220.90215 197.43413 222.64272 199.1747 223.72809 200.26007 C  224.81346 201.34544 226.55405 203.08603 227.63942 204.1714 C  228.7248 205.25677 230.46536 206.99734 231.55074 208.08272 C  232.63611 209.16809 234.37668 210.90866 235.46205 211.99403 C  236.54742 213.0794 239.37337 215.90535 239.37337 215.90535  " style="fill:none"/>
 </g>
 </g>
 </g>
 </g>
 <g>
 <g stroke-width="1.6pt">
 <g stroke="rgb(50.0%,0.0%,0.0%)">
 <g fill="rgb(50.0%,0.0%,0.0%)">
 <path d=" M  122.03369 98.56567 C  122.03369 98.56567 122.89003 102.80472 123.21892 103.83957 C  123.5478 104.87442 124.07526 105.48853 124.40414 106.02422 C  124.73303 106.5599 125.26048 107.27184 125.58937 107.70049 C  125.91826 108.12914 126.44571 108.74484 126.7746 109.11365 C  127.10349 109.48245 127.63094 110.02975 127.95982 110.35866 C  128.28871 110.68756 128.81616 111.18446 129.14505 111.48425 C  129.47394 111.78404 130.0014 112.24205 130.33029 112.51933 C  130.65918 112.79662 131.18663 113.22354 131.51552 113.48276 C  131.8444 113.74197 132.37186 114.14334 132.70074 114.38763 C  133.02963 114.63193 133.55708 115.0118 133.88597 115.24348 C  134.21486 115.47517 134.74231 115.83665 135.0712 116.05751 C  135.40009 116.27837 135.92754 116.62389 136.25642 116.8353 C  136.58531 117.0467 137.11276 117.3782 137.44165 117.5813 C  137.77054 117.7844 138.298 118.10344 138.62689 118.29913 C  138.95578 118.49483 139.48323 118.8027 139.81212 118.99174 C  140.141 119.18079 140.66846 119.4786 140.99734 119.66162 C  141.32623 119.84464 141.85368 120.13333 142.18257 120.31088 C  142.51146 120.48843 143.03891 120.76878 143.3678 120.94131 C  143.69669 121.11385 144.22414 121.38657 144.55302 121.55444 C  144.88191 121.72232 145.40936 121.9877 145.73825 122.15132 C  146.06714 122.31494 146.5946 122.57404 146.9235 122.73375 C  147.25238 122.89346 147.77983 123.14644 148.10872 123.30247 C  148.4376 123.45851 148.96506 123.70581 149.29395 123.85841 C  149.62283 124.01102 150.15028 124.25304 150.47917 124.40244 C  150.80806 124.55183 151.33551 124.78882 151.6644 124.9352 C  151.99329 125.08157 152.52074 125.3139 152.84962 125.45743 C  153.17851 125.60095 153.70598 125.82887 154.03487 125.96971 C  154.36375 126.11055 154.8912 126.33426 155.2201 126.47256 C  155.54898 126.61087 156.07643 126.83063 156.40532 126.96652 C  156.7342 127.10242 157.26166 127.31847 157.59055 127.45207 C  157.91943 127.58568 158.44688 127.79811 158.77577 127.92955 C  159.10466 128.06099 159.63211 128.27005 159.961 128.39941 C  160.28989 128.52878 160.81734 128.73456 161.14622 128.86194 C  161.47511 128.98932 162.00258 129.19205 162.33147 129.31755 C  162.66035 129.44305 163.1878 129.64284 163.5167 129.76654 C  163.84558 129.89024 164.37303 130.08717 164.70192 130.20914 C  165.0308 130.3311 165.55826 130.52533 165.88715 130.64563 C  166.21603 130.76593 166.74348 130.95752 167.07237 131.07622 C  167.40126 131.19492 167.92871 131.38405 168.2576 131.50122 C  168.58649 131.6184 169.11394 131.80507 169.44283 131.92078 C  169.77171 132.03648 170.29918 132.2209 170.62807 132.33519 C  170.95695 132.44948 171.4844 132.6316 171.8133 132.7445 C  172.14218 132.8574 172.66963 133.03741 172.99852 133.149 C  173.32741 133.26059 173.85486 133.4385 174.18375 133.54883 C  174.51263 133.65915 175.04008 133.83504 175.36897 133.94412 C  175.69786 134.0532 176.22531 134.22716 176.5542 134.33505 C  176.88309 134.44295 177.41054 134.61502 177.73943 134.72176 C  178.06831 134.82849 178.59578 134.99876 178.92467 135.10439 C  179.25356 135.21 179.781 135.3785 180.1099 135.48303 C  180.43878 135.58757 180.96623 135.75436 181.29512 135.85785 C  181.62401 135.96133 182.15146 136.12643 182.48035 136.2289 C  182.80923 136.33136 183.33669 136.49492 183.66557 136.59639 C  183.99446 136.69786 184.52191 136.85979 184.8508 136.9603 C  185.17969 137.0608 185.70715 137.22127 186.03604 137.32085 C  186.36493 137.42043 186.89238 137.57936 187.22127 137.67802 C  187.55016 137.77669 188.0776 137.93419 188.4065 138.03197 C  188.73538 138.12975 189.26283 138.28587 189.59172 138.3828 C  189.92061 138.47972 190.44806 138.6345 190.77695 138.73059 C  191.10583 138.82668 191.63329 138.98006 191.96217 139.07532 C  192.29106 139.17058 192.81851 139.32272 193.1474 139.41719 C  193.47629 139.51166 194.00375 139.66255 194.33264 139.75624 C  194.66153 139.84993 195.18898 139.99956 195.51787 140.09248 C  195.84676 140.18541 196.3742 140.33382 196.7031 140.42601 C  197.03198 140.5182 197.55943 140.6655 197.88832 140.75696 C  198.21721 140.84842 198.74466 140.99454 199.07355 141.0853 C  199.40244 141.17606 199.92989 141.32106 200.25877 141.41113 C  200.58766 141.5012 201.11511 141.6451 201.444 141.73448 C  201.77289 141.82387 202.30035 141.96672 202.62924 142.05545 C  202.95813 142.14418 203.48558 142.28596 203.81447 142.37405 C  204.14336 142.46214 204.6708 142.6029 204.9997 142.69035 C  205.32858 142.7778 205.85603 142.91759 206.18492 143.00443 C  206.51381 143.09126 207.04126 143.23006 207.37015 143.31628 C  207.69904 143.40251 208.22649 143.54034 208.55537 143.62598 C  208.88426 143.71161 209.41171 143.84851 209.7406 143.93356 C  210.06949 144.01862 210.59695 144.15459 210.92584 144.23907 C  211.25473 144.32356 211.78218 144.45863 212.11107 144.54256 C  212.43996 144.62648 212.9674 144.76065 213.2963 144.84404 C  213.62518 144.92743 214.15263 145.06073 214.48152 145.14359 C  214.81041 145.22644 215.33786 145.3589 215.66675 145.44122 C  215.99564 145.52354 216.52309 145.65517 216.85197 145.73697 C  217.18086 145.81877 217.70833 145.94955 218.03722 146.03085 C  218.3661 146.11215 218.89355 146.24217 219.22244 146.32297 C  219.55133 146.40376 220.07878 146.53296 220.40767 146.61327 C  220.73656 146.69357 221.264 146.82202 221.5929 146.90186 C  221.92178 146.98169 222.44923 147.10936 222.77812 147.18872 C  223.10701 147.26808 223.63446 147.395 223.96335 147.4739 C  224.29224 147.55281 224.81969 147.679 225.14857 147.75745 C  225.47746 147.83589 226.00493 147.96132 226.33382 148.03932 C  226.6627 148.11732 227.19016 148.24208 227.51904 148.31964 C  227.84793 148.3972 228.37538 148.52124 228.70427 148.59837 C  229.03316 148.6755 229.56061 148.79887 229.8895 148.87558 C  230.21838 148.95229 230.74583 149.07495 231.07472 149.15123 C  231.40361 149.22751 231.93106 149.34953 232.25995 149.42542 C  232.58884 149.5013 233.11629 149.62267 233.44518 149.69814 C  233.77406 149.7736 234.30153 149.89432 234.63042 149.96938 C  234.9593 150.04443 235.48676 150.16452 235.81564 150.2392 C  236.14453 150.31387 236.67198 150.43336 237.00087 150.50766 C  237.32976 150.58195 237.85721 150.70082 238.1861 150.77473 C  238.51498 150.84865 239.37132 151.04039 239.37132 151.04039  " style="fill:none"/>
 </g>
 </g>
 </g>
 </g>
 <g>
 <g stroke-width="1.6pt">
 <g stroke="rgb(50.0%,0.0%,0.0%)">
 <g fill="rgb(50.0%,0.0%,0.0%)">
 <path d=" M  4.6936 46.09038 C  4.6936 46.09038 5.54994 46.28215 5.87883 46.35606 C  6.20772 46.42998 6.73517 46.54883 7.06406 46.62312 C  7.39294 46.69742 7.9204 46.81688 8.24928 46.89156 C  8.57817 46.96623 9.10562 47.08629 9.43451 47.16136 C  9.7634 47.23643 10.29085 47.3572 10.61974 47.43266 C  10.94862 47.50813 11.47607 47.62949 11.80496 47.70535 C  12.13385 47.78122 12.66132 47.90327 12.9902 47.97955 C  13.31909 48.05583 13.84654 48.17851 14.17543 48.25522 C  14.50432 48.33192 15.03177 48.45529 15.36066 48.53241 C  15.68954 48.60953 16.217 48.73357 16.54588 48.81113 C  16.87477 48.88869 17.40222 49.01343 17.73111 49.09143 C  18.06 49.16943 18.58745 49.29488 18.91634 49.37332 C  19.24522 49.45177 19.77267 49.57791 20.10156 49.65681 C  20.43045 49.73572 20.95792 49.86269 21.2868 49.94205 C  21.61569 50.02141 22.14314 50.14903 22.47203 50.22887 C  22.80092 50.3087 23.32837 50.43716 23.65726 50.51749 C  23.98615 50.59781 24.5136 50.72699 24.84248 50.80779 C  25.17137 50.88858 25.69882 51.01857 26.02771 51.09987 C  26.3566 51.18117 26.88405 51.31198 27.21294 51.39378 C  27.54182 51.47559 28.06927 51.60718 28.39816 51.6895 C  28.72705 51.77182 29.25452 51.90428 29.5834 51.98714 C  29.9123 52.06999 30.43974 52.20328 30.76863 52.28667 C  31.09752 52.37006 31.62497 52.50426 31.95386 52.58818 C  32.28275 52.6721 32.8102 52.80713 33.13908 52.89162 C  33.46797 52.9761 33.99542 53.11209 34.32431 53.19716 C  34.6532 53.28223 35.18065 53.4191 35.50954 53.50473 C  35.83842 53.59036 36.36589 53.72816 36.69478 53.81439 C  37.02367 53.90062 37.55112 54.03941 37.88 54.12625 C  38.2089 54.21309 38.73634 54.35286 39.06523 54.4403 C  39.39412 54.52776 39.92157 54.66852 40.25046 54.7566 C  40.57935 54.8447 41.1068 54.98653 41.43568 55.07526 C  41.76457 55.16399 42.29202 55.30681 42.62091 55.3962 C  42.9498 55.48558 43.47725 55.62952 43.80614 55.71957 C  44.13503 55.80963 44.66249 55.95459 44.99138 56.04535 C  45.32027 56.13611 45.84772 56.28226 46.1766 56.37372 C  46.5055 56.46518 47.03294 56.61241 47.36183 56.70459 C  47.69072 56.79677 48.21817 56.94524 48.54706 57.03816 C  48.87595 57.13109 49.4034 57.28073 49.73228 57.37442 C  50.06117 57.46811 50.58862 57.61897 50.91751 57.71344 C  51.2464 57.8079 51.77385 57.96002 52.10274 58.05528 C  52.43163 58.15054 52.95909 58.30396 53.28798 58.40004 C  53.61687 58.49612 54.14432 58.6509 54.4732 58.74782 C  54.8021 58.84474 55.32954 59.00082 55.65843 59.0986 C  55.98732 59.19638 56.51477 59.35391 56.84366 59.45258 C  57.17255 59.55124 57.7 59.71016 58.02888 59.80974 C  58.35777 59.90932 58.88522 60.06976 59.21411 60.17027 C  59.543 60.27078 60.07045 60.43272 60.39934 60.5342 C  60.72823 60.63567 61.25569 60.79921 61.58458 60.90167 C  61.91347 61.00414 62.44092 61.16925 62.7698 61.27274 C  63.0987 61.37622 63.62614 61.543 63.95503 61.64752 C  64.28392 61.75204 64.81137 61.92053 65.14026 62.02615 C  65.46915 62.13177 65.9966 62.30203 66.32549 62.40877 C  66.65437 62.5155 67.18182 62.68759 67.51071 62.79547 C  67.8396 62.90335 68.36707 63.07732 68.69595 63.18639 C  69.02484 63.29546 69.55229 63.47136 69.88118 63.58168 C  70.21007 63.692 70.73752 63.86992 71.0664 63.9815 C  71.3953 64.0931 71.92274 64.27309 72.25163 64.386 C  72.58052 64.49892 73.10797 64.68106 73.43686 64.79533 C  73.76575 64.9096 74.2932 65.094 74.62209 65.20969 C  74.95097 65.32538 75.47842 65.51207 75.80731 65.62924 C  76.1362 65.74641 76.66367 65.9355 76.99255 66.0542 C  77.32144 66.1729 77.84889 66.36452 78.17778 66.48482 C  78.50667 66.60512 79.03412 66.79933 79.363 66.9213 C  79.6919 67.04326 80.21935 67.24017 80.54823 67.36386 C  80.87712 67.48755 81.40457 67.68732 81.73346 67.8128 C  82.06235 67.9383 82.5898 68.14102 82.91869 68.2684 C  83.24757 68.39578 83.77502 68.6016 84.10391 68.73096 C  84.4328 68.86032 84.96027 69.06938 85.28915 69.20082 C  85.61804 69.33226 86.1455 69.54471 86.47438 69.6783 C  86.80327 69.81189 87.33072 70.02788 87.6596 70.16376 C  87.9885 70.29964 88.51595 70.51942 88.84483 70.65773 C  89.17372 70.79604 89.70117 71.01974 90.03006 71.16058 C  90.35895 71.30142 90.8864 71.52931 91.21529 71.67284 C  91.54417 71.81636 92.07162 72.04869 92.40051 72.19505 C  92.7294 72.34142 93.25687 72.5784 93.58575 72.72778 C  93.91464 72.87717 94.4421 73.11916 94.77098 73.27176 C  95.09987 73.42436 95.62732 73.67166 95.9562 73.8277 C  96.2851 73.98373 96.81255 74.2367 97.14143 74.39641 C  97.47032 74.55612 97.99777 74.81523 98.32666 74.97884 C  98.65555 75.14244 99.183 75.40778 99.51189 75.57564 C  99.84077 75.7435 100.36824 76.0162 100.69713 76.18874 C  101.02602 76.36127 101.55347 76.6416 101.88235 76.81914 C  102.21124 76.99667 102.7387 77.28534 103.06758 77.46835 C  103.39647 77.65137 103.92392 77.94916 104.2528 78.13818 C  104.5817 78.32721 105.10915 78.63507 105.43803 78.83075 C  105.76692 79.02643 106.29437 79.34544 106.62326 79.54852 C  106.95215 79.7516 107.4796 80.08307 107.80849 80.29446 C  108.13737 80.50586 108.66484 80.85135 108.99373 81.07217 C  109.32262 81.293 109.85007 81.65446 110.17896 81.88612 C  110.50784 82.11778 111.0353 82.49762 111.36418 82.74188 C  111.69307 82.98615 112.22052 83.38747 112.54941 83.64665 C  112.8783 83.90584 113.40575 84.3327 113.73463 84.60994 C  114.06352 84.88718 114.59097 85.34514 114.91986 85.64487 C  115.24875 85.9446 115.7762 86.44139 116.10509 86.77023 C  116.43398 87.09908 116.96144 87.64626 117.29033 88.01497 C  117.61922 88.38368 118.14667 88.99922 118.47556 89.4277 C  118.80444 89.85619 119.3319 90.5679 119.66078 91.10327 C  119.98967 91.63864 120.51712 92.28418 120.84601 93.28632 C  121.1749 94.28845 122.03123 98.32605 122.03123 98.32605  " style="fill:none"/>
 </g>
 </g>
 </g>
 </g>
 <g>
 <g stroke="rgb(0.0%,0.0%,50.0%)">
 <g fill="rgb(0.0%,0.0%,50.0%)">
 <g>
 <g stroke="rgb(0.0%,0.0%,50.0%)">
 <g fill="rgb(0.0%,0.0%,50.0%)">
 </g>
 </g>
 </g>
 <g>
 <g transform="matrix(1.0,0.0,0.0,1.0,148.13306,213.40576)">
 <g fill="rgb(0.0%,0.0%,50.0%)">
 <text style="stroke:none" transform="scale(1,-1) translate(30.22388,0)" text-anchor="middle"  font-size="10"> 
g(x) = |x − 1|</text> 
</g>
 </g>
 </g>
 </g>
 </g>
 </g>
 <g>
 <g stroke="rgb(50.0%,0.0%,0.0%)">
 <g fill="rgb(50.0%,0.0%,0.0%)">
 <g>
 <g stroke="rgb(50.0%,0.0%,0.0%)">
 <g fill="rgb(50.0%,0.0%,0.0%)">
 </g>
 </g>
 </g>
 <g>
 <g transform="matrix(1.0,0.0,0.0,1.0,146.32227,72.3463)">
 <g fill="rgb(50.0%,0.0%,0.0%)">
 <text style="stroke:none" transform="scale(1,-1) translate(32.03467,0)" text-anchor="middle"  font-size="10"> 
f(x) = <img 
src="Q1SP17REDUX2x.png" alt="√--
 x"  class="sqrt"  /> − 1</text> 
</g>
 </g>
 </g>
 </g>
 </g>
 </g>
 </g>
 </g>
 <g>
 <g>
 <g stroke-width="0.2pt">
 <g stroke="rgb(50.0%,50.0%,50.0%)">
 <g fill="rgb(50.0%,50.0%,50.0%)">
 <path d=" M  4.6936 119.8998 L  4.6936 124.16757 M  28.16162 119.8998 L  28.16162 124.16757 M  51.62964 119.8998 L  51.62964 124.16757 M  75.09766 119.8998 L  75.09766 124.16757 M  98.56567 119.8998 L  98.56567 124.16757 M  145.50171 119.8998 L  145.50171 124.16757 M  168.96973 119.8998 L  168.96973 124.16757 M  192.43774 119.8998 L  192.43774 124.16757 M  215.90576 119.8998 L  215.90576 124.16757 M  239.37378 119.8998 L  239.37378 124.16757  " style="fill:none"/>
 </g>
 </g>
 </g>
 </g>
 </g>
 <g>
 <g>
 <g stroke-width="0.2pt">
 <g stroke="rgb(50.0%,50.0%,50.0%)">
 <g fill="rgb(50.0%,50.0%,50.0%)">
 <path d=" M  119.8998 4.6936 L  124.16757 4.6936 M  119.8998 28.16162 L  124.16757 28.16162 M  119.8998 51.62964 L  124.16757 51.62964 M  119.8998 75.09766 L  124.16757 75.09766 M  119.8998 98.56567 L  124.16757 98.56567 M  119.8998 145.50171 L  124.16757 145.50171 M  119.8998 168.96973 L  124.16757 168.96973 M  119.8998 192.43774 L  124.16757 192.43774 M  119.8998 215.90576 L  124.16757 215.90576 M  119.8998 239.37378 L  124.16757 239.37378  " style="fill:none"/>
 </g>
 </g>
 </g>
 </g>
 </g>
 <path d=" M  0.0 122.03369 L  242.06741 122.03369  " style="fill:none"/>
 <g>
 <g transform="matrix(1.0,0.0,0.0,1.0,242.06741,122.03369)">
 <g>
 <path d=" M  1.99997 0.0 L  -1.19998 1.59998 L  0.0 0.0 L  -1.19998 -1.59998  " style="stroke:none"/>
 </g>
  </g>
 </g>
 <path d=" M  122.03369 0.0 L  122.03369 242.06741  " style="fill:none"/>
 <g>
 <g transform="matrix(0.0,1.0,-1.0,0.0,122.03369,242.06741)">
 <g>
 <path d=" M  1.99997 0.0 L  -1.19998 1.59998 L  0.0 0.0 L  -1.19998 -1.59998  " style="stroke:none"/>
 </g>
  </g>
 </g>
 <g>
 <g>
 <g transform="matrix(1.0,0.0,0.0,1.0,-3.91747,109.92238)">
 <g fill="rgb(0.0%,0.0%,0.0%)">
 <text style="stroke:none" transform="scale(1,-1) translate(8.61107,0)" text-anchor="middle"  font-size="10"> 
 − 5</text> 
</g>
 </g>
 </g>
 </g>
 <g>
 <g>
 <g transform="matrix(1.0,0.0,0.0,1.0,19.55055,109.92238)">
 <g fill="rgb(0.0%,0.0%,0.0%)">
 <text style="stroke:none" transform="scale(1,-1) translate(8.61107,0)" text-anchor="middle"  font-size="10"> 
 − 4</text> 
</g>
 </g>
 </g>
 </g>
 <g>
 <g>
 <g transform="matrix(1.0,0.0,0.0,1.0,43.01857,109.92238)">
 <g fill="rgb(0.0%,0.0%,0.0%)">
 <text style="stroke:none" transform="scale(1,-1) translate(8.61107,0)" text-anchor="middle"  font-size="10"> 
 − 3</text> 
</g>
 </g>
 </g>
 </g>
 <g>
 <g>
 <g transform="matrix(1.0,0.0,0.0,1.0,66.48659,109.92238)">
 <g fill="rgb(0.0%,0.0%,0.0%)">
 <text style="stroke:none" transform="scale(1,-1) translate(8.61107,0)" text-anchor="middle"  font-size="10"> 
 − 2</text> 
</g>
 </g>
 </g>
 </g>
 <g>
 <g>
 <g transform="matrix(1.0,0.0,0.0,1.0,89.9546,109.92238)">
 <g fill="rgb(0.0%,0.0%,0.0%)">
 <text style="stroke:none" transform="scale(1,-1) translate(8.61107,0)" text-anchor="middle"  font-size="10"> 
 − 1</text> 
</g>
 </g>
 </g>
 </g>
 <g>
 <g>
 <g transform="matrix(1.0,0.0,0.0,1.0,143.00171,109.9224)">
 <g fill="rgb(0.0%,0.0%,0.0%)">
 <text style="stroke:none" transform="scale(1,-1) translate(2.5,0)" text-anchor="middle"  font-size="10"> 
1</text> 
</g>
 </g>
 </g>
 </g>
 <g>
 <g>
 <g transform="matrix(1.0,0.0,0.0,1.0,166.46973,109.9224)">
 <g fill="rgb(0.0%,0.0%,0.0%)">
 <text style="stroke:none" transform="scale(1,-1) translate(2.5,0)" text-anchor="middle"  font-size="10"> 
2</text> 
</g>
 </g>
 </g>
 </g>
 <g>
 <g>
 <g transform="matrix(1.0,0.0,0.0,1.0,189.93774,109.9224)">
 <g fill="rgb(0.0%,0.0%,0.0%)">
 <text style="stroke:none" transform="scale(1,-1) translate(2.5,0)" text-anchor="middle"  font-size="10"> 
3</text> 
</g>
 </g>
 </g>
 </g>
 <g>
 <g>
 <g transform="matrix(1.0,0.0,0.0,1.0,213.40576,109.9224)">
 <g fill="rgb(0.0%,0.0%,0.0%)">
 <text style="stroke:none" transform="scale(1,-1) translate(2.5,0)" text-anchor="middle"  font-size="10"> 
4</text> 
</g>
 </g>
 </g>
 </g>
 <g>
 <g>
 <g transform="matrix(1.0,0.0,0.0,1.0,236.87378,109.9224)">
 <g fill="rgb(0.0%,0.0%,0.0%)">
 <text style="stroke:none" transform="scale(1,-1) translate(2.5,0)" text-anchor="middle"  font-size="10"> 
5</text> 
</g>
 </g>
 </g>
 </g>
 <g>
 <g>
 <g transform="matrix(1.0,0.0,0.0,1.0,99.14468,1.88805)">
 <g fill="rgb(0.0%,0.0%,0.0%)">
 <text style="stroke:none" transform="scale(1,-1) translate(8.61107,0)" text-anchor="middle"  font-size="10"> 
 − 5</text> 
</g>
 </g>
 </g>
 </g>
 <g>
 <g>
 <g transform="matrix(1.0,0.0,0.0,1.0,99.14468,25.35606)">
 <g fill="rgb(0.0%,0.0%,0.0%)">
 <text style="stroke:none" transform="scale(1,-1) translate(8.61107,0)" text-anchor="middle"  font-size="10"> 
 − 4</text> 
</g>
 </g>
 </g>
 </g>
 <g>
 <g>
 <g transform="matrix(1.0,0.0,0.0,1.0,99.14468,48.82408)">
 <g fill="rgb(0.0%,0.0%,0.0%)">
 <text style="stroke:none" transform="scale(1,-1) translate(8.61107,0)" text-anchor="middle"  font-size="10"> 
 − 3</text> 
</g>
 </g>
 </g>
 </g>
 <g>
 <g>
 <g transform="matrix(1.0,0.0,0.0,1.0,99.14468,72.2921)">
 <g fill="rgb(0.0%,0.0%,0.0%)">
 <text style="stroke:none" transform="scale(1,-1) translate(8.61107,0)" text-anchor="middle"  font-size="10"> 
 − 2</text> 
</g>
 </g>
 </g>
 </g>
 <g>
 <g>
 <g transform="matrix(1.0,0.0,0.0,1.0,99.14468,95.76012)">
 <g fill="rgb(0.0%,0.0%,0.0%)">
 <text style="stroke:none" transform="scale(1,-1) translate(8.61107,0)" text-anchor="middle"  font-size="10"> 
 − 1</text> 
</g>
 </g>
 </g>
 </g>
 <g>
 <g>
 <g transform="matrix(1.0,0.0,0.0,1.0,111.36682,142.2795)">
 <g fill="rgb(0.0%,0.0%,0.0%)">
 <text style="stroke:none" transform="scale(1,-1) translate(2.5,0)" text-anchor="middle"  font-size="10"> 
1</text> 
</g>
 </g>
 </g>
 </g>
 <g>
 <g>
 <g transform="matrix(1.0,0.0,0.0,1.0,111.36682,165.74751)">
 <g fill="rgb(0.0%,0.0%,0.0%)">
 <text style="stroke:none" transform="scale(1,-1) translate(2.5,0)" text-anchor="middle"  font-size="10"> 
2</text> 
</g>
 </g>
 </g>
 </g>
 <g>
 <g>
 <g transform="matrix(1.0,0.0,0.0,1.0,111.36682,189.21553)">
 <g fill="rgb(0.0%,0.0%,0.0%)">
 <text style="stroke:none" transform="scale(1,-1) translate(2.5,0)" text-anchor="middle"  font-size="10"> 
3</text> 
</g>
 </g>
 </g>
 </g>
 <g>
 <g>
 <g transform="matrix(1.0,0.0,0.0,1.0,111.36682,212.68355)">
 <g fill="rgb(0.0%,0.0%,0.0%)">
 <text style="stroke:none" transform="scale(1,-1) translate(2.5,0)" text-anchor="middle"  font-size="10"> 
4</text> 
</g>
 </g>
 </g>
 </g>
 <g>
 <g>
 <g transform="matrix(1.0,0.0,0.0,1.0,111.36682,236.15157)">
 <g fill="rgb(0.0%,0.0%,0.0%)">
 <text style="stroke:none" transform="scale(1,-1) translate(2.5,0)" text-anchor="middle"  font-size="10"> 
5</text> 
</g>
 </g>
 </g>
 </g>
 <g>
 <g>
 <g transform="matrix(1.0,0.0,0.0,1.0,247.60036,119.88092)">
 <g fill="rgb(0.0%,0.0%,0.0%)">
 <text style="stroke:none" transform="scale(1,-1) translate(2.85764,0)" text-anchor="middle"  font-size="10"> 
x</text> 
</g>
 </g>
 </g>
 </g>
 <g>
 <g>
 <g transform="matrix(1.0,0.0,0.0,1.0,119.4029,249.54478)">
 <g fill="rgb(0.0%,0.0%,0.0%)">
 <text style="stroke:none" transform="scale(1,-1) translate(2.6308,0)" text-anchor="middle"  font-size="10"> 
y</text> 
</g>
 </g>
 </g>
 </g>
 </g>
 </g>
 </g>
 </g>
 </g>
 
                                                                   </g> 
</svg> 
