<?xml version="1.0" encoding="iso-8859-1" standalone="no"?> 
<?xml-stylesheet href="Q1SP17REDUX.css" type="text/css"?> 
<svg xmlns="http://www.w3.org/2000/svg" xmlns:xlink="http://www.w3.org/1999/xlink" width="263.89905pt" height="259.46156pt" viewBox="-7.25044 -2.27826 263.89905 259.46156 "> 
<g transform="translate(0, 257.1833 ) scale(1,-1) translate(0,2.27826 )"> 
  <g>
 <g stroke="rgb(0.0%,0.0%,0.0%)">
 <g fill="rgb(0.0%,0.0%,0.0%)">
 <g stroke-width="0.4pt">
 <g>
 </g>
 <g>
 <g>
 <clipPath id="pgfcp4"> <path d=" M  0.0 0.0 L  244.06738 0.0 L  244.06738 244.06738 L  0.0 244.06738 Z  "/>
</clipPath>
 <g clip-path="url(#pgfcp4)">
 <g>
 <g stroke-width="1.6pt">
 <g stroke="rgb(0.0%,0.0%,50.0%)">
 <g fill="rgb(0.0%,0.0%,50.0%)">
 <path d=" M  4.6936 215.90576 C  4.6936 215.90576 7.51955 213.0798 8.60492 211.99443 C  9.69029 210.90906 11.43086 209.16849 12.51624 208.08311 C  13.60161 206.99774 15.34218 205.25717 16.42755 204.1718 C  17.51292 203.08643 19.2535 201.34586 20.33887 200.26048 C  21.42424 199.17511 23.16483 197.43452 24.2502 196.34915 C  25.33557 195.26378 27.07614 193.52321 28.16151 192.43784 C  29.24689 191.35246 30.98746 189.6119 32.07283 188.52652 C  33.1582 187.44115 34.89877 185.70058 35.98415 184.6152 C  37.06952 183.52983 38.8101 181.78925 39.89548 180.70387 C  40.98085 179.6185 42.72142 177.87793 43.8068 176.79256 C  44.89217 175.70718 46.63274 173.96661 47.71811 172.88124 C  48.80348 171.79587 50.54405 170.0553 51.62943 168.96992 C  52.7148 167.88455 54.45538 166.14397 55.54076 165.0586 C  56.62613 163.97322 58.3667 162.23265 59.45207 161.14728 C  60.53745 160.0619 62.27802 158.32133 63.36339 157.23596 C  64.44876 156.15059 66.18933 154.41002 67.2747 153.32465 C  68.36008 152.23927 70.10066 150.49869 71.18604 149.41331 C  72.27141 148.32794 74.01198 146.58737 75.09735 145.502 C  76.18272 144.41663 77.9233 142.67606 79.00867 141.59068 C  80.09404 140.50531 81.83461 138.76474 82.91998 137.67937 C  84.00536 136.594 85.74594 134.85341 86.83131 133.76804 C  87.91669 132.68266 89.65726 130.9421 90.74263 129.85672 C  91.828 128.77135 93.56857 127.03078 94.65395 125.9454 C  95.73932 124.86003 98.56526 122.03409 98.56526 122.03409  " style="fill:none"/>
 </g>
 </g>
 </g>
 </g>
 <g>
 <g stroke-width="1.6pt">
 <g stroke="rgb(0.0%,0.0%,50.0%)">
 <g fill="rgb(0.0%,0.0%,50.0%)">
 <path d=" M  98.56567 122.03369 C  98.56567 122.03369 102.80461 126.27263 104.43268 127.9007 C  106.06075 129.52876 108.67162 132.13963 110.29968 133.7677 C  111.92775 135.39577 114.53862 138.00664 116.16669 139.6347 C  117.79475 141.26277 120.40562 143.87364 122.03369 145.50171 C  123.66176 147.12978 126.27263 149.74065 127.9007 151.36871 C  129.52876 152.99678 132.13963 155.60765 133.7677 157.23572 C  135.39577 158.86378 138.00664 161.47466 139.6347 163.10272 C  141.26277 164.73079 143.87364 167.34166 145.50171 168.96973 C  147.12978 170.5978 149.74065 173.20866 151.36871 174.83673 C  152.99678 176.4648 155.60765 179.07567 157.23572 180.70374 C  158.86378 182.3318 161.47466 184.94267 163.10272 186.57074 C  164.73079 188.1988 167.34166 190.80968 168.96973 192.43774 C  170.5978 194.06581 173.20866 196.67668 174.83673 198.30475 C  176.4648 199.93282 179.07567 202.54369 180.70374 204.17175 C  182.3318 205.79982 184.94267 208.41069 186.57074 210.03876 C  188.1988 211.66682 190.80968 214.2777 192.43774 215.90576 C  194.06581 217.53383 196.67668 220.1447 198.30475 221.77277 C  199.93282 223.40083 202.54369 226.0117 204.17175 227.63977 C  205.79982 229.26784 208.41069 231.87871 210.03876 233.50677 C  211.66682 235.13484 214.2777 237.74571 215.90576 239.37378 C  217.53383 241.00185 220.1447 243.61272 221.77277 245.24078 C  223.40083 246.86885 226.0117 249.47972 227.63977 251.10779 C  229.26784 252.73586 231.87871 255.34673 233.50677 256.9748 C  235.13484 258.60286 239.37378 262.8418 239.37378 262.8418  " style="fill:none"/>
 </g>
 </g>
 </g>
 </g>
 <g>
 <g stroke-width="1.6pt">
 <g stroke="rgb(50.0%,0.0%,0.0%)">
 <g fill="rgb(50.0%,0.0%,0.0%)">
 <path d=" M  122.03369 98.56567 C  122.03369 98.56567 122.89003 102.80472 123.21892 103.83957 C  123.5478 104.87442 124.07526 105.48853 124.40414 106.02422 C  124.73303 106.5599 125.26048 107.27184 125.58937 107.70049 C  125.91826 108.12914 126.44571 108.74484 126.7746 109.11365 C  127.10349 109.48245 127.63094 110.02975 127.95982 110.35866 C  128.28871 110.68756 128.81616 111.18446 129.14505 111.48425 C  129.47394 111.78404 130.0014 112.24205 130.33029 112.51933 C  130.65918 112.79662 131.18663 113.22354 131.51552 113.48276 C  131.8444 113.74197 132.37186 114.14334 132.70074 114.38763 C  133.02963 114.63193 133.55708 115.0118 133.88597 115.24348 C  134.21486 115.47517 134.74231 115.83665 135.0712 116.05751 C  135.40009 116.27837 135.92754 116.62389 136.25642 116.8353 C  136.58531 117.0467 137.11276 117.3782 137.44165 117.5813 C  137.77054 117.7844 138.298 118.10344 138.62689 118.29913 C  138.95578 118.49483 139.48323 118.8027 139.81212 118.99174 C  140.141 119.18079 140.66846 119.4786 140.99734 119.66162 C  141.32623 119.84464 141.85368 120.13333 142.18257 120.31088 C  142.51146 120.48843 143.03891 120.76878 143.3678 120.94131 C  143.69669 121.11385 144.22414 121.38657 144.55302 121.55444 C  144.88191 121.72232 145.40936 121.9877 145.73825 122.15132 C  146.06714 122.31494 146.5946 122.57404 146.9235 122.73375 C  147.25238 122.89346 147.77983 123.14644 148.10872 123.30247 C  148.4376 123.45851 148.96506 123.70581 149.29395 123.85841 C  149.62283 124.01102 150.15028 124.25304 150.47917 124.40244 C  150.80806 124.55183 151.33551 124.78882 151.6644 124.9352 C  151.99329 125.08157 152.52074 125.3139 152.84962 125.45743 C  153.17851 125.60095 153.70598 125.82887 154.03487 125.96971 C  154.36375 126.11055 154.8912 126.33426 155.2201 126.47256 C  155.54898 126.61087 156.07643 126.83063 156.40532 126.96652 C  156.7342 127.10242 157.26166 127.31847 157.59055 127.45207 C  157.91943 127.58568 158.44688 127.79811 158.77577 127.92955 C  159.10466 128.06099 159.63211 128.27005 159.961 128.39941 C  160.28989 128.52878 160.81734 128.73456 161.14622 128.86194 C  161.47511 128.98932 162.00258 129.19205 162.33147 129.31755 C  162.66035 129.44305 163.1878 129.64284 163.5167 129.76654 C  163.84558 129.89024 164.37303 130.08717 164.70192 130.20914 C  165.0308 130.3311 165.55826 130.52533 165.88715 130.64563 C  166.21603 130.76593 166.74348 130.95752 167.07237 131.07622 C  167.40126 131.19492 167.92871 131.38405 168.2576 131.50122 C  168.58649 131.6184 169.11394 131.80507 169.44283 131.92078 C  169.77171 132.03648 170.29918 132.2209 170.62807 132.33519 C  170.95695 132.44948 171.4844 132.6316 171.8133 132.7445 C  172.14218 132.8574 172.66963 133.03741 172.99852 133.149 C  173.32741 133.26059 173.85486 133.4385 174.18375 133.54883 C  174.51263 133.65915 175.04008 133.83504 175.36897 133.94412 C  175.69786 134.0532 176.22531 134.22716 176.5542 134.33505 C  176.88309 134.44295 177.41054 134.61502 177.73943 134.72176 C  178.06831 134.82849 178.59578 134.99876 178.92467 135.10439 C  179.25356 135.21 179.781 135.3785 180.1099 135.48303 C  180.43878 135.58757 180.96623 135.75436 181.29512 135.85785 C  181.62401 135.96133 182.15146 136.12643 182.48035 136.2289 C  182.80923 136.33136 183.33669 136.49492 183.66557 136.59639 C  183.99446 136.69786 184.52191 136.85979 184.8508 136.9603 C  185.17969 137.0608 185.70715 137.22127 186.03604 137.32085 C  186.36493 137.42043 186.89238 137.57936 187.22127 137.67802 C  187.55016 137.77669 188.0776 137.93419 188.4065 138.03197 C  188.73538 138.12975 189.26283 138.28587 189.59172 138.3828 C  189.92061 138.47972 190.44806 138.6345 190.77695 138.73059 C  191.10583 138.82668 191.63329 138.98006 191.96217 139.07532 C  192.29106 139.17058 192.81851 139.32272 193.1474 139.41719 C  193.47629 139.51166 194.00375 139.66255 194.33264 139.75624 C  194.66153 139.84993 195.18898 139.99956 195.51787 140.09248 C  195.84676 140.18541 196.3742 140.33382 196.7031 140.42601 C  197.03198 140.5182 197.55943 140.6655 197.88832 140.75696 C  198.21721 140.84842 198.74466 140.99454 199.07355 141.0853 C  199.40244 141.17606 199.92989 141.32106 200.25877 141.41113 C  200.58766 141.5012 201.11511 141.6451 201.444 141.73448 C  201.77289 141.82387 202.30035 141.96672 202.62924 142.05545 C  202.95813 142.14418 203.48558 142.28596 203.81447 142.37405 C  204.14336 142.46214 204.6708 142.6029 204.9997 142.69035 C  205.32858 142.7778 205.85603 142.91759 206.18492 143.00443 C  206.51381 143.09126 207.04126 143.23006 207.37015 143.31628 C  207.69904 143.40251 208.22649 143.54034 208.55537 143.62598 C  208.88426 143.71161 209.41171 143.84851 209.7406 143.93356 C  210.06949 144.01862 210.59695 144.15459 210.92584 144.23907 C  211.25473 144.32356 211.78218 144.45863 212.11107 144.54256 C  212.43996 144.62648 212.9674 144.76065 213.2963 144.84404 C  213.62518 144.92743 214.15263 145.06073 214.48152 145.14359 C  214.81041 145.22644 215.33786 145.3589 215.66675 145.44122 C  215.99564 145.52354 216.52309 145.65517 216.85197 145.73697 C  217.18086 145.81877 217.70833 145.94955 218.03722 146.03085 C  218.3661 146.11215 218.89355 146.24217 219.22244 146.32297 C  219.55133 146.40376 220.07878 146.53296 220.40767 146.61327 C  220.73656 146.69357 221.264 146.82202 221.5929 146.90186 C  221.92178 146.98169 222.44923 147.10936 222.77812 147.18872 C  223.10701 147.26808 223.63446 147.395 223.96335 147.4739 C  224.29224 147.55281 224.81969 147.679 225.14857 147.75745 C  225.47746 147.83589 226.00493 147.96132 226.33382 148.03932 C  226.6627 148.11732 227.19016 148.24208 227.51904 148.31964 C  227.84793 148.3972 228.37538 148.52124 228.70427 148.59837 C  229.03316 148.6755 229.56061 148.79887 229.8895 148.87558 C  230.21838 148.95229 230.74583 149.07495 231.07472 149.15123 C  231.40361 149.22751 231.93106 149.34953 232.25995 149.42542 C  232.58884 149.5013 233.11629 149.62267 233.44518 149.69814 C  233.77406 149.7736 234.30153 149.89432 234.63042 149.96938 C  234.9593 150.04443 235.48676 150.16452 235.81564 150.2392 C  236.14453 150.31387 236.67198 150.43336 237.00087 150.50766 C  237.32976 150.58195 237.85721 150.70082 238.1861 150.77473 C  238.51498 150.84865 239.37132 151.04039 239.37132 151.04039  " style="fill:none"/>
 </g>
 </g>
 </g>
 </g>
 <g>
 <g stroke="rgb(0.0%,0.0%,50.0%)">
 <g fill="rgb(0.0%,0.0%,50.0%)">
 <g>
 <g stroke="rgb(0.0%,0.0%,50.0%)">
 <g fill="rgb(0.0%,0.0%,50.0%)">
 </g>
 </g>
 </g>
 <g>
 <g transform="matrix(1.0,0.0,0.0,1.0,173.94788,166.46973)">
 <g fill="rgb(0.0%,0.0%,50.0%)">
 <text style="stroke:none" transform="scale(1,-1) translate(30.22388,0)" text-anchor="middle"  font-size="10"> 
g(x) = |x + 1|</text> 
</g>
 </g>
 </g>
 </g>
 </g>
 </g>
 <g>
 <g stroke="rgb(50.0%,0.0%,0.0%)">
 <g fill="rgb(50.0%,0.0%,0.0%)">
 <g>
 <g stroke="rgb(50.0%,0.0%,0.0%)">
 <g fill="rgb(50.0%,0.0%,0.0%)">
 </g>
 </g>
 </g>
 <g>
 <g transform="matrix(1.0,0.0,0.0,1.0,146.32227,72.3463)">
 <g fill="rgb(50.0%,0.0%,0.0%)">
 <text style="stroke:none" transform="scale(1,-1) translate(32.03467,0)" text-anchor="middle"  font-size="10"> 
f(x) = <img 
src="Q1SP17REDUX3x.png" alt="√--
 x"  class="sqrt"  /> − 1</text> 
</g>
 </g>
 </g>
 </g>
 </g>
 </g>
 </g>
 </g>
 <g>
 <g>
 <g stroke-width="0.2pt">
 <g stroke="rgb(50.0%,50.0%,50.0%)">
 <g fill="rgb(50.0%,50.0%,50.0%)">
 <path d=" M  4.6936 119.8998 L  4.6936 124.16757 M  28.16162 119.8998 L  28.16162 124.16757 M  51.62964 119.8998 L  51.62964 124.16757 M  75.09766 119.8998 L  75.09766 124.16757 M  98.56567 119.8998 L  98.56567 124.16757 M  145.50171 119.8998 L  145.50171 124.16757 M  168.96973 119.8998 L  168.96973 124.16757 M  192.43774 119.8998 L  192.43774 124.16757 M  215.90576 119.8998 L  215.90576 124.16757 M  239.37378 119.8998 L  239.37378 124.16757  " style="fill:none"/>
 </g>
 </g>
 </g>
 </g>
 </g>
 <g>
 <g>
 <g stroke-width="0.2pt">
 <g stroke="rgb(50.0%,50.0%,50.0%)">
 <g fill="rgb(50.0%,50.0%,50.0%)">
 <path d=" M  119.8998 4.6936 L  124.16757 4.6936 M  119.8998 28.16162 L  124.16757 28.16162 M  119.8998 51.62964 L  124.16757 51.62964 M  119.8998 75.09766 L  124.16757 75.09766 M  119.8998 98.56567 L  124.16757 98.56567 M  119.8998 145.50171 L  124.16757 145.50171 M  119.8998 168.96973 L  124.16757 168.96973 M  119.8998 192.43774 L  124.16757 192.43774 M  119.8998 215.90576 L  124.16757 215.90576 M  119.8998 239.37378 L  124.16757 239.37378  " style="fill:none"/>
 </g>
 </g>
 </g>
 </g>
 </g>
 <path d=" M  0.0 122.03369 L  242.06741 122.03369  " style="fill:none"/>
 <g>
 <g transform="matrix(1.0,0.0,0.0,1.0,242.06741,122.03369)">
 <g>
 <path d=" M  1.99997 0.0 L  -1.19998 1.59998 L  0.0 0.0 L  -1.19998 -1.59998  " style="stroke:none"/>
 </g>
  </g>
 </g>
 <path d=" M  122.03369 0.0 L  122.03369 242.06741  " style="fill:none"/>
 <g>
 <g transform="matrix(0.0,1.0,-1.0,0.0,122.03369,242.06741)">
 <g>
 <path d=" M  1.99997 0.0 L  -1.19998 1.59998 L  0.0 0.0 L  -1.19998 -1.59998  " style="stroke:none"/>
 </g>
  </g>
 </g>
 <g>
 <g>
 <g transform="matrix(1.0,0.0,0.0,1.0,-3.91747,109.92238)">
 <g fill="rgb(0.0%,0.0%,0.0%)">
 <text style="stroke:none" transform="scale(1,-1) translate(8.61107,0)" text-anchor="middle"  font-size="10"> 
 − 5</text> 
</g>
 </g>
 </g>
 </g>
 <g>
 <g>
 <g transform="matrix(1.0,0.0,0.0,1.0,19.55055,109.92238)">
 <g fill="rgb(0.0%,0.0%,0.0%)">
 <text style="stroke:none" transform="scale(1,-1) translate(8.61107,0)" text-anchor="middle"  font-size="10"> 
 − 4</text> 
</g>
 </g>
 </g>
 </g>
 <g>
 <g>
 <g transform="matrix(1.0,0.0,0.0,1.0,43.01857,109.92238)">
 <g fill="rgb(0.0%,0.0%,0.0%)">
 <text style="stroke:none" transform="scale(1,-1) translate(8.61107,0)" text-anchor="middle"  font-size="10"> 
 − 3</text> 
</g>
 </g>
 </g>
 </g>
 <g>
 <g>
 <g transform="matrix(1.0,0.0,0.0,1.0,66.48659,109.92238)">
 <g fill="rgb(0.0%,0.0%,0.0%)">
 <text style="stroke:none" transform="scale(1,-1) translate(8.61107,0)" text-anchor="middle"  font-size="10"> 
 − 2</text> 
</g>
 </g>
 </g>
 </g>
 <g>
 <g>
 <g transform="matrix(1.0,0.0,0.0,1.0,89.9546,109.92238)">
 <g fill="rgb(0.0%,0.0%,0.0%)">
 <text style="stroke:none" transform="scale(1,-1) translate(8.61107,0)" text-anchor="middle"  font-size="10"> 
 − 1</text> 
</g>
 </g>
 </g>
 </g>
 <g>
 <g>
 <g transform="matrix(1.0,0.0,0.0,1.0,143.00171,109.9224)">
 <g fill="rgb(0.0%,0.0%,0.0%)">
 <text style="stroke:none" transform="scale(1,-1) translate(2.5,0)" text-anchor="middle"  font-size="10"> 
1</text> 
</g>
 </g>
 </g>
 </g>
 <g>
 <g>
 <g transform="matrix(1.0,0.0,0.0,1.0,166.46973,109.9224)">
 <g fill="rgb(0.0%,0.0%,0.0%)">
 <text style="stroke:none" transform="scale(1,-1) translate(2.5,0)" text-anchor="middle"  font-size="10"> 
2</text> 
</g>
 </g>
 </g>
 </g>
 <g>
 <g>
 <g transform="matrix(1.0,0.0,0.0,1.0,189.93774,109.9224)">
 <g fill="rgb(0.0%,0.0%,0.0%)">
 <text style="stroke:none" transform="scale(1,-1) translate(2.5,0)" text-anchor="middle"  font-size="10"> 
3</text> 
</g>
 </g>
 </g>
 </g>
 <g>
 <g>
 <g transform="matrix(1.0,0.0,0.0,1.0,213.40576,109.9224)">
 <g fill="rgb(0.0%,0.0%,0.0%)">
 <text style="stroke:none" transform="scale(1,-1) translate(2.5,0)" text-anchor="middle"  font-size="10"> 
4</text> 
</g>
 </g>
 </g>
 </g>
 <g>
 <g>
 <g transform="matrix(1.0,0.0,0.0,1.0,236.87378,109.9224)">
 <g fill="rgb(0.0%,0.0%,0.0%)">
 <text style="stroke:none" transform="scale(1,-1) translate(2.5,0)" text-anchor="middle"  font-size="10"> 
5</text> 
</g>
 </g>
 </g>
 </g>
 <g>
 <g>
 <g transform="matrix(1.0,0.0,0.0,1.0,99.14468,1.88805)">
 <g fill="rgb(0.0%,0.0%,0.0%)">
 <text style="stroke:none" transform="scale(1,-1) translate(8.61107,0)" text-anchor="middle"  font-size="10"> 
 − 5</text> 
</g>
 </g>
 </g>
 </g>
 <g>
 <g>
 <g transform="matrix(1.0,0.0,0.0,1.0,99.14468,25.35606)">
 <g fill="rgb(0.0%,0.0%,0.0%)">
 <text style="stroke:none" transform="scale(1,-1) translate(8.61107,0)" text-anchor="middle"  font-size="10"> 
 − 4</text> 
</g>
 </g>
 </g>
 </g>
 <g>
 <g>
 <g transform="matrix(1.0,0.0,0.0,1.0,99.14468,48.82408)">
 <g fill="rgb(0.0%,0.0%,0.0%)">
 <text style="stroke:none" transform="scale(1,-1) translate(8.61107,0)" text-anchor="middle"  font-size="10"> 
 − 3</text> 
</g>
 </g>
 </g>
 </g>
 <g>
 <g>
 <g transform="matrix(1.0,0.0,0.0,1.0,99.14468,72.2921)">
 <g fill="rgb(0.0%,0.0%,0.0%)">
 <text style="stroke:none" transform="scale(1,-1) translate(8.61107,0)" text-anchor="middle"  font-size="10"> 
 − 2</text> 
</g>
 </g>
 </g>
 </g>
 <g>
 <g>
 <g transform="matrix(1.0,0.0,0.0,1.0,99.14468,95.76012)">
 <g fill="rgb(0.0%,0.0%,0.0%)">
 <text style="stroke:none" transform="scale(1,-1) translate(8.61107,0)" text-anchor="middle"  font-size="10"> 
 − 1</text> 
</g>
 </g>
 </g>
 </g>
 <g>
 <g>
 <g transform="matrix(1.0,0.0,0.0,1.0,111.36682,142.2795)">
 <g fill="rgb(0.0%,0.0%,0.0%)">
 <text style="stroke:none" transform="scale(1,-1) translate(2.5,0)" text-anchor="middle"  font-size="10"> 
1</text> 
</g>
 </g>
 </g>
 </g>
 <g>
 <g>
 <g transform="matrix(1.0,0.0,0.0,1.0,111.36682,165.74751)">
 <g fill="rgb(0.0%,0.0%,0.0%)">
 <text style="stroke:none" transform="scale(1,-1) translate(2.5,0)" text-anchor="middle"  font-size="10"> 
2</text> 
</g>
 </g>
 </g>
 </g>
 <g>
 <g>
 <g transform="matrix(1.0,0.0,0.0,1.0,111.36682,189.21553)">
 <g fill="rgb(0.0%,0.0%,0.0%)">
 <text style="stroke:none" transform="scale(1,-1) translate(2.5,0)" text-anchor="middle"  font-size="10"> 
3</text> 
</g>
 </g>
 </g>
 </g>
 <g>
 <g>
 <g transform="matrix(1.0,0.0,0.0,1.0,111.36682,212.68355)">
 <g fill="rgb(0.0%,0.0%,0.0%)">
 <text style="stroke:none" transform="scale(1,-1) translate(2.5,0)" text-anchor="middle"  font-size="10"> 
4</text> 
</g>
 </g>
 </g>
 </g>
 <g>
 <g>
 <g transform="matrix(1.0,0.0,0.0,1.0,111.36682,236.15157)">
 <g fill="rgb(0.0%,0.0%,0.0%)">
 <text style="stroke:none" transform="scale(1,-1) translate(2.5,0)" text-anchor="middle"  font-size="10"> 
5</text> 
</g>
 </g>
 </g>
 </g>
 <g>
 <g stroke="rgb(50.0%,0.0%,0.0%)">
 <g fill="rgb(50.0%,0.0%,0.0%)">
 <g fill="rgb(50.0%,0.0%,0.0%)">
 <g stroke="rgb(50.0%,0.0%,0.0%)">
 <g fill="rgb(50.0%,0.0%,0.0%)">
 <g fill="rgb(50.0%,0.0%,0.0%)">
 <path d=" M  124.03369 98.56567 C  124.03369 99.67026 123.13828 100.56567 122.03369 100.56567 C  120.92911 100.56567 120.03369 99.67026 120.03369 98.56567 C  120.03369 97.46109 120.92911 96.56567 122.03369 96.56567 C  123.13828 96.56567 124.03369 97.46109 124.03369 98.56567 Z M  122.03369 98.56567  " />
 <path d="  " />
 </g>
 </g>
 </g>
 </g>
 </g>
 </g>
 </g>
 <g>
 <g>
 <g transform="matrix(1.0,0.0,0.0,1.0,247.60036,119.88092)">
 <g fill="rgb(0.0%,0.0%,0.0%)">
 <text style="stroke:none" transform="scale(1,-1) translate(2.85764,0)" text-anchor="middle"  font-size="10"> 
x</text> 
</g>
 </g>
 </g>
 </g>
 <g>
 <g>
 <g transform="matrix(1.0,0.0,0.0,1.0,119.4029,249.54478)">
 <g fill="rgb(0.0%,0.0%,0.0%)">
 <text style="stroke:none" transform="scale(1,-1) translate(2.6308,0)" text-anchor="middle"  font-size="10"> 
y</text> 
</g>
 </g>
 </g>
 </g>
 </g>
 </g>
 </g>
 </g>
 </g>
 
                                                                   </g> 
</svg> 
