<?xml version="1.0" encoding="iso-8859-1" standalone="no"?> 
<?xml-stylesheet href="howToUseXimera.css" type="text/css"?> 
<svg xmlns="http://www.w3.org/2000/svg" xmlns:xlink="http://www.w3.org/1999/xlink" width="65.30548pt" height="36.85274pt" viewBox="-4.2 -4.2 65.30548 36.85274 "> 
<g transform="translate(0, 32.65274 ) scale(1,-1) translate(0,4.2 )"> 
 <g>
 <g stroke="rgb(0.0%,0.0%,0.0%)">
 <g fill="rgb(0.0%,0.0%,0.0%)">
 <g stroke-width="0.4pt">
 <g>
 <path d=" M  0.0 0.0 M  4.0 0.0 C  4.0 2.20917 2.20917 4.0 0.0 4.0 C  -2.20917 4.0 -4.0 2.20917 -4.0 0.0 C  -4.0 -2.20917 -2.20917 -4.0 0.0 -4.0 C  2.20917 -4.0 4.0 -2.20917 4.0 0.0 Z M  0.0 0.0  " style="fill:none"/>
 <path d=" M  28.45274 0.0 M  32.45274 0.0 C  32.45274 2.20917 30.66191 4.0 28.45274 4.0 C  26.24358 4.0 24.45274 2.20917 24.45274 0.0 C  24.45274 -2.20917 26.24358 -4.0 28.45274 -4.0 C  30.66191 -4.0 32.45274 -2.20917 32.45274 0.0 Z M  28.45274 0.0  " style="fill:none"/>
 <path d=" M  56.90549 0.0 M  60.90549 0.0 C  60.90549 2.20917 59.11465 4.0 56.90549 4.0 C  54.69632 4.0 52.90549 2.20917 52.90549 0.0 C  52.90549 -2.20917 54.69632 -4.0 56.90549 -4.0 C  59.11465 -4.0 60.90549 -2.20917 60.90549 0.0 Z M  56.90549 0.0  " style="fill:none"/>
 <path d=" M  0.0 28.45274 M  4.0 28.45274 C  4.0 30.66191 2.20917 32.45274 0.0 32.45274 C  -2.20917 32.45274 -4.0 30.66191 -4.0 28.45274 C  -4.0 26.24358 -2.20917 24.45274 0.0 24.45274 C  2.20917 24.45274 4.0 26.24358 4.0 28.45274 Z M  0.0 28.45274  " style="fill:none"/>
 <path d=" M  28.45274 28.45274 M  32.45274 28.45274 C  32.45274 30.66191 30.66191 32.45274 28.45274 32.45274 C  26.24358 32.45274 24.45274 30.66191 24.45274 28.45274 C  24.45274 26.24358 26.24358 24.45274 28.45274 24.45274 C  30.66191 24.45274 32.45274 26.24358 32.45274 28.45274 Z M  28.45274 28.45274  " style="fill:none"/>
 <path d=" M  56.90549 28.45274 M  60.90549 28.45274 C  60.90549 30.66191 59.11465 32.45274 56.90549 32.45274 C  54.69632 32.45274 52.90549 30.66191 52.90549 28.45274 C  52.90549 26.24358 54.69632 24.45274 56.90549 24.45274 C  59.11465 24.45274 60.90549 26.24358 60.90549 28.45274 Z M  56.90549 28.45274  " style="fill:none"/>
 </g>
 </g>
 </g>
 </g>
 </g>
                   </g> 
</svg> 
