<?xml version="1.0" encoding="iso-8859-1" standalone="no"?> 
<?xml-stylesheet href="digInTheSqueezeTheorem.css" type="text/css"?> 
<svg xmlns="http://www.w3.org/2000/svg" xmlns:xlink="http://www.w3.org/1999/xlink" width="188.53409pt" height="188.84517pt" viewBox="-0.59999 -13.69926 188.53409 188.84517 "> 
<g transform="translate(0, 175.1459 ) scale(1,-1) translate(0,13.69926 )"> 
<g>
 <g stroke="rgb(0.0%,0.0%,0.0%)">
 <g fill="rgb(0.0%,0.0%,0.0%)">
 <g stroke-width="0.4pt">
 <g>
 </g>
 <g>
 <g>
 <g>
 </g>
 <g>
 </g>
 <path d=" M  13.31766 13.49991 L  173.31659 13.49991  " style="fill:none"/>
 <g>
 <g transform="matrix(1.0,0.0,0.0,1.0,173.31659,13.49991)">
 <g>
 <path d=" M  1.99997 0.0 L  -1.19998 1.59998 L  0.0 0.0 L  -1.19998 -1.59998  " style="stroke:none"/>
 </g>
  </g>
 </g>
 <path d=" M  26.81757 0.0 L  26.81757 159.99893  " style="fill:none"/>
 <g>
 <g transform="matrix(0.0,1.0,-1.0,0.0,26.81757,159.99893)">
 <g>
 <path d=" M  1.99997 0.0 L  -1.19998 1.59998 L  0.0 0.0 L  -1.19998 -1.59998  " style="stroke:none"/>
 </g>
  </g>
 </g>
 <g>
 <g fill="rgb(80.0003%,80.0003%,89.99939%)">
 <path d=" M  26.81757 13.49991 L  130.22687 100.30432 L  130.22687 13.49991 L  26.81757 13.49991 Z  " style="stroke:none"/>
 </g>
 </g>
 <g>
 <g fill="rgb(80.0003%,80.0003%,89.99939%)">
 <path d=" M  161.81665 13.49991 L  161.80586 14.45164 L  161.79774 15.4034 L  161.78156 16.35513 L  161.75725 17.30688 L  161.73026 18.2559 L  161.68706 19.20766 L  161.6479 20.15807 L  161.59392 21.11115 L  161.53856 22.06154 L  161.47646 23.01059 L  161.40219 23.95963 L  161.3266 24.90732 L  161.24426 25.85501 L  161.15381 26.80272 L  161.05797 27.74904 L  160.9513 28.69809 L  160.84465 29.64308 L  160.7272 30.58673 L  160.60167 31.53038 L  160.47206 32.47537 L  160.33165 33.41496 L  160.19127 34.35725 L  160.03871 35.2955 L  159.88211 36.2351 L  159.72147 37.172 L  159.54596 38.11023 L  159.37317 39.04442 L  159.18552 39.97998 L  158.9992 40.91281 L  158.80348 41.84431 L  158.59694 42.7758 L  158.38902 43.70189 L  158.17032 44.62935 L  157.95029 45.55273 L  157.72348 46.48016 L  157.48453 47.3995 L  157.24425 48.3229 L  156.99178 49.23956 L  156.73663 50.1589 L  156.47743 51.07555 L  156.20744 51.98543 L  155.9334 52.89804 L  155.65125 53.80792 L  155.36504 54.71512 L  155.0721 55.62097 L  154.7697 56.52547 L  154.46866 57.42859 L  154.15141 58.32635 L  153.83281 59.22139 L  153.50746 60.11508 L  153.17267 61.00742 L  152.83922 61.89708 L  152.48956 62.78403 L  152.14125 63.67096 L  151.78487 64.5525 L  151.42036 65.4327 L  151.05316 66.31154 L  150.67517 67.18498 L  150.29584 68.05843 L  149.90569 68.92648 L  149.51283 69.79318 L  149.1146 70.65851 L  148.70554 71.5171 L  148.29514 72.37706 L  147.8753 73.2289 L  147.45139 74.0848 L  147.0248 74.93527 L  146.58336 75.77902 L  146.14462 76.62277 L  145.69505 77.46248 L  145.24011 78.29947 L  144.78381 79.13374 L  144.31537 79.96265 L  143.84558 80.78883 L  143.36632 81.6137 L  142.88168 82.43314 L  142.39568 83.25122 L  141.8989 84.06256 L  141.40074 84.87392 L  140.8918 85.67715 L  140.38148 86.48311 L  139.86446 87.28365 L  139.33931 88.07474 L  138.81552 88.86853 L  138.27551 89.6556 L  137.73822 90.43858 L  137.19281 91.22023 L  136.63933 91.99512 L  136.08853 92.77 L  135.52153 93.53545 L  134.95995 94.30496 L  134.38483 95.065 L  133.8057 95.8183 L  133.22519 96.5743 L  132.6339 97.32083 L  132.0399 98.06332 L  131.44322 98.80313 L  130.83571 99.53886 L  130.22957 100.27461 L  130.22957 13.49991 L  161.81665 13.49991 Z  " style="stroke:none"/>
 </g>
 </g>
 <g>
 <g stroke-width="1.2pt">
 <g stroke="rgb(50.0%,0.0%,0.0%)">
 <g fill="rgb(50.0%,0.0%,0.0%)">
 <path d=" M  161.13626 0.02563 C  161.13626 0.02563 161.71307 7.61003 161.7775 10.52586 C  161.84192 13.4417 161.7636 18.12888 161.60065 21.04095 C  161.4377 23.95303 160.99223 28.62326 160.60301 31.51418 C  160.21379 34.40509 159.4086 39.02493 158.79536 41.87671 C  158.18213 44.72849 157.01628 49.2724 156.18314 52.0678 C  155.34999 54.86319 153.83952 59.30182 152.7906 62.02397 C  151.74168 64.74612 149.8806 69.05478 148.6232 71.68721 C  147.3658 74.31964 145.18631 78.47052 143.72812 80.99675 C  142.26993 83.52298 139.76463 87.4893 138.11351 89.89453 C  136.46239 92.29976 133.66095 96.06293 131.82796 98.33199 C  129.99496 100.60104 126.90689 104.12912 124.90251 106.24832 C  122.89813 108.36752 119.54494 111.64897 117.38171 113.60577 C  115.21849 115.56258 111.62039 118.56906 109.31145 120.35167 C  107.0025 122.13428 103.18117 124.8559 100.74036 126.45363 C  98.29955 128.05136 94.27779 130.46452 91.71973 131.86708 C  89.16167 133.26964 84.96275 135.36305 82.30354 136.56238 C  79.64433 137.7617 75.29854 139.52284 72.55391 140.51108 C  69.80928 141.49931 65.33531 142.91321 62.52213 143.68492 C  59.70894 144.45663 55.14308 145.52293 52.2784 146.07306 C  49.41371 146.62318 44.77435 147.3245 41.87538 147.64984 C  38.97641 147.97519 34.29929 148.31927 31.38458 148.41798 C  28.46988 148.5167 23.7823 148.48958 20.86816 148.36128 C  17.95403 148.23299 13.27684 147.84819 10.38142 147.49326 C  7.48601 147.13832 0.0 145.80305 0.0 145.80305  " style="fill:none"/>
 </g>
 </g>
 </g>
 </g>
 <g>
 <g stroke="rgb(0.0%,0.0%,0.0%)">
 <g fill="rgb(0.0%,0.0%,0.0%)">
 <path d=" M  26.81757 13.49991 L  161.81665 126.76413  " style="fill:none"/>
 </g>
 </g>
 </g>
 <g>
 <g stroke="rgb(0.0%,0.0%,0.0%)">
 <g fill="rgb(0.0%,0.0%,0.0%)">
 <path d=" M  130.22687 13.49991 L  130.22687 100.30432  " style="fill:none"/>
 </g>
 </g>
 </g>
 <g>
 <g stroke="rgb(0.0%,0.0%,0.0%)">
 <g fill="rgb(0.0%,0.0%,0.0%)">
 <path d=" M  161.81665 13.49991 L  161.81665 126.76413  " style="fill:none"/>
 </g>
 </g>
 </g>
 <g>
 <g stroke="rgb(0.0%,0.0%,0.0%)">
 <g fill="rgb(0.0%,0.0%,0.0%)">
 <path d=" M  47.06743 13.49991 C  47.06743 13.49991 47.06282 13.92528 47.0579 14.08856 C  47.053 14.25185 47.04143 14.51367 47.032 14.67682 C  47.02257 14.83997 47.00406 15.10165 46.98987 15.26447 C  46.97568 15.42728 46.94873 15.68802 46.92972 15.8503 C  46.9107 16.01257 46.87637 16.2724 46.85278 16.43411 C  46.8292 16.59583 46.78801 16.8549 46.75964 17.01588 C  46.73128 17.17686 46.68143 17.43443 46.64825 17.59444 C  46.61508 17.75444 46.55809 18.01013 46.52048 18.16911 C  46.48286 18.3281 46.4194 18.5825 46.3771 18.74037 C  46.33481 18.89824 46.26247 19.1504 46.21553 19.30695 C  46.1686 19.46349 46.09001 19.71349 46.03874 19.86868 C  45.98747 20.02388 45.90187 20.272 45.84596 20.42557 C  45.79005 20.57913 45.69618 20.82375 45.63576 20.97554 C  45.57533 21.12733 45.475 21.36954 45.41039 21.51965 C  45.34576 21.66977 45.23906 21.90938 45.17001 22.0575 C  45.10097 22.20561 44.98608 22.44125 44.91264 22.58723 C  44.8392 22.73322 44.71819 22.96576 44.6407 23.10966 C  44.56322 23.25357 44.43587 23.48285 44.35414 23.62442 C  44.27242 23.76599 44.13753 23.991 44.05162 24.13007 C  43.96571 24.26913 43.82462 24.49023 43.73491 24.6268 C  43.6452 24.76337 43.49867 24.98051 43.40503 25.11441 C  43.31139 25.2483 43.1577 25.46086 43.05998 25.59192 C  42.96227 25.72298 42.80211 25.93091 42.70074 26.05907 C  42.59938 26.18723 42.32936 26.5157 42.32936 26.5157  " style="fill:none"/>
 </g>
 </g>
 </g>
 <g>
 <g stroke-width="1.2pt">
 <g stroke="rgb(0.0%,0.0%,50.0%)">
 <g fill="rgb(0.0%,0.0%,50.0%)">
 <path d=" M  26.81757 13.49991 L  130.22687 100.30432  " style="fill:none"/>
 </g>
 </g>
 </g>
 </g>
 <g>
 <g stroke-width="1.2pt">
 <g stroke="rgb(0.0%,0.0%,50.0%)">
 <g fill="rgb(0.0%,0.0%,50.0%)">
 <path d=" M  26.81757 13.49991 L  161.81665 13.49991  " style="fill:none"/>
 </g>
 </g>
 </g>
 </g>
 <g>
 <g stroke-width="1.2pt">
 <g stroke="rgb(0.0%,0.0%,50.0%)">
 <g fill="rgb(0.0%,0.0%,50.0%)">
 <path d=" M  161.81665 13.49991 C  161.81665 13.49991 161.78598 16.3357 161.7532 17.42432 C  161.72043 18.51294 161.64333 20.25835 161.5804 21.34604 C  161.51747 22.43373 161.39418 24.17828 161.2996 25.26373 C  161.20503 26.34918 161.02547 28.08734 160.89867 29.16924 C  160.77187 30.25113 160.543 31.98314 160.38567 33.06128 C  160.22833 34.13942 159.95384 35.86653 159.76466 36.9398 C  159.57549 38.01308 159.24336 39.73001 159.02216 40.79672 C  158.80095 41.86343 158.42111 43.56802 158.17032 44.62799 C  157.91953 45.68796 157.49661 47.38383 157.21454 48.43631 C  156.93246 49.48878 156.45023 51.16992 156.13724 52.2136 C  155.82425 53.25726 155.30052 54.92378 154.9587 55.95847 C  154.61687 56.99315 154.04625 58.64713 153.67351 59.67094 C  153.30077 60.69476 152.6751 62.3255 152.2722 63.33752 C  151.86931 64.34955 151.20049 65.96417 150.76968 66.96495 C  150.33888 67.96573 149.62766 69.56302 149.16725 70.5505 C  148.70685 71.538 147.94101 73.10884 147.45139 74.08209 C  146.96176 75.05534 146.15495 76.60568 145.63837 77.56506 C  145.12178 78.52444 144.273 80.0529 143.72812 80.99675 C  143.18324 81.9406 142.28401 83.44049 141.71123 84.36766 C  141.13844 85.29483 140.19792 86.76869 139.59985 87.6792 C  139.00179 88.5897 138.02502 90.03728 137.40073 90.92998 C  136.77643 91.82268 135.7518 93.23949 135.10034 94.11327 C  134.44888 94.98705 133.38126 96.37318 132.70546 97.22768 C  132.02966 98.08217 130.22957 100.27191 130.22957 100.27191  " style="fill:none"/>
 </g>
 </g>
 </g>
 </g>
 <g>
 <g>
 <g transform="matrix(1.0,0.0,0.0,1.0,50.6004,19.47763)">
 <g fill="rgb(0.0%,0.0%,0.0%)">
 <text style="stroke:none" transform="scale(1,-1) translate(2.48611,0)" text-anchor="middle"  font-size="10"> 
𝜃</text> 
</g>
 </g>
 </g>
 </g>
 <g>
 <g>
 <g transform="matrix(1.0,0.0,0.0,1.0,91.81711,3.5225)">
 <g fill="rgb(0.0%,0.0%,0.0%)">
 <text style="stroke:none" transform="scale(1,-1) translate(2.5,0)" text-anchor="middle"  font-size="10"> 
1</text> 
</g>
 </g>
 </g>
 </g>
 <g>
 <g>
 <g transform="matrix(1.0,0.0,0.0,1.0,80.6921,-10.36629)">
 <g fill="rgb(0.0%,0.0%,0.0%)">
 <text style="stroke:none" transform="scale(1,-1) translate(13.62502,0)" text-anchor="middle"  font-size="10"> 
Sector</text> 
</g>
 </g>
 </g>
 </g>
 </g>
 <g>
 <g>
 <g transform="matrix(1.0,0.0,0.0,1.0,178.88585,11.34991)">
 <g fill="rgb(0.0%,0.0%,0.0%)">
 <text style="stroke:none" transform="scale(1,-1) translate(2.85764,0)" text-anchor="middle"  font-size="10"> 
x</text> 
</g>
 </g>
 </g>
 </g>
 <g>
 <g>
 <g transform="matrix(1.0,0.0,0.0,1.0,24.1919,167.50739)">
 <g fill="rgb(0.0%,0.0%,0.0%)">
 <text style="stroke:none" transform="scale(1,-1) translate(2.6308,0)" text-anchor="middle"  font-size="10"> 
y</text> 
</g>
 </g>
 </g>
 </g>
 </g>
 </g>
 </g>
 </g>
 </g>
 
                                                </g> 
</svg> 
