<?xml version="1.0" encoding="iso-8859-1" standalone="no"?> 
<?xml-stylesheet href="digInTheSqueezeTheorem.css" type="text/css"?> 
<svg xmlns="http://www.w3.org/2000/svg" xmlns:xlink="http://www.w3.org/1999/xlink" width="413.21193pt" height="185.62717pt" viewBox="-11.94405 -0.60057 413.21193 185.62717 "> 
<g transform="translate(0, 185.0266 ) scale(1,-1) translate(0,0.60057 )"> 
    <g>
 <g stroke="rgb(0.0%,0.0%,0.0%)">
 <g fill="rgb(0.0%,0.0%,0.0%)">
 <g stroke-width="0.4pt">
 <g>
 </g>
 <g>
 <g>
 <g>
 <g stroke-width="1.2pt">
 <g stroke="rgb(0.0%,0.0%,50.0%)">
 <g fill="rgb(0.0%,0.0%,50.0%)">
 <path d=" M  0.0 152.79787 C  0.0 152.79787 0.25673 152.49083 0.35532 152.37206 C  0.4539 152.25328 0.61205 152.06094 0.71063 151.9418 C  0.80922 151.82266 0.96736 151.63342 1.06595 151.5133 C  1.16454 151.39319 1.3227 151.19696 1.42128 151.07597 C  1.51987 150.95499 1.67801 150.76314 1.7766 150.6413 C  1.87518 150.51945 2.03333 150.32083 2.13191 150.19777 C  2.2305 150.0747 2.38866 149.87817 2.48724 149.75426 C  2.58583 149.63034 2.74397 149.42972 2.84256 149.30457 C  2.94115 149.17941 3.09929 148.97784 3.19788 148.8522 C  3.29646 148.72656 3.4546 148.52583 3.55319 148.39897 C  3.65178 148.27211 3.80994 148.06577 3.90852 147.93779 C  4.00711 147.80981 4.16525 147.60532 4.26384 147.47661 C  4.36243 147.3479 4.52057 147.1397 4.61916 147.01013 C  4.71774 146.88057 4.8759 146.67305 4.97449 146.54276 C  5.07307 146.41246 5.23122 146.2025 5.3298 146.07097 C  5.42839 145.93944 5.58653 145.72702 5.68512 145.59476 C  5.7837 145.4625 5.94185 145.25078 6.04044 145.11766 C  6.13902 144.98454 6.29718 144.76938 6.39577 144.63528 C  6.49435 144.50119 6.6525 144.2859 6.75108 144.15114 C  6.84967 144.01637 7.00781 143.79955 7.1064 143.66391 C  7.20499 143.52827 7.36314 143.31012 7.46173 143.17357 C  7.56032 143.03702 7.71846 142.81723 7.81705 142.6797 C  7.91563 142.54218 8.07378 142.32068 8.17236 142.1823 C  8.27095 142.04391 8.42911 141.82155 8.5277 141.68225 C  8.62628 141.54295 8.78442 141.31836 8.88301 141.17833 C  8.9816 141.0383 9.13974 140.81357 9.23833 140.67297 C  9.33691 140.53238 9.49506 140.30656 9.59364 140.165 C  9.69223 140.02342 9.85039 139.79482 9.94897 139.65257 C  10.04756 139.51033 10.2057 139.28299 10.30429 139.13977 C  10.40288 138.99655 10.56102 138.76457 10.6596 138.6203 C  10.7582 138.47603 10.91635 138.24469 11.01494 138.09993 C  11.11353 137.95517 11.27167 137.7226 11.37025 137.57693 C  11.46884 137.43127 11.62698 137.19626 11.72557 137.05011 C  11.82416 136.90396 11.9823 136.67053 12.08089 136.52357 C  12.17947 136.37662 12.33763 136.13867 12.43622 135.99086 C  12.5348 135.84305 12.69295 135.6067 12.79153 135.45815 C  12.89012 135.30959 13.04826 135.0693 13.14685 134.92014 C  13.24544 134.77097 13.4036 134.53278 13.50218 134.383 C  13.60077 134.23322 13.75891 133.99133 13.8575 133.84058 C  13.95609 133.68982 14.11423 133.44754 14.21281 133.29636 C  14.3114 133.14517 14.46956 132.9031 14.56815 132.75095 C  14.66673 132.59879 14.82487 132.35265 14.92346 132.19968 C  15.02205 132.0467 15.18019 131.80186 15.27878 131.6484 C  15.37737 131.49495 15.5355 131.24785 15.6341 131.09366 C  15.73268 130.93947 15.89084 130.69179 15.98943 130.53711 C  16.08801 130.38243 16.24615 130.13419 16.34474 129.97878 C  16.44333 129.82336 16.60147 129.57298 16.70006 129.41692 C  16.79865 129.26085 16.9568 129.01067 17.05539 128.85387 C  17.15398 128.69707 17.31212 128.44435 17.4107 128.28673 C  17.5093 128.1291 17.66743 127.87592 17.76602 127.7178 C  17.86461 127.5597 18.02275 127.30571 18.12134 127.14711 C  18.21992 126.98851 18.37808 126.7335 18.47667 126.57466 C  18.57526 126.41582 18.7334 126.16191 18.83199 126.00221 C  18.93057 125.84251 19.08871 125.5843 19.1873 125.42358 C  19.28589 125.26286 19.44405 125.00502 19.54263 124.84381 C  19.64122 124.6826 19.79936 124.42319 19.89795 124.26164 C  19.99654 124.1001 20.15468 123.84142 20.25327 123.67949 C  20.35185 123.51756 20.51 123.2572 20.60858 123.09454 C  20.70717 122.93188 20.86533 122.67035 20.96391 122.5071 C  21.0625 122.34384 21.22064 122.08185 21.31923 121.91788 C  21.41782 121.7539 21.57596 121.48958 21.67455 121.32524 C  21.77313 121.1609 21.93129 120.8981 22.02988 120.73338 C  22.12846 120.56866 22.2866 120.30345 22.3852 120.138 C  22.48378 119.97255 22.64192 119.70654 22.74051 119.54085 C  22.8391 119.37515 22.99725 119.11 23.09584 118.94368 C  23.19443 118.77736 23.35257 118.50896 23.45116 118.34212 C  23.54974 118.17528 23.70789 117.9084 23.80647 117.7412 C  23.90506 117.57399 24.0632 117.30476 24.16179 117.13698 C  24.26038 116.9692 24.41853 116.70004 24.51712 116.53188 C  24.6157 116.36371 24.77385 116.09367 24.87244 115.9249 C  24.97102 115.75612 25.12917 115.4844 25.22775 115.3154 C  25.32634 115.1464 25.4845 114.8764 25.58308 114.70679 C  25.68167 114.53717 25.83981 114.26299 25.9384 114.09288 C  26.03699 113.92278 26.19513 113.65096 26.29372 113.48073 C  26.3923 113.3105 26.55045 113.03664 26.64903 112.86592 C  26.74762 112.6952 26.90578 112.42133 27.00436 112.25024 C  27.10295 112.07916 27.2611 111.80449 27.35968 111.6328 C  27.45827 111.4611 27.61641 111.18486 27.715 111.01271 C  27.81358 110.84056 27.97174 110.56424 28.07033 110.39197 C  28.16891 110.2197 28.32706 109.94342 28.42564 109.771 C  28.52423 109.59857 28.68237 109.32195 28.78096 109.14915 C  28.87955 108.97636 29.0377 108.6991 29.13629 108.52556 C  29.23488 108.35202 29.39302 108.0724 29.49161 107.89839 C  29.5902 107.72438 29.74834 107.44534 29.84692 107.27135 C  29.94551 107.09735 30.10365 106.8185 30.20224 106.64424 C  30.30083 106.46999 30.45898 106.18997 30.55757 106.01534 C  30.65616 105.8407 30.8143 105.56044 30.91289 105.38556 C  31.01147 105.21068 31.16962 104.92992 31.2682 104.75491 C  31.36679 104.57991 31.52495 104.29955 31.62354 104.12418 C  31.72212 103.9488 31.88026 103.66649 31.97885 103.49088 C  32.07744 103.31526 32.23558 103.03447 32.33417 102.85844 C  32.43275 102.68242 32.5909 102.39853 32.68948 102.22214 C  32.78807 102.04575 32.94623 101.76344 33.04482 101.58708 C  33.1434 101.41072 33.30154 101.12775 33.40013 100.95102 C  33.49872 100.77429 33.65686 100.49028 33.75545 100.31332 C  33.85403 100.13637 34.01219 99.8527 34.11078 99.67563 C  34.20937 99.49855 34.36751 99.21423 34.4661 99.03703 C  34.56468 98.85983 34.72282 98.57568 34.82141 98.39845 C  34.92 98.22122 35.07816 97.9373 35.17674 97.75958 C  35.27533 97.58186 35.43347 97.29555 35.53206 97.1175 C  35.63065 96.93944 35.78879 96.65417 35.88737 96.47624 C  35.98596 96.29831 36.1441 96.01318 36.24269 95.835 C  36.34128 95.65683 36.49944 95.37048 36.59802 95.19203 C  36.69661 95.01358 36.85475 94.72726 36.95334 94.54881 C  37.05193 94.37036 37.21007 94.08401 37.30865 93.90585 C  37.40724 93.72769 37.5654 93.44319 37.66399 93.26465 C  37.76257 93.0861 37.92072 92.79805 38.0193 92.61902 C  38.11789 92.43999 38.27603 92.15318 38.37462 91.97427 C  38.4732 91.79536 38.63135 91.50845 38.72993 91.32953 C  38.82852 91.1506 38.98668 90.86371 39.08527 90.68466 C  39.18385 90.50562 39.342 90.21822 39.44058 90.03906 C  39.53917 89.85991 39.69731 89.57246 39.7959 89.39345 C  39.89449 89.21443 40.05264 88.92764 40.15123 88.74875 C  40.24982 88.56985 40.40796 88.28305 40.50655 88.10403 C  40.60513 87.92502 40.76328 87.63771 40.86186 87.45844 C  40.96045 87.27916 41.11859 86.9912 41.21718 86.81194 C  41.31577 86.63268 41.47392 86.34525 41.57251 86.16635 C  41.6711 85.98746 41.82924 85.70169 41.92783 85.52255 C  42.02641 85.34341 42.18456 85.05458 42.28314 84.8752 C  42.38173 84.69582 42.53989 84.40878 42.63847 84.22966 C  42.73706 84.05054 42.8952 83.76324 42.99379 83.5841 C  43.09238 83.40497 43.25052 83.11755 43.3491 82.93854 C  43.4477 82.75952 43.60585 82.47285 43.70444 82.29385 C  43.80302 82.11485 43.96117 81.82753 44.05975 81.64842 C  44.15834 81.46931 44.31648 81.18188 44.41507 81.00288 C  44.51366 80.82388 44.6718 80.53696 44.77039 80.35823 C  44.86897 80.1795 45.02713 79.89326 45.12572 79.71466 C  45.2243 79.53606 45.38245 79.24965 45.48103 79.07089 C  45.57962 78.89214 45.73776 78.60489 45.83635 78.42625 C  45.93494 78.24762 46.0931 77.96175 46.19168 77.78339 C  46.29027 77.60503 46.44841 77.31897 46.547 77.14075 C  46.64558 76.96252 46.80373 76.67691 46.90231 76.49878 C  47.0009 76.32065 47.15904 76.03493 47.25763 75.8568 C  47.35622 75.67867 47.51437 75.39273 47.61296 75.21489 C  47.71155 75.03705 47.86969 74.75284 47.96828 74.575 C  48.06686 74.39716 48.225 74.11067 48.3236 73.93304 C  48.42218 73.75542 48.58034 73.47182 48.67892 73.29472 C  48.77751 73.11763 48.93565 72.83368 49.03424 72.65659 C  49.13283 72.47949 49.29097 72.19525 49.38956 72.0183 C  49.48814 71.84134 49.6463 71.55775 49.74489 71.38116 C  49.84348 71.20457 50.00162 70.92194 50.1002 70.74554 C  50.19879 70.56915 50.35693 70.28604 50.45552 70.10982 C  50.55411 69.9336 50.71225 69.65161 50.81084 69.47539 C  50.90942 69.29916 51.06758 69.01564 51.16617 68.83968 C  51.26476 68.66371 51.4229 68.38254 51.52148 68.20708 C  51.62007 68.03162 51.77821 67.75008 51.8768 67.57498 C  51.97539 67.39989 52.13354 67.11989 52.23213 66.94502 C  52.33072 66.77016 52.48886 66.48906 52.58745 66.31464 C  52.68604 66.14021 52.84418 65.86198 52.94276 65.6878 C  53.04135 65.51363 53.1995 65.2335 53.29808 65.0592 C  53.39667 64.8849 53.55482 64.60522 53.65341 64.4315 C  53.752 64.25778 53.91014 63.98047 54.00873 63.80711 C  54.10732 63.63376 54.26546 63.35516 54.36404 63.18207 C  54.46263 63.00897 54.62079 62.73222 54.71938 62.5595 C  54.81796 62.38676 54.9761 62.10945 55.07469 61.93712 C  55.17328 61.76479 55.33142 61.48927 55.43001 61.3174 C  55.5286 61.14552 55.68674 60.87009 55.78532 60.69832 C  55.88391 60.52655 56.04207 60.25063 56.14066 60.07939 C  56.23924 59.90816 56.39738 59.63483 56.49597 59.46411 C  56.59456 59.2934 56.7527 59.01941 56.85129 58.84894 C  56.94987 58.67847 57.10803 58.40552 57.20662 58.23538 C  57.3052 58.06525 57.46335 57.79234 57.56194 57.62271 C  57.66052 57.45308 57.81866 57.18176 57.91725 57.01277 C  58.01584 56.84378 58.174 56.5735 58.27258 56.40472 C  58.37117 56.23595 58.52931 55.96458 58.6279 55.79633 C  58.72649 55.62807 58.88463 55.35953 58.98322 55.19193 C  59.0818 55.02432 59.23994 54.7555 59.33853 54.58833 C  59.43712 54.42117 59.59528 54.15387 59.69386 53.98709 C  59.79245 53.82031 59.95059 53.55267 60.04918 53.38628 C  60.14777 53.21988 60.30591 52.95366 60.4045 52.78773 C  60.50308 52.62181 60.66124 52.35574 60.75983 52.19032 C  60.85841 52.0249 61.01656 51.76001 61.11514 51.59547 C  61.21373 51.43094 61.37187 51.1686 61.47046 51.00444 C  61.56905 50.84029 61.72719 50.57648 61.82578 50.4123 C  61.92436 50.24811 62.08252 49.98444 62.1811 49.82101 C  62.2797 49.6576 62.43784 49.39711 62.53642 49.23442 C  62.63501 49.07173 62.79315 48.81058 62.89174 48.64836 C  62.99033 48.48615 63.14848 48.22693 63.24707 48.0652 C  63.34566 47.90347 63.5038 47.64357 63.60239 47.48273 C  63.70097 47.32188 63.85912 47.06601 63.9577 46.90588 C  64.05629 46.74576 64.21445 46.48854 64.31303 46.32863 C  64.41162 46.16872 64.56976 45.91237 64.66835 45.75328 C  64.76694 45.5942 64.92508 45.34041 65.02367 45.18196 C  65.12225 45.02351 65.2804 44.76935 65.37898 44.61125 C  65.47757 44.45316 65.63573 44.19989 65.73431 44.04245 C  65.8329 43.88501 65.99104 43.6332 66.08963 43.4765 C  66.18822 43.31981 66.34636 43.06908 66.44495 42.91309 C  66.54353 42.7571 66.70169 42.50781 66.80028 42.3522 C  66.89886 42.1966 67.057 41.94621 67.1556 41.79152 C  67.25418 41.63683 67.41232 41.39107 67.51091 41.23718 C  67.6095 41.0833 67.76764 40.8354 67.86623 40.6824 C  67.96481 40.5294 68.12297 40.28682 68.22156 40.13443 C  68.32014 39.98204 68.47829 39.73634 68.57687 39.58398 C  68.67546 39.43163 68.8336 39.18755 68.93219 39.03632 C  69.03078 38.88509 69.18893 38.64462 69.28752 38.49402 C  69.38611 38.34341 69.54425 38.10023 69.64284 37.95084 C  69.74142 37.80144 69.89957 37.5658 69.99815 37.41724 C  70.09674 37.26868 70.2549 37.02872 70.35349 36.88011 C  70.45207 36.7315 70.61021 36.49382 70.7088 36.34619 C  70.80739 36.19856 70.96553 35.9632 71.06412 35.81604 C  71.1627 35.66888 71.32085 35.43172 71.41943 35.28555 C  71.51802 35.13939 71.67618 34.90767 71.77477 34.76251 C  71.87335 34.61736 72.0315 34.38368 72.13008 34.23932 C  72.22867 34.09496 72.38681 33.86557 72.4854 33.72194 C  72.58398 33.57831 72.74214 33.34727 72.84073 33.2041 C  72.93932 33.06093 73.09746 32.83197 73.19604 32.69003 C  73.29463 32.5481 73.45277 32.3224 73.55136 32.18109 C  73.64995 32.03978 73.80809 31.81198 73.90668 31.6715 C  74.00526 31.531 74.16342 31.30795 74.26201 31.16852 C  74.3606 31.02908 74.51874 30.8055 74.61732 30.66652 C  74.71591 30.52754 74.87405 30.3049 74.97264 30.16685 C  75.07123 30.02881 75.22939 29.80896 75.32797 29.6715 C  75.42656 29.53403 75.5847 29.3123 75.68329 29.176 C  75.78188 29.03969 75.94002 28.82433 76.0386 28.68903 C  76.13719 28.55373 76.29533 28.33543 76.39392 28.20084 C  76.49251 28.06624 76.65067 27.85202 76.74925 27.71886 C  76.84784 27.5857 77.00598 27.37352 77.10457 27.24107 C  77.20316 27.10863 77.3613 26.8961 77.45988 26.76422 C  77.55847 26.63234 77.71663 26.42157 77.81522 26.2905 C  77.9138 26.15942 78.07195 25.94928 78.17053 25.81947 C  78.26912 25.68967 78.42726 25.48387 78.52585 25.35487 C  78.62444 25.22588 78.7826 25.01776 78.88118 24.8897 C  78.97977 24.76163 79.13791 24.55867 79.2365 24.43181 C  79.33508 24.30495 79.49323 24.10162 79.59181 23.97533 C  79.6904 23.84903 79.84854 23.64662 79.94713 23.5215 C  80.04572 23.39638 80.20387 23.1979 80.30246 23.07349 C  80.40105 22.94907 80.55919 22.748 80.65778 22.62468 C  80.75636 22.50136 80.9145 22.30681 81.01309 22.18463 C  81.11168 22.06245 81.26984 21.86539 81.36842 21.74402 C  81.46701 21.62265 81.62515 21.4299 81.72374 21.30981 C  81.82233 21.18973 81.98047 20.99802 82.07906 20.87843 C  82.17764 20.75885 82.33578 20.56642 82.43437 20.44788 C  82.53296 20.32933 82.69112 20.14154 82.7897 20.024 C  82.88829 19.90646 83.04643 19.71706 83.14502 19.60071 C  83.2436 19.48436 83.40175 19.30013 83.50034 19.18535 C  83.59892 19.07057 83.75708 18.88783 83.85567 18.77338 C  83.95425 18.65892 84.1124 18.47359 84.21098 18.36032 C  84.30957 18.24706 84.46771 18.06921 84.5663 17.95697 C  84.66489 17.84473 84.82304 17.66238 84.92163 17.5513 C  85.02022 17.44022 85.17836 17.2663 85.27695 17.15627 C  85.37553 17.04623 85.53368 16.86703 85.63226 16.75824 C  85.73085 16.64944 85.88899 16.4793 85.98758 16.37204 C  86.08617 16.26479 86.24432 16.0923 86.34291 15.98515 C  86.4415 15.878 86.59964 15.70572 86.69823 15.5998 C  86.79681 15.49387 86.95496 15.32602 87.05354 15.22163 C  87.15213 15.11725 87.31029 14.9506 87.40887 14.84743 C  87.50746 14.74425 87.6656 14.58002 87.76419 14.47797 C  87.86278 14.37592 88.02092 14.21317 88.1195 14.11191 C  88.2181 14.01065 88.37624 13.84834 88.47482 13.74808 C  88.57341 13.64781 88.73157 13.4885 88.83015 13.38916 C  88.92874 13.28983 89.08688 13.12982 89.18547 13.03214 C  89.28406 12.93445 89.4422 12.78152 89.54079 12.68509 C  89.63937 12.58865 89.79753 12.43272 89.89612 12.33699 C  89.9947 12.24126 90.15285 12.08946 90.25143 11.99507 C  90.35002 11.90068 90.50816 11.75008 90.60675 11.65668 C  90.70534 11.56328 90.8635 11.41414 90.96208 11.32188 C  91.06067 11.22963 91.21881 11.08226 91.3174 10.9917 C  91.41599 10.90114 91.57413 10.75833 91.67271 10.66916 C  91.7713 10.57999 91.92944 10.43727 92.02803 10.3489 C  92.12662 10.26054 92.28477 10.11938 92.38336 10.03221 C  92.48195 9.94504 92.64009 9.8062 92.73868 9.7206 C  92.83727 9.635 92.9954 9.4999 93.094 9.41516 C  93.19258 9.33043 93.35074 9.19316 93.44933 9.10983 C  93.54791 9.0265 93.70605 8.89667 93.80464 8.81453 C  93.90323 8.73239 94.06137 8.59901 94.15996 8.5178 C  94.25854 8.4366 94.41669 8.30858 94.51527 8.22914 C  94.61386 8.1497 94.77202 8.02388 94.8706 7.94519 C  94.9692 7.8665 95.12733 7.73952 95.22592 7.66194 C  95.32451 7.58437 95.48265 7.46233 95.58124 7.38603 C  95.67982 7.30974 95.83798 7.18666 95.93657 7.11201 C  96.03516 7.03737 96.1933 6.92134 96.29189 6.84798 C  96.39047 6.77461 96.54861 6.65565 96.6472 6.5832 C  96.74579 6.51076 96.90393 6.3963 97.00252 6.32574 C  97.1011 6.25519 97.25926 6.14403 97.35785 6.0746 C  97.45644 6.00517 97.61458 5.89343 97.71317 5.82529 C  97.81175 5.75714 97.9699 5.65025 98.06848 5.58339 C  98.16707 5.51653 98.32523 5.40872 98.42381 5.3433 C  98.5224 5.2779 98.68054 5.17589 98.77913 5.11183 C  98.87772 5.04778 99.03586 4.94458 99.13445 4.8816 C  99.23303 4.81863 99.39119 4.71933 99.48978 4.65793 C  99.58836 4.59653 99.7465 4.49947 99.8451 4.439 C  99.94368 4.37852 100.10182 4.28127 100.20041 4.22202 C  100.299 4.16277 100.45714 4.0694 100.55573 4.01196 C  100.65431 3.95453 100.81247 3.86404 100.91106 3.80804 C  101.00964 3.75204 101.16779 3.66287 101.26637 3.60828 C  101.36496 3.55368 101.5231 3.46751 101.62169 3.4145 C  101.72028 3.3615 101.87843 3.2776 101.97702 3.22617 C  102.0756 3.17473 102.23375 3.09444 102.33234 3.04373 C  102.43092 2.99303 102.58907 2.91013 102.68765 2.8607 C  102.78624 2.81128 102.94438 2.73474 103.04297 2.68747 C  103.14156 2.6402 103.29971 2.56616 103.3983 2.51999 C  103.49689 2.47382 103.65503 2.3995 103.75362 2.35461 C  103.8522 2.30972 104.01035 2.2402 104.10893 2.19635 C  104.20752 2.1525 104.36568 2.08037 104.46426 2.03851 C  104.56285 1.99666 104.721 1.93448 104.81958 1.89468 C  104.91817 1.85489 105.07631 1.79042 105.1749 1.7516 C  105.27348 1.71278 105.43164 1.6523 105.53023 1.6149 C  105.62881 1.5775 105.78696 1.5182 105.88554 1.48198 C  105.98413 1.44576 106.14227 1.38815 106.24086 1.35376 C  106.33945 1.31937 106.49759 1.26726 106.59618 1.23402 C  106.69476 1.20079 106.85292 1.14615 106.9515 1.11421 C  107.0501 1.08228 107.20824 1.0335 107.30682 1.00375 C  107.40541 0.97401 107.56355 0.92778 107.66214 0.89984 C  107.76073 0.8719 107.91888 0.82904 108.01747 0.80237 C  108.11606 0.7757 108.2742 0.733 108.37279 0.70758 C  108.47137 0.68216 108.62952 0.64238 108.7281 0.61913 C  108.82669 0.59587 108.98483 0.56224 109.08342 0.53987 C  109.182 0.5175 109.34016 0.47858 109.43875 0.45781 C  109.53734 0.43704 109.69548 0.40892 109.79407 0.39014 C  109.89265 0.37135 110.0508 0.33986 110.14938 0.32234 C  110.24797 0.30482 110.40613 0.27908 110.50471 0.26381 C  110.6033 0.24854 110.76144 0.22617 110.86003 0.21219 C  110.95862 0.19821 111.11676 0.17528 111.21535 0.16301 C  111.31393 0.15074 111.47208 0.13454 111.57066 0.12367 C  111.66925 0.11281 111.82741 0.09409 111.926 0.08464 C  112.02458 0.0752 112.18272 0.06276 112.28131 0.05553 C  112.3799 0.0483 112.53804 0.0383 112.63663 0.03242 C  112.73521 0.02655 112.89337 0.01666 112.99196 0.01318 C  113.09055 0.0097 113.24869 0.00911 113.34727 0.0073 C  113.44586 0.00548 113.604 0.00058 113.70259 0.0 C  113.80118 -0.00058 113.95934 0.00192 114.05792 0.00305 C  114.15651 0.00418 114.31465 0.00554 114.41324 0.00815 C  114.51183 0.01076 114.66997 0.0165 114.76855 0.02187 C  114.86714 0.02724 115.02528 0.0404 115.12387 0.04692 C  115.22246 0.05344 115.38062 0.06073 115.4792 0.06892 C  115.57779 0.07712 115.73593 0.09557 115.83452 0.10603 C  115.9331 0.1165 116.09125 0.13312 116.18983 0.14447 C  116.28842 0.15582 116.44658 0.17415 116.54517 0.18787 C  116.64375 0.20158 116.8019 0.22745 116.90048 0.24344 C  116.99907 0.25943 117.15721 0.2851 117.2558 0.30318 C  117.35439 0.32126 117.51253 0.35416 117.61111 0.37378 C  117.7097 0.3934 117.86786 0.42351 117.96645 0.44469 C  118.06503 0.46587 118.22318 0.50311 118.32176 0.52649 C  118.42035 0.54987 118.57849 0.58739 118.67708 0.6132 C  118.77567 0.63902 118.93382 0.6844 119.03241 0.71259 C  119.131 0.74077 119.28914 0.78691 119.38773 0.81636 C  119.48631 0.84581 119.64445 0.89342 119.74304 0.92491 C  119.84163 0.9564 119.99979 1.00967 120.09837 1.04337 C  120.19696 1.07706 120.3551 1.13164 120.45369 1.1678 C  120.55228 1.20396 120.71042 1.26558 120.809 1.30403 C  120.9076 1.34248 121.06573 1.4055 121.16432 1.44504 C  121.26291 1.48457 121.42107 1.54718 121.51965 1.589 C  121.61824 1.63083 121.77638 1.70187 121.87497 1.74652 C  121.97356 1.79117 122.1317 1.86421 122.23029 1.91081 C  122.32887 1.95741 122.48703 2.03397 122.58562 2.08249 C  122.6842 2.13101 122.84235 2.20927 122.94093 2.26057 C  123.03952 2.31187 123.19766 2.39825 123.29625 2.45222 C  123.39484 2.5062 123.55298 2.59445 123.65157 2.6496 C  123.75015 2.70474 123.90831 2.79153 124.0069 2.84975 C  124.10548 2.90796 124.26363 3.00821 124.36221 3.0692 C  124.4608 3.13019 124.61894 3.22624 124.71753 3.28932 C  124.81612 3.3524 124.97427 3.458 125.07286 3.52394 C  125.17145 3.58989 125.32959 3.69624 125.42818 3.76465 C  125.52676 3.83305 125.6849 3.946 125.7835 4.01697 C  125.88208 4.08794 126.04024 4.20326 126.13882 4.27615 C  126.23741 4.34904 126.39555 4.46617 126.49414 4.5424 C  126.59273 4.61864 126.75087 4.74672 126.84946 4.82562 C  126.94804 4.90453 127.10619 5.03003 127.20477 5.11108 C  127.30336 5.19214 127.46152 5.32533 127.5601 5.40987 C  127.65869 5.4944 127.81683 5.6332 127.91542 5.7204 C  128.014 5.8076 128.17215 5.94832 128.27074 6.03845 C  128.36932 6.12859 128.52748 6.27705 128.62607 6.37003 C  128.72466 6.463 128.8828 6.61281 128.98138 6.70859 C  129.07997 6.80437 129.23811 6.96143 129.3367 7.0604 C  129.43529 7.15936 129.59343 7.31999 129.69202 7.42194 C  129.7906 7.52388 129.94876 7.69032 130.04735 7.79524 C  130.14594 7.90016 130.30408 8.0699 130.40266 8.1782 C  130.50125 8.28651 130.6594 8.46408 130.75798 8.57587 C  130.85657 8.68765 131.01472 8.8689 131.11331 8.98398 C  131.2119 9.09906 131.37004 9.28696 131.46863 9.40533 C  131.56721 9.52371 131.72536 9.71535 131.82394 9.83722 C  131.92253 9.95909 132.08067 10.15872 132.17926 10.28374 C  132.27785 10.40875 132.436 10.60927 132.53459 10.73827 C  132.63318 10.86726 132.79132 11.08115 132.88991 11.21356 C  132.9885 11.34598 133.14664 11.5568 133.24522 11.69273 C  133.34381 11.82867 133.50197 12.05344 133.60056 12.19344 C  133.69914 12.33344 133.85728 12.55777 133.95587 12.70175 C  134.05446 12.84573 134.2126 13.08315 134.31119 13.23123 C  134.40977 13.37932 134.56793 13.61745 134.66652 13.76906 C  134.7651 13.92067 134.92325 14.16833 135.02184 14.32399 C  135.12042 14.47964 135.27856 14.73137 135.37715 14.89099 C  135.47574 15.05061 135.63388 15.30974 135.73247 15.47452 C  135.83105 15.6393 135.98921 15.91002 136.0878 16.07864 C  136.18639 16.24727 136.34453 16.51744 136.44312 16.68988 C  136.5417 16.86232 136.69984 17.14418 136.79843 17.32152 C  136.89702 17.49886 137.05518 17.78667 137.15376 17.96811 C  137.25235 18.14955 137.41049 18.44244 137.50908 18.62924 C  137.60767 18.81604 137.76581 19.12344 137.8644 19.3145 C  137.96298 19.50555 138.12112 19.81119 138.21971 20.00632 C  138.3183 20.20145 138.47646 20.5203 138.57504 20.72093 C  138.67363 20.92157 138.83177 21.24695 138.93036 21.45244 C  139.02895 21.65793 139.18709 21.99146 139.28568 22.20201 C  139.38426 22.41257 139.54242 22.75517 139.641 22.97005 C  139.7396 23.18492 139.89774 23.53049 139.99632 23.75078 C  140.09491 23.97107 140.25305 24.33179 140.35164 24.55779 C  140.45023 24.78378 140.60838 25.14934 140.70697 25.37968 C  140.80556 25.61003 140.9637 25.98254 141.06229 26.21806 C  141.16087 26.45358 141.31902 26.83646 141.4176 27.0772 C  141.51619 27.31793 141.67433 27.70723 141.77292 27.95322 C  141.8715 28.1992 142.02966 28.59882 142.12825 28.85014 C  142.22684 29.10147 142.38498 29.50847 142.48357 29.76466 C  142.58215 30.02086 142.7403 30.4351 142.83888 30.69666 C  142.93747 30.9582 143.09563 31.38263 143.19421 31.64975 C  143.2928 31.91687 143.45094 32.34962 143.54953 32.62189 C  143.64812 32.89415 143.80626 33.3351 143.90485 33.6121 C  144.00343 33.88911 144.16158 34.33641 144.26016 34.6184 C  144.35875 34.90038 144.5169 35.35747 144.6155 35.64452 C  144.71408 35.93156 144.87222 36.39568 144.97081 36.68733 C  145.0694 36.97899 145.22754 37.45029 145.32613 37.74658 C  145.42471 38.04288 145.58287 38.52168 145.68146 38.8229 C  145.78004 39.12413 145.93819 39.61258 146.03677 39.91766 C  146.13536 40.22275 146.2935 40.71214 146.39209 41.02184 C  146.49068 41.33153 146.64882 41.83594 146.7474 42.14981 C  146.846 42.46368 147.00414 42.96721 147.10274 43.28404 C  147.20134 43.60088 147.35948 44.11276 147.45807 44.4334 C  147.55666 44.75403 147.7148 45.2715 147.81339 45.595 C  147.91197 45.9185 148.07013 46.43892 148.16872 46.76501 C  148.2673 47.09111 148.42545 47.61694 148.52403 47.9453 C  148.62262 48.27365 148.78076 48.8016 148.87935 49.13164 C  148.97794 49.46167 149.1361 49.9923 149.23468 50.32404 C  149.33327 50.65578 149.49141 51.1897 149.59 51.52269 C  149.68858 51.85568 149.84674 52.39058 149.94533 52.72404 C  150.04391 53.05751 150.20206 53.59322 150.30064 53.92613 C  150.39923 54.25905 150.55739 54.79202 150.65598 55.12349 C  150.75456 55.45496 150.9127 55.98518 151.01129 56.31517 C  151.10988 56.64516 151.26802 57.17322 151.36661 57.50182 C  151.4652 57.83041 151.62335 58.3578 151.72194 58.6835 C  151.82053 59.0092 151.97867 59.52725 152.07726 59.84933 C  152.17584 60.17142 152.334 60.68753 152.43259 61.00493 C  152.53117 61.32233 152.68932 61.82481 152.7879 62.13701 C  152.88649 62.4492 153.04465 62.9474 153.14323 63.25508 C  153.24182 63.56276 153.39996 64.0532 153.49855 64.35464 C  153.59714 64.65608 153.75528 65.13353 153.85387 65.42769 C  153.95245 65.72185 154.11061 66.18878 154.2092 66.47484 C  154.30779 66.7609 154.46593 67.21198 154.56451 67.4894 C  154.6631 67.76682 154.82126 68.20616 154.91985 68.4743 C  155.01843 68.74245 155.17657 69.16394 155.27516 69.42204 C  155.37375 69.68015 155.5319 70.08717 155.6305 70.3346 C  155.72908 70.58202 155.88722 70.96886 155.98581 71.20534 C  156.0844 71.44182 156.24254 71.81383 156.34113 72.03903 C  156.43971 72.26424 156.59787 72.6162 156.69646 72.82852 C  156.79504 73.04085 156.95319 73.36989 157.05177 73.56937 C  157.15036 73.76884 157.30852 74.07973 157.4071 74.26631 C  157.50569 74.4529 157.66383 74.74101 157.76242 74.91414 C  157.86101 75.08727 158.01917 75.35472 158.11775 75.51416 C  158.21634 75.6736 158.37448 75.91827 158.47307 76.0633 C  158.57166 76.20831 158.72981 76.42921 158.8284 76.55943 C  158.92699 76.68965 159.08513 76.88669 159.18372 77.00188 C  159.2823 77.11707 159.44044 77.28975 159.53903 77.38968 C  159.63762 77.48961 159.79578 77.6386 159.89436 77.72215 C  159.99295 77.80571 160.1511 77.92528 160.24968 77.99191 C  160.34827 78.05855 160.50642 78.15381 160.60501 78.2025 C  160.7036 78.25119 160.86174 78.31377 160.96033 78.34294 C  161.05891 78.37212 161.21707 78.40483 161.31566 78.41278 C  161.41425 78.42073 161.57239 78.41638 161.67097 78.40034 C  161.76956 78.38431 161.9277 78.34068 162.02629 78.29715 C  162.12488 78.25362 162.28304 78.16191 162.38162 78.0865 C  162.48021 78.0111 162.63835 77.86665 162.73694 77.75359 C  162.83553 77.64052 162.99368 77.43106 163.09227 77.27156 C  163.19086 77.11206 163.349 76.82031 163.44759 76.604 C  163.54617 76.3877 163.70433 75.99919 163.80292 75.71254 C  163.9015 75.42589 164.05965 74.912 164.15823 74.53793 C  164.25682 74.16386 164.41496 73.49933 164.51355 73.01646 C  164.61214 72.5336 164.77028 71.67352 164.86888 71.05771 C  164.96748 70.4419 165.12563 69.35028 165.22421 68.57806 C  165.3228 67.80585 165.48094 66.44049 165.57953 65.4921 C  165.67812 64.5437 165.83627 62.87105 165.93486 61.74261 C  166.03345 60.61418 166.19159 58.63753 166.29018 57.35904 C  166.38876 56.08055 166.5469 53.87386 166.6455 52.52812 C  166.74408 51.18239 166.90224 48.92113 167.00082 47.65993 C  167.09941 46.39873 167.25755 44.39279 167.35614 43.43817 C  167.45473 42.48355 167.61288 41.17813 167.71147 40.77959 C  167.81006 40.38104 167.9682 40.21513 168.06679 40.56572 C  168.16537 40.9163 168.32353 42.1702 168.42212 43.30641 C  168.5207 44.44263 168.67885 47.00613 168.77744 48.75484 C  168.87602 50.50354 169.03416 53.8877 169.13275 55.90993 C  169.23134 57.93216 169.3895 61.40366 169.48808 63.32973 C  169.58667 65.2558 169.74481 68.21999 169.8434 69.79173 C  169.94199 71.36348 170.10014 73.53513 170.19873 74.65785 C  170.29732 75.78058 170.45546 77.18004 170.55405 77.8836 C  170.65263 78.58717 170.81079 79.37125 170.90938 79.72878 C  171.00797 80.0863 171.1661 80.40375 171.2647 80.46045 C  171.36328 80.51715 171.52142 80.42221 171.62001 80.13745 C  171.7186 79.85269 171.87675 79.21803 171.97534 78.408 C  172.07393 77.59798 172.23207 75.96164 172.33066 74.29924 C  172.42924 72.63684 172.5874 69.0424 172.68599 66.4265 C  172.78458 63.8106 172.94272 57.85185 173.0413 55.44551 C  173.1399 53.03917 173.29805 49.02144 173.39664 49.08319 C  173.49522 49.14494 173.65337 53.0845 173.75195 55.89064 C  173.85054 58.69678 174.0087 66.22823 174.10728 69.30797 C  174.20587 72.38771 174.36401 76.44641 174.4626 78.08736 C  174.56119 79.7283 174.71933 80.82457 174.81792 81.13478 C  174.9165 81.44499 175.07466 81.39261 175.17325 80.3232 C  175.27184 79.25378 175.42998 76.60686 175.52856 73.42719 C  175.62715 70.24751 175.78531 59.47209 175.8839 57.40623 C  175.98248 55.34038 176.14063 55.90811 176.23921 58.53783 C  176.3378 61.16754 176.49596 73.14069 176.59454 76.35942 C  176.69313 79.57816 176.85127 81.60881 176.94986 81.73624 C  177.04845 81.86366 177.30518 77.27792 177.30518 77.27792  " style="fill:none"/>
 </g>
 </g>
 </g>
 </g>
 <g>
 <g stroke-width="1.2pt">
 <g stroke="rgb(0.0%,0.0%,50.0%)">
 <g fill="rgb(0.0%,0.0%,50.0%)">
 <path d=" M  211.31378 94.73694 C  211.31378 94.73694 211.57051 90.04071 211.6691 90.12997 C  211.76768 90.21924 211.92584 92.18835 212.02443 95.38031 C  212.12302 98.57227 212.28116 110.46414 212.37975 113.13538 C  212.47833 115.80661 212.63647 116.65036 212.73508 114.63274 C  212.83368 112.61511 212.9918 101.79152 213.09041 98.59366 C  213.18901 95.3958 213.34715 92.67664 213.44574 91.58478 C  213.54433 90.49292 213.70247 90.42792 213.80106 90.72427 C  213.89964 91.02063 214.05779 92.09648 214.15639 93.7208 C  214.25499 95.34511 214.41313 99.36314 214.51172 102.43123 C  214.6103 105.49931 214.76845 113.00885 214.86703 115.83347 C  214.96562 118.65808 215.12376 122.69223 215.22237 122.78914 C  215.32097 122.88605 215.47911 118.91837 215.5777 116.53194 C  215.67628 114.14551 215.83443 108.21068 215.93301 105.58939 C  216.0316 102.9681 216.18974 99.31804 216.28835 97.63945 C  216.38695 95.96086 216.54507 94.30907 216.64368 93.4912 C  216.74228 92.67332 216.90042 92.0339 216.99901 91.74478 C  217.0976 91.45566 217.25574 91.35411 217.35432 91.40733 C  217.45291 91.46056 217.61107 91.77437 217.70966 92.12843 C  217.80824 92.4825 217.96638 93.2597 218.06497 93.95926 C  218.16356 94.65881 218.3217 96.05257 218.4203 97.17041 C  218.5189 98.28825 218.67703 100.44955 218.77563 102.01598 C  218.87424 103.5824 219.03238 106.53716 219.13097 108.4601 C  219.22955 110.38304 219.3877 113.85257 219.48628 115.87523 C  219.58487 117.89789 219.74301 121.28346 219.84161 123.03806 C  219.94022 124.79265 220.09836 127.37595 220.19695 128.52113 C  220.29553 129.66632 220.45367 130.93263 220.55226 131.29184 C  220.65085 131.65105 220.809 131.50113 220.9076 131.1101 C  221.00618 130.71909 221.16432 129.42288 221.26291 128.47356 C  221.3615 127.52423 221.51964 125.52693 221.61824 124.26794 C  221.71684 123.00896 221.87497 120.74637 221.97357 119.39961 C  222.07217 118.05286 222.2303 115.8416 222.3289 114.56146 C  222.4275 113.28133 222.58565 111.3031 222.68423 110.1732 C  222.78282 109.0433 222.94096 107.36806 223.03955 106.41786 C  223.13814 105.46767 223.2963 104.09872 223.39488 103.32477 C  223.49347 102.55081 223.65161 101.45686 223.7502 100.83969 C  223.84879 100.22252 224.00693 99.36122 224.10553 98.87654 C  224.20413 98.39186 224.36227 97.72179 224.46086 97.34642 C  224.55945 96.97105 224.71759 96.45834 224.81618 96.17114 C  224.91476 95.88394 225.0729 95.49341 225.17151 95.2764 C  225.27011 95.05939 225.42824 94.7671 225.52684 94.60707 C  225.62544 94.44704 225.78358 94.23657 225.88217 94.12296 C  225.98076 94.00934 226.1389 93.86377 226.23749 93.78815 C  226.33607 93.71252 226.49423 93.62158 226.59282 93.57782 C  226.6914 93.53406 226.84955 93.48926 226.94814 93.47267 C  227.04672 93.45609 227.20486 93.45082 227.30347 93.4582 C  227.40207 93.46559 227.5602 93.49683 227.6588 93.526 C  227.7574 93.55518 227.91554 93.61981 228.01413 93.66849 C  228.11272 93.71716 228.27086 93.81055 228.36945 93.87683 C  228.46803 93.94312 228.62617 94.06296 228.72478 94.14622 C  228.82338 94.22949 228.98152 94.37729 229.08011 94.47697 C  229.1787 94.57666 229.33684 94.74954 229.43542 94.86473 C  229.53401 94.97992 229.69217 95.177 229.79076 95.30724 C  229.88934 95.43747 230.04749 95.65843 230.14607 95.80339 C  230.24466 95.94835 230.4028 96.19296 230.5014 96.35207 C  230.6 96.51117 230.75813 96.77734 230.85674 96.95016 C  230.95534 97.12299 231.11346 97.41118 231.21207 97.59767 C  231.31067 97.78416 231.46881 98.09451 231.5674 98.29428 C  231.66599 98.49405 231.82413 98.82513 231.92271 99.03752 C  232.0213 99.24991 232.17946 99.60046 232.27805 99.82503 C  232.37663 100.04959 232.53477 100.41998 232.63336 100.65611 C  232.73195 100.89224 232.89009 101.27953 232.9887 101.52695 C  233.0873 101.77437 233.24544 102.18103 233.34402 102.43939 C  233.44261 102.69775 233.60075 103.12105 233.69934 103.38913 C  233.79793 103.65721 233.95607 104.0945 234.05467 104.37155 C  234.15327 104.6486 234.3114 105.09991 234.41 105.38597 C  234.5086 105.67203 234.66675 106.13911 234.76534 106.43329 C  234.86392 106.72746 235.02206 107.20529 235.12065 107.50624 C  235.21924 107.80719 235.3774 108.29517 235.47598 108.60239 C  235.57457 108.9096 235.73271 109.40787 235.8313 109.72047 C  235.92989 110.03308 236.08803 110.53787 236.18663 110.8555 C  236.28523 111.17313 236.44336 111.68834 236.54196 112.00977 C  236.64056 112.33119 236.7987 112.84692 236.8973 113.17216 C  236.99588 113.4974 237.15402 114.02486 237.25261 114.35388 C  237.3512 114.6829 237.50934 115.21306 237.60794 115.54364 C  237.70654 115.87422 237.86469 116.40434 237.96327 116.73659 C  238.06186 117.06883 238.22 117.6054 238.31859 117.93823 C  238.41718 118.27107 238.57533 118.80315 238.67392 119.13556 C  238.7725 119.46797 238.93065 120.00108 239.02924 120.3341 C  239.12782 120.66713 239.28596 121.20369 239.38457 121.53577 C  239.48317 121.86784 239.6413 122.3976 239.7399 122.72751 C  239.8385 123.05742 239.99663 123.58528 240.09523 123.91354 C  240.19383 124.2418 240.35197 124.7676 240.45056 125.0934 C  240.54915 125.4192 240.70729 125.93817 240.80588 126.26178 C  240.90446 126.58539 241.06262 127.10489 241.16121 127.42584 C  241.2598 127.7468 241.41794 128.25757 241.51653 128.57509 C  241.61511 128.89261 241.77325 129.40096 241.87186 129.7144 C  241.97046 130.02785 242.1286 130.52559 242.22719 130.8342 C  242.32578 131.1428 242.48392 131.63322 242.5825 131.93874 C  242.68109 132.24425 242.83925 132.73442 242.93784 133.03615 C  243.03642 133.33788 243.19456 133.81686 243.29315 134.11348 C  243.39174 134.4101 243.5499 134.88231 243.64848 135.17401 C  243.74707 135.46571 243.90521 135.92894 244.0038 136.21594 C  244.10239 136.50294 244.26053 136.96048 244.35912 137.2426 C  244.4577 137.52472 244.61586 137.9722 244.71445 138.2493 C  244.81303 138.5264 244.97118 138.9677 245.06976 139.23982 C  245.16835 139.51195 245.32649 139.94371 245.42508 140.21065 C  245.52367 140.47758 245.68181 140.9019 245.7804 141.1638 C  245.87898 141.4257 246.03714 141.84209 246.13573 142.0983 C  246.23431 142.3545 246.39246 142.75945 246.49104 143.01045 C  246.58963 143.26146 246.74777 143.66124 246.84636 143.90746 C  246.94495 144.15367 247.1031 144.54395 247.20169 144.78502 C  247.30028 145.0261 247.45842 145.40929 247.557 145.64496 C  247.6556 145.88063 247.81374 146.25323 247.91232 146.48361 C  248.01091 146.71399 248.16905 147.07932 248.26764 147.30542 C  248.36623 147.53152 248.52438 147.89333 248.62297 148.11333 C  248.72156 148.33333 248.8797 148.67644 248.97829 148.89107 C  249.07687 149.1057 249.23502 149.4498 249.3336 149.66023 C  249.43219 149.87067 249.59035 150.20192 249.68893 150.40775 C  249.78752 150.61357 249.94566 150.94234 250.04425 151.14375 C  250.14284 151.34517 250.30098 151.66418 250.39957 151.8595 C  250.49815 152.05481 250.65631 152.36038 250.7549 152.55145 C  250.85349 152.74252 251.01163 153.05037 251.11021 153.23671 C  251.2088 153.42305 251.36694 153.71333 251.46553 153.89453 C  251.56412 154.07573 251.72226 154.36516 251.82085 154.5427 C  251.91943 154.72023 252.07759 155.00131 252.17618 155.17416 C  252.27477 155.34702 252.4329 155.62007 252.5315 155.78851 C  252.63008 155.95695 252.78822 156.22403 252.88681 156.38828 C  252.9854 156.55252 253.14355 156.81235 253.24214 156.97235 C  253.34073 157.13235 253.49887 157.38557 253.59746 157.54147 C  253.69604 157.69737 253.85419 157.94415 253.95277 158.09605 C  254.05136 158.24796 254.2095 158.48828 254.30809 158.63635 C  254.40668 158.78442 254.56483 159.01958 254.66342 159.1633 C  254.76201 159.30702 254.92015 159.53192 255.01874 159.67224 C  255.11732 159.81256 255.27547 160.03845 255.37405 160.17464 C  255.47264 160.31082 255.6308 160.52138 255.72939 160.6538 C  255.82797 160.78621 255.98611 161.00017 256.0847 161.12906 C  256.18329 161.25795 256.34143 161.45778 256.44002 161.58281 C  256.5386 161.70784 256.69675 161.90839 256.79533 162.03027 C  256.89392 162.15216 257.05208 162.34293 257.15067 162.46135 C  257.24925 162.57977 257.4074 162.76859 257.50598 162.88382 C  257.60457 162.99905 257.76271 163.18056 257.8613 163.29193 C  257.95988 163.4033 258.11804 163.57794 258.21663 163.68655 C  258.31522 163.79517 258.47336 163.9692 258.57195 164.07474 C  258.67053 164.18028 258.82867 164.34538 258.92726 164.44727 C  259.02585 164.54915 259.184 164.71022 259.2826 164.80908 C  259.38118 164.90794 259.53932 165.06407 259.63791 165.1598 C  259.7365 165.25554 259.89464 165.40604 259.99323 165.49911 C  260.09181 165.5922 260.24995 165.74074 260.34854 165.83069 C  260.44713 165.92064 260.60529 166.06024 260.70387 166.14743 C  260.80246 166.23462 260.9606 166.37437 261.05919 166.45914 C  261.15778 166.5439 261.31592 166.67744 261.4145 166.75838 C  261.51309 166.83931 261.67125 166.96356 261.76984 167.04254 C  261.86842 167.12152 262.02657 167.25162 262.12515 167.32768 C  262.22374 167.40375 262.38188 167.51836 262.48047 167.59082 C  262.57906 167.66328 262.7372 167.77869 262.83578 167.85004 C  262.93437 167.92139 263.09253 168.03673 263.19112 168.10515 C  263.2897 168.17357 263.44785 168.27768 263.54643 168.34317 C  263.64502 168.40866 263.80316 168.51382 263.90175 168.57718 C  264.00034 168.64053 264.1585 168.73843 264.25708 168.79985 C  264.35567 168.86127 264.51381 168.96126 264.6124 169.01984 C  264.71098 169.07841 264.86913 169.1668 264.96771 169.22212 C  265.0663 169.27745 265.22446 169.36493 265.32304 169.41864 C  265.42163 169.47235 265.57977 169.55829 265.67836 169.6093 C  265.77695 169.66031 265.93509 169.73766 266.03368 169.78632 C  266.13226 169.83498 266.2904 169.91368 266.38899 169.96007 C  266.48758 170.00645 266.64574 170.07635 266.74432 170.12073 C  266.84291 170.1651 267.00105 170.23749 267.09964 170.27994 C  267.19823 170.32239 267.35637 170.38704 267.45496 170.42668 C  267.55354 170.46632 267.7117 170.52768 267.81029 170.56575 C  267.90887 170.60382 268.06702 170.6647 268.1656 170.70113 C  268.26419 170.73755 268.42233 170.79414 268.52092 170.82834 C  268.6195 170.86253 268.77765 170.9164 268.87624 170.94766 C  268.97482 170.97893 269.13298 171.02455 269.23157 171.05371 C  269.33015 171.08287 269.4883 171.12979 269.58688 171.15784 C  269.68547 171.18588 269.84361 171.22995 269.9422 171.25594 C  270.04079 171.28192 270.19894 171.32164 270.29753 171.34523 C  270.39612 171.36882 270.55426 171.40485 270.65285 171.42603 C  270.75143 171.4472 270.90958 171.47853 271.00816 171.49794 C  271.10675 171.51735 271.26491 171.54819 271.3635 171.56595 C  271.46208 171.58371 271.62022 171.6097 271.71881 171.62604 C  271.8174 171.64238 271.97554 171.6698 272.07413 171.68384 C  272.17271 171.69788 272.33086 171.7159 272.42944 171.72725 C  272.52803 171.7386 272.68619 171.7551 272.78477 171.76569 C  272.88336 171.77628 273.0415 171.79546 273.14009 171.80365 C  273.23868 171.81184 273.39682 171.8186 273.4954 171.82478 C  273.594 171.83096 273.75215 171.84286 273.85074 171.84822 C  273.94933 171.85358 274.10747 171.86024 274.20605 171.86343 C  274.30464 171.86662 274.46278 171.8701 274.56137 171.87125 C  274.65996 171.87239 274.8181 171.87267 274.91669 171.87172 C  275.01527 171.87077 275.17343 171.86617 275.27202 171.86433 C  275.3706 171.8625 275.52875 171.86198 275.62733 171.85852 C  275.72592 171.85506 275.88406 171.84508 275.98265 171.83928 C  276.08124 171.83348 276.2394 171.82413 276.33798 171.81671 C  276.43657 171.8093 276.59471 171.79517 276.6933 171.7858 C  276.79189 171.77643 276.95003 171.7597 277.04861 171.74913 C  277.1472 171.73856 277.30534 171.72198 277.40393 171.70956 C  277.50252 171.69714 277.66068 171.67372 277.75926 171.65956 C  277.85785 171.6454 278.01599 171.62265 278.11458 171.6075 C  278.21317 171.59235 278.3713 171.56747 278.4699 171.55025 C  278.56848 171.53302 278.72664 171.50238 278.82523 171.48332 C  278.92381 171.46426 279.08195 171.43346 279.18054 171.41281 C  279.27913 171.39217 279.43727 171.35655 279.53586 171.33446 C  279.63445 171.31236 279.7926 171.27722 279.89119 171.25346 C  279.98978 171.2297 280.14792 171.18857 280.2465 171.16315 C  280.3451 171.13773 280.50323 171.09651 280.60182 171.07022 C  280.70041 171.04393 280.85855 171.00168 280.95714 170.97362 C  281.05573 170.94556 281.21388 170.89781 281.31247 170.86795 C  281.41106 170.83809 281.5692 170.78993 281.66779 170.75836 C  281.76637 170.72679 281.92451 170.67328 282.0231 170.6403 C  282.12169 170.60733 282.27985 170.55545 282.37843 170.52069 C  282.47702 170.48593 282.63516 170.42563 282.73375 170.38972 C  282.83234 170.35382 282.99048 170.2991 283.08907 170.26183 C  283.18765 170.22455 283.3458 170.16023 283.44438 170.12097 C  283.54297 170.08171 283.70113 170.01846 283.79971 169.97879 C  283.8983 169.93912 284.05644 169.87666 284.15503 169.83493 C  284.25362 169.7932 284.41176 169.7219 284.51035 169.67792 C  284.60893 169.63394 284.76709 169.56276 284.86568 169.51796 C  284.96426 169.47316 285.1224 169.40114 285.221 169.35497 C  285.31958 169.30879 285.47772 169.23247 285.57631 169.18512 C  285.6749 169.13777 285.83305 169.06293 285.93164 169.01363 C  286.03023 168.96432 286.18837 168.88043 286.28696 168.82973 C  286.38554 168.77902 286.54369 168.6996 286.64227 168.64816 C  286.74086 168.59673 286.899 168.51196 286.99759 168.45895 C  287.09618 168.40594 287.25433 168.32033 287.35292 168.26607 C  287.4515 168.2118 287.60965 168.12386 287.70824 168.06781 C  287.80682 168.01176 287.96497 167.9196 288.06355 167.86208 C  288.16214 167.80455 288.3203 167.7124 288.41888 167.6532 C  288.51747 167.594 288.67561 167.49556 288.7742 167.43533 C  288.87279 167.3751 289.03093 167.28049 289.12952 167.21909 C  289.2281 167.15768 289.38625 167.05608 289.48483 166.99274 C  289.58342 166.9294 289.74158 166.82663 289.84016 166.7625 C  289.93875 166.69836 290.0969 166.5961 290.19548 166.53044 C  290.29407 166.46478 290.45221 166.35588 290.5508 166.28918 C  290.64938 166.22249 290.80754 166.11754 290.90613 166.04964 C  291.00471 165.98174 291.16286 165.86928 291.26144 165.79973 C  291.36003 165.73018 291.51817 165.61884 291.61676 165.54828 C  291.71535 165.47772 291.87349 165.3633 291.97208 165.29114 C  292.07066 165.21898 292.22882 165.10136 292.32741 165.02812 C  292.426 164.95488 292.58414 164.83797 292.68272 164.7632 C  292.78131 164.68843 292.93945 164.56532 293.03804 164.48915 C  293.13663 164.41298 293.29478 164.29184 293.39337 164.21414 C  293.49196 164.13644 293.6501 164.00815 293.74869 163.92914 C  293.84727 163.85013 294.00542 163.72408 294.104 163.64464 C  294.20259 163.5652 294.36075 163.43765 294.45934 163.35652 C  294.55792 163.27539 294.71606 163.14197 294.81465 163.05983 C  294.91324 162.97769 295.07138 162.84766 295.16997 162.76453 C  295.26855 162.6814 295.4267 162.54509 295.52528 162.4606 C  295.62387 162.37611 295.78203 162.24117 295.88062 162.15549 C  295.9792 162.06981 296.13734 161.93042 296.23593 161.843 C  296.33452 161.75558 296.49266 161.61368 296.59125 161.52544 C  296.68983 161.4372 296.84799 161.29611 296.94658 161.20694 C  297.04517 161.11777 297.20331 160.97345 297.3019 160.88264 C  297.40048 160.79184 297.55862 160.64471 297.65721 160.55246 C  297.7558 160.4602 297.91394 160.31082 298.01253 160.21767 C  298.11111 160.12451 298.26927 159.97517 298.36786 159.88104 C  298.46645 159.78691 298.62459 159.63486 298.72318 159.53912 C  298.82176 159.44339 298.9799 159.2877 299.07849 159.19101 C  299.17708 159.09431 299.33524 158.94 299.43382 158.84221 C  299.53241 158.74442 299.69055 158.58528 299.78914 158.48608 C  299.88773 158.38689 300.04587 158.22737 300.14445 158.12721 C  300.24304 158.02705 300.4012 157.86522 300.49979 157.76419 C  300.59837 157.66316 300.75652 157.50119 300.8551 157.39903 C  300.95369 157.29688 301.11183 157.13145 301.21042 157.0278 C  301.309 156.92415 301.46715 156.75618 301.56573 156.65192 C  301.66432 156.54765 301.82248 156.38202 301.92107 156.27632 C  302.01965 156.17062 302.1778 155.99734 302.27638 155.89008 C  302.37497 155.7828 302.53311 155.61058 302.6317 155.50319 C  302.73029 155.3958 302.88844 155.22464 302.98703 155.11607 C  303.08562 155.0075 303.24376 154.83061 303.34235 154.72072 C  303.44093 154.61082 303.59908 154.43513 303.69766 154.32393 C  303.79625 154.21272 303.95439 154.03163 304.05298 153.91914 C  304.15157 153.80666 304.30972 153.6264 304.40831 153.51314 C  304.5069 153.39987 304.66504 153.21684 304.76363 153.10275 C  304.86221 152.98866 305.02036 152.80553 305.11894 152.69075 C  305.21753 152.57597 305.37569 152.39185 305.47427 152.2755 C  305.57286 152.15915 305.731 151.96954 305.82959 151.85211 C  305.92818 151.73468 306.08632 151.54779 306.1849 151.42912 C  306.2835 151.31046 306.44165 151.11626 306.54024 150.9968 C  306.63882 150.87733 306.79697 150.688 306.89555 150.56804 C  306.99414 150.44807 307.15228 150.25371 307.25087 150.1321 C  307.34946 150.01048 307.5076 149.81366 307.60619 149.69148 C  307.70477 149.5693 307.86293 149.37465 307.96152 149.25145 C  308.0601 149.12825 308.21825 148.92783 308.31683 148.80351 C  308.41542 148.6792 308.57356 148.4806 308.67215 148.35548 C  308.77074 148.23036 308.9289 148.02809 309.02748 147.90167 C  309.12607 147.77525 309.28421 147.57118 309.3828 147.44432 C  309.48138 147.31746 309.63953 147.115 309.73811 146.9873 C  309.8367 146.8596 309.99484 146.65288 310.09343 146.52388 C  310.19202 146.39488 310.35017 146.18758 310.44876 146.05753 C  310.54735 145.92747 310.70549 145.71758 310.80408 145.5865 C  310.90266 145.45543 311.0608 145.24442 311.1594 145.11278 C  311.25798 144.98114 311.41614 144.77013 311.51472 144.63768 C  311.61331 144.50523 311.77145 144.29153 311.87004 144.15813 C  311.96863 144.02472 312.12677 143.81087 312.22536 143.67615 C  312.32394 143.54143 312.48209 143.32265 312.58067 143.1871 C  312.67926 143.05156 312.83742 142.83542 312.936 142.69923 C  313.03459 142.56305 313.19273 142.34271 313.29132 142.20549 C  313.38991 142.06827 313.54805 141.84808 313.64664 141.71016 C  313.74522 141.57224 313.90338 141.35022 314.00197 141.21136 C  314.10056 141.07251 314.2587 140.84892 314.35728 140.70937 C  314.45587 140.56981 314.61401 140.346 314.7126 140.2055 C  314.81119 140.06502 314.96935 139.8381 315.06793 139.6968 C  315.16652 139.55548 315.32466 139.32904 315.42325 139.18698 C  315.52184 139.04492 315.67998 138.81595 315.77856 138.6729 C  315.87715 138.52985 316.0353 138.29959 316.13388 138.15596 C  316.23247 138.01233 316.39063 137.78218 316.48921 137.63768 C  316.5878 137.49318 316.74594 137.25964 316.84453 137.11449 C  316.94312 136.96933 317.10126 136.73761 317.19984 136.59145 C  317.29843 136.44528 317.45659 136.20811 317.55518 136.06096 C  317.65376 135.9138 317.8119 135.67831 317.91049 135.5308 C  318.00908 135.3833 318.16722 135.14638 318.26581 134.99777 C  318.3644 134.84917 318.52254 134.60857 318.62112 134.45976 C  318.71971 134.31096 318.87787 134.07443 318.97646 133.9253 C  319.07504 133.77615 319.23318 133.53525 319.33177 133.38477 C  319.43036 133.23428 319.5885 132.99191 319.68709 132.84068 C  319.78568 132.68945 319.94383 132.44688 320.04242 132.29477 C  320.141 132.14265 320.29915 131.89696 320.39774 131.74432 C  320.49632 131.59169 320.65446 131.34784 320.75305 131.1946 C  320.85164 131.04135 321.0098 130.7937 321.10838 130.63982 C  321.20697 130.48593 321.36511 130.24017 321.4637 130.08548 C  321.56229 129.93079 321.72043 129.6803 321.81902 129.52481 C  321.9176 129.36932 322.07574 129.12067 322.17433 128.9648 C  322.27292 128.80893 322.43108 128.55832 322.52966 128.40138 C  322.62825 128.24445 322.78639 127.991 322.88498 127.83368 C  322.98357 127.67636 323.14171 127.42549 323.2403 127.26752 C  323.33888 127.10954 323.49704 126.85349 323.59563 126.69504 C  323.69421 126.53659 323.85236 126.28433 323.95094 126.12549 C  324.04953 125.96664 324.20767 125.71007 324.30626 125.55016 C  324.40485 125.39024 324.56299 125.13338 324.66158 124.97289 C  324.76016 124.8124 324.91832 124.55449 325.0169 124.3934 C  325.1155 124.23232 325.27364 123.9733 325.37222 123.81181 C  325.47081 123.65033 325.62895 123.39172 325.72754 123.2295 C  325.82613 123.06729 325.98428 122.8054 326.08287 122.6426 C  326.18146 122.47978 326.3396 122.21928 326.43819 122.05598 C  326.53677 121.89268 326.69492 121.62941 326.7935 121.46559 C  326.89209 121.30177 327.05023 121.03925 327.14882 120.87521 C  327.2474 120.71118 327.40556 120.44807 327.50415 120.2833 C  327.60274 120.11852 327.76088 119.85323 327.85947 119.68756 C  327.95805 119.5219 328.1162 119.25508 328.21478 119.08928 C  328.31337 118.92348 328.47153 118.65865 328.57011 118.4925 C  328.6687 118.32634 328.82684 118.05846 328.92543 117.89168 C  329.02402 117.7249 329.18216 117.45784 329.28075 117.29044 C  329.37933 117.12303 329.53749 116.85294 329.63608 116.68509 C  329.73466 116.51724 329.8928 116.24883 329.9914 116.08067 C  330.08998 115.91252 330.24812 115.64182 330.34671 115.47316 C  330.4453 115.3045 330.60344 115.03423 330.70203 114.86511 C  330.80061 114.696 330.95877 114.42404 331.05736 114.25429 C  331.15594 114.08453 331.31409 113.81163 331.41267 113.64163 C  331.51126 113.47163 331.6694 113.19943 331.76799 113.02896 C  331.86658 112.85849 332.02473 112.58372 332.12332 112.41289 C  332.22191 112.24205 332.38005 111.96872 332.47864 111.7976 C  332.57722 111.6265 332.73537 111.35106 332.83395 111.17955 C  332.93254 111.00804 333.09068 110.73338 333.18927 110.56139 C  333.28786 110.38939 333.44601 110.11247 333.5446 109.9399 C  333.64319 109.76732 333.80133 109.48988 333.89992 109.31752 C  333.9985 109.14516 334.15665 108.87056 334.25523 108.69759 C  334.35382 108.52461 334.51198 108.24438 334.61057 108.07079 C  334.70915 107.89719 334.8673 107.62012 334.96588 107.4464 C  335.06447 107.27267 335.22261 106.99286 335.3212 106.81868 C  335.41978 106.6445 335.57794 106.36528 335.67653 106.19098 C  335.77512 106.01668 335.93326 105.73679 336.03185 105.56236 C  336.13043 105.38794 336.28857 105.10838 336.38716 104.93376 C  336.48575 104.75914 336.64389 104.47902 336.74248 104.30379 C  336.84106 104.12856 336.99922 103.8464 337.09781 103.6708 C  337.1964 103.49521 337.35454 103.21391 337.45313 103.0382 C  337.55171 102.86247 337.70985 102.58035 337.80844 102.40425 C  337.90703 102.22815 338.06519 101.94531 338.16377 101.76897 C  338.26236 101.59262 338.4205 101.30988 338.51909 101.13324 C  338.61768 100.9566 338.77582 100.67244 338.8744 100.49585 C  338.97299 100.31926 339.13113 100.0372 339.22972 99.86049 C  339.32831 99.68378 339.48647 99.3994 339.58505 99.22218 C  339.68364 99.04497 339.84178 98.7604 339.94037 98.58318 C  340.03896 98.40594 340.1971 98.12227 340.29568 97.94476 C  340.39427 97.76726 340.55243 97.48149 340.65102 97.30377 C  340.7496 97.12605 340.90775 96.84184 341.00633 96.66388 C  341.10492 96.48592 341.26306 96.19923 341.36165 96.0211 C  341.46024 95.84297 341.6184 95.55814 341.71698 95.38 C  341.81557 95.20187 341.97371 94.91551 342.0723 94.73715 C  342.17088 94.55879 342.32903 94.27286 342.42761 94.0945 C  342.5262 93.91614 342.68434 93.6299 342.78293 93.45163 C  342.88152 93.27336 343.03967 92.98816 343.13826 92.80965 C  343.23685 92.63113 343.39499 92.34398 343.49358 92.16501 C  343.59216 91.98604 343.7503 91.69852 343.84889 91.51967 C  343.94748 91.34082 344.10564 91.05478 344.20422 90.8759 C  344.30281 90.69702 344.46095 90.40945 344.55954 90.23035 C  344.65813 90.05124 344.81627 89.76402 344.91486 89.58492 C  345.01344 89.4058 345.17159 89.1185 345.27017 88.93936 C  345.36876 88.76022 345.52692 88.47281 345.6255 88.2938 C  345.72409 88.11478 345.88223 87.82825 345.98082 87.64911 C  346.0794 87.46997 346.23755 87.18207 346.33614 87.00269 C  346.43472 86.8233 346.59288 86.53525 346.69147 86.35623 C  346.79005 86.17722 346.9482 85.89131 347.04678 85.71242 C  347.14537 85.53352 347.30351 85.24623 347.4021 85.06685 C  347.50069 84.88747 347.65883 84.59886 347.75742 84.41946 C  347.856 84.24007 348.01416 83.95276 348.11275 83.77386 C  348.21133 83.59497 348.36948 83.30917 348.46806 83.13004 C  348.56665 82.9509 348.7248 82.66182 348.82338 82.48267 C  348.92197 82.30351 349.08012 82.01772 349.17871 81.83882 C  349.2773 81.65993 349.43544 81.37228 349.53403 81.19324 C  349.63261 81.01419 349.79076 80.72728 349.88934 80.54836 C  349.98793 80.36943 350.14609 80.08253 350.24467 79.90363 C  350.34326 79.72472 350.5014 79.43777 350.59999 79.25887 C  350.69858 79.07996 350.85672 78.79256 350.9553 78.61414 C  351.0539 78.43571 351.21204 78.15135 351.31062 77.97293 C  351.40921 77.79451 351.56737 77.50664 351.66595 77.32819 C  351.76454 77.14973 351.92268 76.86496 352.02127 76.68675 C  352.11986 76.50854 352.278 76.22194 352.37659 76.04376 C  352.47517 75.86559 352.63333 75.58061 352.73192 75.40256 C  352.8305 75.2245 352.98865 74.93822 353.08723 74.7604 C  353.18582 74.5826 353.34396 74.29855 353.44255 74.12096 C  353.54114 73.94336 353.69928 73.6578 353.79787 73.48033 C  353.89645 73.30286 354.05461 73.01907 354.1532 72.84175 C  354.25179 72.66443 354.40993 72.37935 354.50851 72.20227 C  354.6071 72.02519 354.76524 71.74228 354.86383 71.56544 C  354.96242 71.38861 355.12057 71.10448 355.21916 70.92775 C  355.31775 70.75102 355.47589 70.4683 355.57448 70.2917 C  355.67307 70.1151 355.8312 69.83127 355.9298 69.65488 C  356.02838 69.47849 356.18654 69.1961 356.28513 69.02032 C  356.38371 68.84454 356.54185 68.56352 356.64044 68.38791 C  356.73903 68.2123 356.89717 67.93022 356.99576 67.75461 C  357.09435 67.579 357.25249 67.2971 357.35107 67.1221 C  357.44966 66.9471 357.60782 66.66797 357.7064 66.49323 C  357.805 66.31848 357.96313 66.03732 358.06172 65.86256 C  358.16031 65.6878 358.31845 65.40805 358.41704 65.23366 C  358.51563 65.05927 358.67378 64.77979 358.77237 64.60565 C  358.87096 64.43152 359.0291 64.15225 359.12769 63.9786 C  359.22627 63.80496 359.38441 63.52753 359.483 63.35411 C  359.58159 63.1807 359.73973 62.90192 359.83832 62.72874 C  359.9369 62.55557 360.09506 62.27856 360.19365 62.106 C  360.29224 61.93344 360.45038 61.6573 360.54897 61.48503 C  360.64755 61.31276 360.8057 61.03622 360.90428 60.86432 C  361.00287 60.69241 361.16103 60.41719 361.25961 60.24599 C  361.3582 60.07478 361.51634 59.80164 361.61493 59.6303 C  361.71352 59.45895 361.87166 59.18204 361.97025 59.01108 C  362.06883 58.84012 362.22699 58.56828 362.32558 58.39806 C  362.42416 58.22783 362.5823 57.95438 362.6809 57.78415 C  362.77948 57.61392 362.93762 57.34048 363.03621 57.17111 C  363.1348 57.00174 363.29294 56.73227 363.39153 56.56339 C  363.49011 56.3945 363.64827 56.12265 363.74686 55.95387 C  363.84544 55.7851 364.00359 55.51506 364.10217 55.3469 C  364.20076 55.17873 364.3589 54.90959 364.45749 54.7418 C  364.55608 54.57402 364.71423 54.30492 364.81282 54.13759 C  364.9114 53.97026 365.06955 53.70262 365.16814 53.53578 C  365.26672 53.36894 365.42487 53.10153 365.52345 52.93509 C  365.62204 52.76865 365.78018 52.50186 365.87877 52.33617 C  365.97736 52.17047 366.13551 51.90598 366.2341 51.74077 C  366.33269 51.57556 366.49083 51.3101 366.58942 51.14539 C  366.688 50.98067 366.84615 50.71812 366.94473 50.55354 C  367.04332 50.38896 367.20148 50.1231 367.30006 49.95912 C  367.39865 49.79515 367.5568 49.53493 367.65538 49.37167 C  367.75397 49.20842 367.91211 48.94524 368.0107 48.78246 C  368.10928 48.61967 368.26743 48.36032 368.36601 48.1984 C  368.4646 48.03647 368.62276 47.7769 368.72134 47.61536 C  368.81993 47.45381 368.97807 47.19505 369.07666 47.03409 C  369.17525 46.87312 369.33339 46.6158 369.43198 46.4552 C  369.53056 46.2946 369.68872 46.03639 369.78731 45.87657 C  369.8859 45.71675 370.04404 45.46245 370.14262 45.30324 C  370.24121 45.14403 370.39935 44.8876 370.49794 44.729 C  370.59653 44.5704 370.75468 44.31784 370.85327 44.1601 C  370.95186 44.00235 371.11 43.74979 371.20859 43.59204 C  371.30717 43.4343 371.46532 43.18018 371.5639 43.02313 C  371.66249 42.86609 371.82063 42.6159 371.91922 42.46008 C  372.0178 42.30426 372.17596 42.05516 372.27455 41.9 C  372.37314 41.74483 372.53128 41.4966 372.62987 41.34167 C  372.72845 41.18675 372.8866 40.93779 372.98518 40.78336 C  373.08377 40.62892 373.24193 40.38205 373.34052 40.22859 C  373.4391 40.07513 373.59724 39.83018 373.69583 39.67734 C  373.79442 39.52449 373.95256 39.27887 374.05115 39.12695 C  374.14973 38.97504 374.30788 38.7337 374.40646 38.58241 C  374.50505 38.43112 374.66321 38.18733 374.7618 38.03645 C  374.86038 37.88557 375.01852 37.64455 375.11711 37.49489 C  375.2157 37.34523 375.37384 37.10692 375.47243 36.95775 C  375.57101 36.80858 375.72917 36.56844 375.82776 36.41975 C  375.92635 36.27107 376.08449 36.03409 376.18307 35.88614 C  376.28166 35.73819 376.4398 35.50038 376.53839 35.35342 C  376.63698 35.20647 376.79514 34.97304 376.89372 34.82689 C  376.99231 34.68074 377.15045 34.44585 377.24904 34.30008 C  377.34763 34.15431 377.50577 33.92084 377.60435 33.7762 C  377.70294 33.63156 377.86108 33.40175 377.95967 33.2576 C  378.05826 33.11345 378.21642 32.88057 378.315 32.73723 C  378.41359 32.59389 378.57173 32.36656 378.67032 32.22444 C  378.7689 32.08232 378.92705 31.85435 379.02563 31.7129 C  379.12422 31.57146 379.28238 31.34564 379.38097 31.20493 C  379.47955 31.06421 379.6377 30.83884 379.73628 30.69868 C  379.83487 30.55853 379.99301 30.33408 380.0916 30.19478 C  380.19019 30.05548 380.34833 29.8331 380.44691 29.69472 C  380.5455 29.55634 380.70366 29.33461 380.80225 29.19733 C  380.90083 29.06004 381.05898 28.84201 381.15756 28.70522 C  381.25615 28.56842 381.41429 28.34734 381.51288 28.21133 C  381.61147 28.07533 381.76962 27.85965 381.86821 27.725 C  381.9668 27.59036 382.12494 27.37482 382.22353 27.24084 C  382.32211 27.10687 382.48026 26.89233 382.57884 26.75934 C  382.67743 26.62634 382.83557 26.41463 382.93416 26.28224 C  383.03275 26.14986 383.1909 25.93669 383.28949 25.80516 C  383.38808 25.67363 383.54622 25.46468 383.6448 25.33426 C  383.7434 25.20384 383.90154 24.99469 384.00012 24.86513 C  384.09871 24.73557 384.25687 24.52911 384.35545 24.4004 C  384.45404 24.2717 384.61218 24.06543 384.71077 23.93745 C  384.80936 23.80948 384.9675 23.60477 385.06609 23.47803 C  385.16467 23.35129 385.32283 23.14981 385.42142 23.02393 C  385.52 22.89804 385.67815 22.6956 385.77673 22.5707 C  385.87532 22.44579 386.03346 22.24744 386.13205 22.12363 C  386.23064 21.99982 386.38878 21.80153 386.48737 21.67834 C  386.58595 21.55516 386.74411 21.3577 386.8427 21.23573 C  386.94128 21.11377 387.09943 20.92038 387.19801 20.79927 C  387.2966 20.67816 387.45474 20.48294 387.55333 20.36282 C  387.65192 20.2427 387.81007 20.0526 387.90866 19.93346 C  388.00725 19.81432 388.16539 19.62285 388.26398 19.50407 C  388.36256 19.3853 388.6193 19.07738 388.6193 19.07738  " style="fill:none"/>
 </g>
 </g>
 </g>
 </g>
 <g>
 <g stroke="rgb(0.0%,0.0%,50.0%)">
 <g fill="rgb(0.0%,0.0%,50.0%)">
 <g fill="rgb(0.0%,0.0%,50.0%)">
 <path d=" M  177.30927 55.63298 C  177.30927 55.63298 178.33295 57.3895 178.7261 58.06853 C  179.11926 58.74756 179.7498 59.84224 180.14296 60.52704 C  180.53612 61.21184 181.16666 62.31342 181.55981 63.0041 C  181.95297 63.6948 182.58351 64.8091 182.97667 65.50505 C  183.36983 66.201 184.00035 67.32013 184.39351 68.02013 C  184.78667 68.72012 185.4172 69.84605 185.81036 70.55023 C  186.20352 71.25441 186.83406 72.38763 187.22722 73.09535 C  187.62038 73.80307 188.25092 74.94078 188.64407 75.65108 C  189.03723 76.36137 189.66777 77.50226 190.06093 78.21477 C  190.45409 78.92728 191.08461 80.07242 191.47777 80.78639 C  191.87093 81.50037 192.50146 82.64621 192.89462 83.36069 C  193.28778 84.07516 193.91832 85.22127 194.31148 85.93585 C  194.70464 86.65044 195.33517 87.7963 195.72833 88.51102 C  196.12149 89.22574 196.75201 90.37311 197.14517 91.08708 C  197.53833 91.80106 198.16887 92.94469 198.56203 93.65695 C  198.95518 94.36922 199.58572 95.51033 199.97888 96.22063 C  200.37204 96.93092 201.00258 98.06874 201.39574 98.77635 C  201.7889 99.48396 202.41943 100.61642 202.81259 101.3206 C  203.20575 102.02478 203.83627 103.15146 204.22943 103.85158 C  204.62259 104.5517 205.25313 105.67084 205.64629 106.36667 C  206.03944 107.0625 206.66998 108.17604 207.06314 108.86671 C  207.4563 109.55739 208.08684 110.65974 208.48 111.34467 C  208.87315 112.02959 209.50368 113.1244 209.89684 113.80319 C  210.29 114.48198 211.31369 116.23697 211.31369 116.23697 L  211.31369 85.93585 L  177.30927 85.93585 Z  " />
 </g>
 </g>
 </g>
 </g>
 <g>
 <g stroke="rgb(100.0%,100.0%,100.0%)">
 <g fill="rgb(100.0%,100.0%,100.0%)">
 <g fill="rgb(100.0%,100.0%,100.0%)">
 <path d=" M  177.30927 81.76184 C  177.30927 81.76184 178.33295 82.01192 178.7261 82.10808 C  179.11926 82.20424 179.7498 82.35872 180.14296 82.45497 C  180.53612 82.55122 181.16666 82.70555 181.55981 82.80185 C  181.95297 82.89815 182.58351 83.05267 182.97667 83.14906 C  183.36983 83.24545 184.00035 83.40007 184.39351 83.4966 C  184.78667 83.59312 185.4172 83.74812 185.81036 83.84479 C  186.20352 83.94145 186.83406 84.09668 187.22722 84.1933 C  187.62038 84.28992 188.25092 84.4445 188.64407 84.54117 C  189.03723 84.63783 189.66777 84.79321 190.06093 84.89 C  190.45409 84.98679 191.08461 85.14212 191.47777 85.23883 C  191.87093 85.33554 192.50146 85.49031 192.89462 85.58702 C  193.28778 85.68373 193.91832 85.83907 194.31148 85.93585 C  194.70464 86.03264 195.33517 86.18799 195.72833 86.2847 C  196.12149 86.38141 196.75201 86.53616 197.14517 86.63287 C  197.53833 86.72958 198.16887 86.88493 198.56203 86.98172 C  198.95518 87.0785 199.58572 87.2339 199.97888 87.33055 C  200.37204 87.4272 201.00258 87.58179 201.39574 87.6784 C  201.7889 87.77502 202.41943 87.93027 202.81259 88.02693 C  203.20575 88.1236 203.83627 88.27863 204.22943 88.3751 C  204.62259 88.47159 205.25313 88.62598 205.64629 88.72232 C  206.03944 88.81866 206.66998 88.97324 207.06314 89.06953 C  207.4563 89.16583 208.08684 89.32011 208.48 89.41641 C  208.87315 89.51271 209.50368 89.66742 209.89684 89.76363 C  210.29 89.85983 211.31369 90.10986 211.31369 90.10986 L  211.31369 85.93585 L  177.30927 85.93585 Z  " />
 </g>
 </g>
 </g>
 </g>
 </g>
 <g>
 <g>
 <g stroke-width="0.2pt">
 <g stroke="rgb(50.0%,50.0%,50.0%)">
 <g fill="rgb(50.0%,50.0%,50.0%)">
 <path d=" M  0.0 83.80202 L  0.0 88.0697 M  24.28894 83.80202 L  24.28894 88.0697 M  48.57788 83.80202 L  48.57788 88.0697 M  72.86682 83.80202 L  72.86682 88.0697 M  97.15576 83.80202 L  97.15576 88.0697 M  121.4447 83.80202 L  121.4447 88.0697 M  145.73364 83.80202 L  145.73364 88.0697 M  170.02258 83.80202 L  170.02258 88.0697 M  218.60046 83.80202 L  218.60046 88.0697 M  242.8894 83.80202 L  242.8894 88.0697 M  267.17834 83.80202 L  267.17834 88.0697 M  291.46729 83.80202 L  291.46729 88.0697 M  315.75623 83.80202 L  315.75623 88.0697 M  340.04517 83.80202 L  340.04517 88.0697 M  364.3341 83.80202 L  364.3341 88.0697 M  388.62305 83.80202 L  388.62305 88.0697  " style="fill:none"/>
 </g>
 </g>
 </g>
 </g>
 </g>
 <g>
 <g>
 <g stroke-width="0.2pt">
 <g stroke="rgb(50.0%,50.0%,50.0%)">
 <g fill="rgb(50.0%,50.0%,50.0%)">
 <path d=" M  192.1777 20.9151 L  196.44533 20.9151 M  192.1777 53.42548 L  196.44533 53.42548 M  192.1777 118.44623 L  196.44533 118.44623 M  192.1777 150.9566 L  196.44533 150.9566  " style="fill:none"/>
 </g>
 </g>
 </g>
 </g>
 </g>
 <path d=" M  0.0 85.93585 L  386.61932 85.93585  " style="fill:none"/>
 <g>
 <g transform="matrix(1.0,0.0,0.0,1.0,386.61932,85.93585)">
 <g>
 <path d=" M  1.99997 0.0 L  -1.19998 1.59998 L  0.0 0.0 L  -1.19998 -1.59998  " style="stroke:none"/>
 </g>
  </g>
 </g>
 <path d=" M  194.31152 0.0 L  194.31152 169.87175  " style="fill:none"/>
 <g>
 <g transform="matrix(0.0,1.0,-1.0,0.0,194.31152,169.87175)">
 <g>
 <path d=" M  1.99997 0.0 L  -1.19998 1.59998 L  0.0 0.0 L  -1.19998 -1.59998  " style="stroke:none"/>
 </g>
  </g>
 </g>
 <g>
 <g>
 <g transform="matrix(1.0,0.0,0.0,1.0,-8.61107,73.8246)">
 <g fill="rgb(0.0%,0.0%,0.0%)">
 <text style="stroke:none" transform="scale(1,-1) translate(8.61107,0)" text-anchor="middle"  font-size="10"> 
  4</text> 
</g>
 </g>
 </g>
 </g>
 <g>
 <g>
 <g transform="matrix(1.0,0.0,0.0,1.0,11.78897,73.8246)">
 <g fill="rgb(0.0%,0.0%,0.0%)">
 <text style="stroke:none" transform="scale(1,-1) translate(12.49997,0)" text-anchor="middle"  font-size="10"> 
  3.5</text> 
</g>
 </g>
 </g>
 </g>
 <g>
 <g>
 <g transform="matrix(1.0,0.0,0.0,1.0,39.96681,73.8246)">
 <g fill="rgb(0.0%,0.0%,0.0%)">
 <text style="stroke:none" transform="scale(1,-1) translate(8.61107,0)" text-anchor="middle"  font-size="10"> 
  3</text> 
</g>
 </g>
 </g>
 </g>
 <g>
 <g>
 <g transform="matrix(1.0,0.0,0.0,1.0,60.36685,73.8246)">
 <g fill="rgb(0.0%,0.0%,0.0%)">
 <text style="stroke:none" transform="scale(1,-1) translate(12.49997,0)" text-anchor="middle"  font-size="10"> 
  2.5</text> 
</g>
 </g>
 </g>
 </g>
 <g>
 <g>
 <g transform="matrix(1.0,0.0,0.0,1.0,88.5447,73.8246)">
 <g fill="rgb(0.0%,0.0%,0.0%)">
 <text style="stroke:none" transform="scale(1,-1) translate(8.61107,0)" text-anchor="middle"  font-size="10"> 
  2</text> 
</g>
 </g>
 </g>
 </g>
 <g>
 <g>
 <g transform="matrix(1.0,0.0,0.0,1.0,108.94473,73.8246)">
 <g fill="rgb(0.0%,0.0%,0.0%)">
 <text style="stroke:none" transform="scale(1,-1) translate(12.49997,0)" text-anchor="middle"  font-size="10"> 
  1.5</text> 
</g>
 </g>
 </g>
 </g>
 <g>
 <g>
 <g transform="matrix(1.0,0.0,0.0,1.0,137.12257,73.8246)">
 <g fill="rgb(0.0%,0.0%,0.0%)">
 <text style="stroke:none" transform="scale(1,-1) translate(8.61107,0)" text-anchor="middle"  font-size="10"> 
  1</text> 
</g>
 </g>
 </g>
 </g>
 <g>
 <g>
 <g transform="matrix(1.0,0.0,0.0,1.0,157.52261,73.8246)">
 <g fill="rgb(0.0%,0.0%,0.0%)">
 <text style="stroke:none" transform="scale(1,-1) translate(12.49997,0)" text-anchor="middle"  font-size="10"> 
  0.5</text> 
</g>
 </g>
 </g>
 </g>
 <g>
 <g>
 <g transform="matrix(1.0,0.0,0.0,1.0,212.21156,73.82462)">
 <g fill="rgb(0.0%,0.0%,0.0%)">
 <text style="stroke:none" transform="scale(1,-1) translate(6.3889,0)" text-anchor="middle"  font-size="10"> 
0.5</text> 
</g>
 </g>
 </g>
 </g>
 <g>
 <g>
 <g transform="matrix(1.0,0.0,0.0,1.0,240.3894,73.82462)">
 <g fill="rgb(0.0%,0.0%,0.0%)">
 <text style="stroke:none" transform="scale(1,-1) translate(2.5,0)" text-anchor="middle"  font-size="10"> 
1</text> 
</g>
 </g>
 </g>
 </g>
 <g>
 <g>
 <g transform="matrix(1.0,0.0,0.0,1.0,260.78944,73.82462)">
 <g fill="rgb(0.0%,0.0%,0.0%)">
 <text style="stroke:none" transform="scale(1,-1) translate(6.3889,0)" text-anchor="middle"  font-size="10"> 
1.5</text> 
</g>
 </g>
 </g>
 </g>
 <g>
 <g>
 <g transform="matrix(1.0,0.0,0.0,1.0,288.96729,73.82462)">
 <g fill="rgb(0.0%,0.0%,0.0%)">
 <text style="stroke:none" transform="scale(1,-1) translate(2.5,0)" text-anchor="middle"  font-size="10"> 
2</text> 
</g>
 </g>
 </g>
 </g>
 <g>
 <g>
 <g transform="matrix(1.0,0.0,0.0,1.0,309.36732,73.82462)">
 <g fill="rgb(0.0%,0.0%,0.0%)">
 <text style="stroke:none" transform="scale(1,-1) translate(6.3889,0)" text-anchor="middle"  font-size="10"> 
2.5</text> 
</g>
 </g>
 </g>
 </g>
 <g>
 <g>
 <g transform="matrix(1.0,0.0,0.0,1.0,337.54517,73.82462)">
 <g fill="rgb(0.0%,0.0%,0.0%)">
 <text style="stroke:none" transform="scale(1,-1) translate(2.5,0)" text-anchor="middle"  font-size="10"> 
3</text> 
</g>
 </g>
 </g>
 </g>
 <g>
 <g>
 <g transform="matrix(1.0,0.0,0.0,1.0,357.9452,73.82462)">
 <g fill="rgb(0.0%,0.0%,0.0%)">
 <text style="stroke:none" transform="scale(1,-1) translate(6.3889,0)" text-anchor="middle"  font-size="10"> 
3.5</text> 
</g>
 </g>
 </g>
 </g>
 <g>
 <g>
 <g transform="matrix(1.0,0.0,0.0,1.0,386.12305,73.82462)">
 <g fill="rgb(0.0%,0.0%,0.0%)">
 <text style="stroke:none" transform="scale(1,-1) translate(2.5,0)" text-anchor="middle"  font-size="10"> 
4</text> 
</g>
 </g>
 </g>
 </g>
 <g>
 <g>
 <g transform="matrix(1.0,0.0,0.0,1.0,171.42259,18.10954)">
 <g fill="rgb(0.0%,0.0%,0.0%)">
 <text style="stroke:none" transform="scale(1,-1) translate(8.61107,0)" text-anchor="middle"  font-size="10"> 
  2</text> 
</g>
 </g>
 </g>
 </g>
 <g>
 <g>
 <g transform="matrix(1.0,0.0,0.0,1.0,171.42259,50.61992)">
 <g fill="rgb(0.0%,0.0%,0.0%)">
 <text style="stroke:none" transform="scale(1,-1) translate(8.61107,0)" text-anchor="middle"  font-size="10"> 
  1</text> 
</g>
 </g>
 </g>
 </g>
 <g>
 <g>
 <g transform="matrix(1.0,0.0,0.0,1.0,183.64473,115.22401)">
 <g fill="rgb(0.0%,0.0%,0.0%)">
 <text style="stroke:none" transform="scale(1,-1) translate(2.5,0)" text-anchor="middle"  font-size="10"> 
1</text> 
</g>
 </g>
 </g>
 </g>
 <g>
 <g>
 <g transform="matrix(1.0,0.0,0.0,1.0,183.64473,147.73439)">
 <g fill="rgb(0.0%,0.0%,0.0%)">
 <text style="stroke:none" transform="scale(1,-1) translate(2.5,0)" text-anchor="middle"  font-size="10"> 
2</text> 
</g>
 </g>
 </g>
 </g>
 <g>
 <g>
 <g transform="matrix(1.0,0.0,0.0,1.0,392.21964,83.7973)">
 <g fill="rgb(0.0%,0.0%,0.0%)">
 <text style="stroke:none" transform="scale(1,-1) translate(2.85764,0)" text-anchor="middle"  font-size="10"> 
x</text> 
</g>
 </g>
 </g>
 </g>
 <g>
 <g>
 <g transform="matrix(1.0,0.0,0.0,1.0,191.72037,177.38808)">
 <g fill="rgb(0.0%,0.0%,0.0%)">
 <text style="stroke:none" transform="scale(1,-1) translate(2.6308,0)" text-anchor="middle"  font-size="10"> 
y</text> 
</g>
 </g>
 </g>
 </g>
 </g>
 </g>
 </g>
 </g>
 </g>
                                                                                                 </g> 
</svg> 
