<?xml version="1.0" encoding="iso-8859-1" standalone="no"?> 
<?xml-stylesheet href="digInTheSqueezeTheorem.css" type="text/css"?> 
<svg xmlns="http://www.w3.org/2000/svg" xmlns:xlink="http://www.w3.org/1999/xlink" width="184.82877pt" height="190.90074pt" viewBox="-0.59999 -15.75484 184.82877 190.90074 "> 
<g transform="translate(0, 175.1459 ) scale(1,-1) translate(0,15.75484 )"> 
<g>
 <g stroke="rgb(0.0%,0.0%,0.0%)">
 <g fill="rgb(0.0%,0.0%,0.0%)">
 <g stroke-width="0.4pt">
 <g>
 </g>
 <g>
 <g>
 <g>
 </g>
 <g>
 </g>
 <path d=" M  0.00269 13.49991 L  160.00162 13.49991  " style="fill:none"/>
 <g>
 <g transform="matrix(1.0,0.0,0.0,1.0,160.00162,13.49991)">
 <g>
 <path d=" M  1.99997 0.0 L  -1.19998 1.59998 L  0.0 0.0 L  -1.19998 -1.59998  " style="stroke:none"/>
 </g>
  </g>
 </g>
 <path d=" M  13.5026 0.0 L  13.5026 159.99893  " style="fill:none"/>
 <g>
 <g transform="matrix(0.0,1.0,-1.0,0.0,13.5026,159.99893)">
 <g>
 <path d=" M  1.99997 0.0 L  -1.19998 1.59998 L  0.0 0.0 L  -1.19998 -1.59998  " style="stroke:none"/>
 </g>
  </g>
 </g>
 <g>
 <g stroke-width="1.2pt">
 <g stroke="rgb(0.0%,0.0%,50.0%)">
 <g fill="rgb(0.0%,0.0%,50.0%)">
 <g fill="rgb(80.0003%,80.0003%,89.99939%)">
 <path d=" M  13.5026 13.49991 L  148.50168 126.76413 L  148.50168 13.49991 L  13.5026 13.49991 Z  " />
 </g>
 </g>
 </g>
 </g>
 </g>
 <g>
 <g stroke-width="1.2pt">
 <g stroke="rgb(50.0%,0.0%,0.0%)">
 <g fill="rgb(50.0%,0.0%,0.0%)">
 <path d=" M  147.82129 0.02563 C  147.82129 0.02563 148.37521 7.20276 148.4477 9.96294 C  148.52017 12.72311 148.47429 17.16081 148.34373 19.91911 C  148.21318 22.67741 147.84128 27.10146 147.50674 29.8429 C  147.17221 32.58434 146.4689 36.96835 145.93265 39.67758 C  145.3964 42.38681 144.37558 46.70659 143.64171 49.36917 C  142.90784 52.03175 141.5713 56.26654 140.64339 58.86769 C  139.71547 61.46884 138.07077 65.59082 136.95386 68.11649 C  135.83694 70.64215 133.89444 74.63446 132.5934 77.07097 C  131.29236 79.50748 129.05394 83.34348 127.57683 85.67715 C  126.09972 88.01083 123.59157 91.67184 121.94737 93.8905 C  120.30318 96.10916 117.53001 99.57632 115.72661 101.6678 C  113.9232 103.75928 110.9029 107.012 108.94965 108.9645 C  106.9964 110.91699 103.74113 113.93689 101.64891 115.7401 C  99.55669 117.5433 96.0893 120.3163 93.87025 121.96086 C  91.65121 123.60542 87.98979 126.11649 85.65556 127.59303 C  83.32133 129.06958 79.48318 131.30273 77.04668 132.60284 C  74.61017 133.90295 70.62054 135.84677 68.09488 136.96332 C  65.56921 138.07986 61.4449 139.7226 58.84338 140.65015 C  56.24187 141.5777 52.00745 142.91498 49.34486 143.64847 C  46.68228 144.38196 42.36269 145.4012 39.65327 145.9367 C  36.94386 146.47221 32.55907 147.17451 29.81725 147.5081 C  27.07542 147.84169 22.65022 148.21104 19.8921 148.34103 C  17.13399 148.47102 12.69861 148.51804 9.93863 148.44499 C  7.17865 148.37195 0.0 147.81453 0.0 147.81453  " style="fill:none"/>
 </g>
 </g>
 </g>
 </g>
 <g>
 <g stroke-width="1.2pt">
 <g stroke="rgb(0.0%,0.0%,50.0%)">
 <g fill="rgb(0.0%,0.0%,50.0%)">
 <path d=" M  13.5026 13.49991 L  148.50168 126.76413  " style="fill:none"/>
 </g>
 </g>
 </g>
 </g>
 <g>
 <g stroke="rgb(0.0%,0.0%,0.0%)">
 <g fill="rgb(0.0%,0.0%,0.0%)">
 <path d=" M  116.91191 13.49991 L  116.91191 100.30432  " style="fill:none"/>
 </g>
 </g>
 </g>
 <g>
 <g stroke-width="1.2pt">
 <g stroke="rgb(0.0%,0.0%,50.0%)">
 <g fill="rgb(0.0%,0.0%,50.0%)">
 <path d=" M  148.50168 13.49991 L  148.50168 126.76413  " style="fill:none"/>
 </g>
 </g>
 </g>
 </g>
 <g>
 <g stroke="rgb(0.0%,0.0%,0.0%)">
 <g fill="rgb(0.0%,0.0%,0.0%)">
 <path d=" M  33.75246 13.49991 C  33.75246 13.49991 33.74786 13.92528 33.74295 14.08856 C  33.73804 14.25185 33.72646 14.51367 33.71703 14.67682 C  33.7076 14.83997 33.68909 15.10165 33.67491 15.26447 C  33.66074 15.42728 33.63377 15.68802 33.61476 15.8503 C  33.59575 16.01257 33.5614 16.2724 33.53781 16.43411 C  33.51422 16.59583 33.47304 16.8549 33.44467 17.01588 C  33.4163 17.17686 33.36646 17.43443 33.33328 17.59444 C  33.30011 17.75444 33.24312 18.01013 33.2055 18.16911 C  33.1679 18.3281 33.10443 18.5825 33.06213 18.74037 C  33.01984 18.89824 32.9475 19.1504 32.90056 19.30695 C  32.85362 19.46349 32.77505 19.71349 32.72379 19.86868 C  32.67252 20.02388 32.5869 20.272 32.53099 20.42557 C  32.47508 20.57913 32.38123 20.82375 32.3208 20.97554 C  32.26038 21.12733 32.16003 21.36954 32.09541 21.51965 C  32.03079 21.66977 31.92409 21.90938 31.85504 22.0575 C  31.786 22.20561 31.67113 22.44125 31.59769 22.58723 C  31.52425 22.73322 31.40321 22.96576 31.32573 23.10966 C  31.24825 23.25357 31.1209 23.48285 31.03917 23.62442 C  30.95744 23.76599 30.82256 23.991 30.73665 24.13007 C  30.65074 24.26913 30.50964 24.49023 30.41994 24.6268 C  30.33023 24.76337 30.1837 24.98051 30.09006 25.11441 C  29.99641 25.2483 29.84273 25.46086 29.74501 25.59192 C  29.6473 25.72298 29.48714 25.93091 29.38577 26.05907 C  29.28441 26.18723 29.01439 26.5157 29.01439 26.5157  " style="fill:none"/>
 </g>
 </g>
 </g>
 <g>
 <g>
 <g transform="matrix(1.0,0.0,0.0,1.0,37.28543,19.47763)">
 <g fill="rgb(0.0%,0.0%,0.0%)">
 <text style="stroke:none" transform="scale(1,-1) translate(2.48611,0)" text-anchor="middle"  font-size="10"> 
𝜃</text> 
</g>
 </g>
 </g>
 </g>
 <g>
 <g>
 <g transform="matrix(1.0,0.0,0.0,1.0,78.50214,3.5225)">
 <g fill="rgb(0.0%,0.0%,0.0%)">
 <text style="stroke:none" transform="scale(1,-1) translate(2.5,0)" text-anchor="middle"  font-size="10"> 
1</text> 
</g>
 </g>
 </g>
 </g>
 <g>
 <g>
 <g transform="matrix(1.0,0.0,0.0,1.0,152.03465,67.69952)">
 <g fill="rgb(0.0%,0.0%,0.0%)">
 <text style="stroke:none" transform="scale(1,-1) translate(14.43057,0)" text-anchor="middle"  font-size="10"> 
 tan(𝜃)</text> 
</g>
 </g>
 </g>
 </g>
 <g>
 <g>
 <g transform="matrix(1.0,0.0,0.0,1.0,57.36148,-10.47742)">
 <g fill="rgb(0.0%,0.0%,0.0%)">
 <text style="stroke:none" transform="scale(1,-1) translate(23.64066,0)" text-anchor="middle"  font-size="10"> 
Triangle B</text> 
</g>
 </g>
 </g>
 </g>
 </g>
 <g>
 <g>
 <g transform="matrix(1.0,0.0,0.0,1.0,165.56812,11.34991)">
 <g fill="rgb(0.0%,0.0%,0.0%)">
 <text style="stroke:none" transform="scale(1,-1) translate(2.85764,0)" text-anchor="middle"  font-size="10"> 
x</text> 
</g>
 </g>
 </g>
 </g>
 <g>
 <g>
 <g transform="matrix(1.0,0.0,0.0,1.0,10.87437,167.50739)">
 <g fill="rgb(0.0%,0.0%,0.0%)">
 <text style="stroke:none" transform="scale(1,-1) translate(2.6308,0)" text-anchor="middle"  font-size="10"> 
y</text> 
</g>
 </g>
 </g>
 </g>
 </g>
 </g>
 </g>
 </g>
 </g>
 
                                               </g> 
</svg> 
