<?xml version="1.0" encoding="iso-8859-1" standalone="no"?> 
<?xml-stylesheet href="digInTheSqueezeTheorem.css" type="text/css"?> 
<svg xmlns="http://www.w3.org/2000/svg" xmlns:xlink="http://www.w3.org/1999/xlink" width="188.53409pt" height="190.90074pt" viewBox="-0.59999 -15.75484 188.53409 190.90074 "> 
<g transform="translate(0, 175.1459 ) scale(1,-1) translate(0,15.75484 )"> 
<g>
 <g stroke="rgb(0.0%,0.0%,0.0%)">
 <g fill="rgb(0.0%,0.0%,0.0%)">
 <g stroke-width="0.4pt">
 <g>
 </g>
 <g>
 <g>
 <g>
 </g>
 <g>
 </g>
 <path d=" M  13.31766 13.49991 L  173.31659 13.49991  " style="fill:none"/>
 <g>
 <g transform="matrix(1.0,0.0,0.0,1.0,173.31659,13.49991)">
 <g>
 <path d=" M  1.99997 0.0 L  -1.19998 1.59998 L  0.0 0.0 L  -1.19998 -1.59998  " style="stroke:none"/>
 </g>
  </g>
 </g>
 <path d=" M  26.81757 0.0 L  26.81757 159.99893  " style="fill:none"/>
 <g>
 <g transform="matrix(0.0,1.0,-1.0,0.0,26.81757,159.99893)">
 <g>
 <path d=" M  1.99997 0.0 L  -1.19998 1.59998 L  0.0 0.0 L  -1.19998 -1.59998  " style="stroke:none"/>
 </g>
  </g>
 </g>
 <g>
 <g stroke-width="1.2pt">
 <g stroke="rgb(50.0%,0.0%,0.0%)">
 <g fill="rgb(50.0%,0.0%,0.0%)">
 <path d=" M  161.13626 0.02563 C  161.13626 0.02563 161.71307 7.61003 161.7775 10.52586 C  161.84192 13.4417 161.7636 18.12888 161.60065 21.04095 C  161.4377 23.95303 160.99223 28.62326 160.60301 31.51418 C  160.21379 34.40509 159.4086 39.02493 158.79536 41.87671 C  158.18213 44.72849 157.01628 49.2724 156.18314 52.0678 C  155.34999 54.86319 153.83952 59.30182 152.7906 62.02397 C  151.74168 64.74612 149.8806 69.05478 148.6232 71.68721 C  147.3658 74.31964 145.18631 78.47052 143.72812 80.99675 C  142.26993 83.52298 139.76463 87.4893 138.11351 89.89453 C  136.46239 92.29976 133.66095 96.06293 131.82796 98.33199 C  129.99496 100.60104 126.90689 104.12912 124.90251 106.24832 C  122.89813 108.36752 119.54494 111.64897 117.38171 113.60577 C  115.21849 115.56258 111.62039 118.56906 109.31145 120.35167 C  107.0025 122.13428 103.18117 124.8559 100.74036 126.45363 C  98.29955 128.05136 94.27779 130.46452 91.71973 131.86708 C  89.16167 133.26964 84.96275 135.36305 82.30354 136.56238 C  79.64433 137.7617 75.29854 139.52284 72.55391 140.51108 C  69.80928 141.49931 65.33531 142.91321 62.52213 143.68492 C  59.70894 144.45663 55.14308 145.52293 52.2784 146.07306 C  49.41371 146.62318 44.77435 147.3245 41.87538 147.64984 C  38.97641 147.97519 34.29929 148.31927 31.38458 148.41798 C  28.46988 148.5167 23.7823 148.48958 20.86816 148.36128 C  17.95403 148.23299 13.27684 147.84819 10.38142 147.49326 C  7.48601 147.13832 0.0 145.80305 0.0 145.80305  " style="fill:none"/>
 </g>
 </g>
 </g>
 </g>
 <g>
 <g stroke="rgb(0.0%,0.0%,0.0%)">
 <g fill="rgb(0.0%,0.0%,0.0%)">
 <path d=" M  26.81757 13.49991 L  161.81665 126.76413  " style="fill:none"/>
 </g>
 </g>
 </g>
 <g>
 <g stroke-width="1.2pt">
 <g stroke="rgb(0.0%,0.0%,50.0%)">
 <g fill="rgb(0.0%,0.0%,50.0%)">
 <path d=" M  130.22687 13.49991 L  130.22687 100.30432  " style="fill:none"/>
 </g>
 </g>
 </g>
 </g>
 <g>
 <g stroke="rgb(0.0%,0.0%,0.0%)">
 <g fill="rgb(0.0%,0.0%,0.0%)">
 <path d=" M  161.81665 13.49991 L  161.81665 126.76413  " style="fill:none"/>
 </g>
 </g>
 </g>
 <g>
 <g stroke-width="1.2pt">
 <g stroke="rgb(0.0%,0.0%,50.0%)">
 <g fill="rgb(0.0%,0.0%,50.0%)">
 <g fill="rgb(80.0003%,80.0003%,89.99939%)">
 <path d=" M  26.81757 13.49991 L  130.22687 100.30432 L  130.22687 13.49991 L  26.81757 13.49991 Z  " />
 </g>
 </g>
 </g>
 </g>
 </g>
 <g>
 <g stroke="rgb(0.0%,0.0%,0.0%)">
 <g fill="rgb(0.0%,0.0%,0.0%)">
 <path d=" M  47.06743 13.49991 C  47.06743 13.49991 47.06282 13.92528 47.0579 14.08856 C  47.053 14.25185 47.04143 14.51367 47.032 14.67682 C  47.02257 14.83997 47.00406 15.10165 46.98987 15.26447 C  46.97568 15.42728 46.94873 15.68802 46.92972 15.8503 C  46.9107 16.01257 46.87637 16.2724 46.85278 16.43411 C  46.8292 16.59583 46.78801 16.8549 46.75964 17.01588 C  46.73128 17.17686 46.68143 17.43443 46.64825 17.59444 C  46.61508 17.75444 46.55809 18.01013 46.52048 18.16911 C  46.48286 18.3281 46.4194 18.5825 46.3771 18.74037 C  46.33481 18.89824 46.26247 19.1504 46.21553 19.30695 C  46.1686 19.46349 46.09001 19.71349 46.03874 19.86868 C  45.98747 20.02388 45.90187 20.272 45.84596 20.42557 C  45.79005 20.57913 45.69618 20.82375 45.63576 20.97554 C  45.57533 21.12733 45.475 21.36954 45.41039 21.51965 C  45.34576 21.66977 45.23906 21.90938 45.17001 22.0575 C  45.10097 22.20561 44.98608 22.44125 44.91264 22.58723 C  44.8392 22.73322 44.71819 22.96576 44.6407 23.10966 C  44.56322 23.25357 44.43587 23.48285 44.35414 23.62442 C  44.27242 23.76599 44.13753 23.991 44.05162 24.13007 C  43.96571 24.26913 43.82462 24.49023 43.73491 24.6268 C  43.6452 24.76337 43.49867 24.98051 43.40503 25.11441 C  43.31139 25.2483 43.1577 25.46086 43.05998 25.59192 C  42.96227 25.72298 42.80211 25.93091 42.70074 26.05907 C  42.59938 26.18723 42.32936 26.5157 42.32936 26.5157  " style="fill:none"/>
 </g>
 </g>
 </g>
 <g>
 <g>
 <g transform="matrix(1.0,0.0,0.0,1.0,50.6004,19.47763)">
 <g fill="rgb(0.0%,0.0%,0.0%)">
 <text style="stroke:none" transform="scale(1,-1) translate(2.48611,0)" text-anchor="middle"  font-size="10"> 
𝜃</text> 
</g>
 </g>
 </g>
 </g>
 <g>
 <g>
 <g transform="matrix(1.0,0.0,0.0,1.0,99.99944,54.4696)">
 <g fill="rgb(0.0%,0.0%,0.0%)">
 <text style="stroke:none" transform="scale(1,-1) translate(13.34723,0)" text-anchor="middle"  font-size="10"> 
 sin(𝜃)</text> 
</g>
 </g>
 </g>
 </g>
 <g>
 <g>
 <g transform="matrix(1.0,0.0,0.0,1.0,64.61945,2.46693)">
 <g fill="rgb(0.0%,0.0%,0.0%)">
 <text style="stroke:none" transform="scale(1,-1) translate(13.90277,0)" text-anchor="middle"  font-size="10"> 
 cos (𝜃)</text> 
</g>
 </g>
 </g>
 </g>
 <g>
 <g>
 <g transform="matrix(1.0,0.0,0.0,1.0,70.96985,-10.47742)">
 <g fill="rgb(0.0%,0.0%,0.0%)">
 <text style="stroke:none" transform="scale(1,-1) translate(23.34726,0)" text-anchor="middle"  font-size="10"> 
Triangle A</text> 
</g>
 </g>
 </g>
 </g>
 </g>
 <g>
 <g>
 <g transform="matrix(1.0,0.0,0.0,1.0,178.88585,11.34991)">
 <g fill="rgb(0.0%,0.0%,0.0%)">
 <text style="stroke:none" transform="scale(1,-1) translate(2.85764,0)" text-anchor="middle"  font-size="10"> 
x</text> 
</g>
 </g>
 </g>
 </g>
 <g>
 <g>
 <g transform="matrix(1.0,0.0,0.0,1.0,24.1919,167.50739)">
 <g fill="rgb(0.0%,0.0%,0.0%)">
 <text style="stroke:none" transform="scale(1,-1) translate(2.6308,0)" text-anchor="middle"  font-size="10"> 
y</text> 
</g>
 </g>
 </g>
 </g>
 </g>
 </g>
 </g>
 </g>
 </g>
 
                                                </g> 
</svg> 
